<?xml version="1.0" encoding="UTF-8"?><svg id="artwork" xmlns="http://www.w3.org/2000/svg" viewBox="0 0 434.72 255.03"><defs><style>.cls-1{fill:#bc955c;}</style></defs><rect class="cls-1" x="151.45" y="78.52" width="131.83" height="1.97"/><path class="cls-1" d="m120.18,121.95v-11.14h-1.75v-1.7h1.75v-.27c0-1.59.35-2.84,1.06-3.74.7-.9,1.66-1.35,2.88-1.35.51,0,1.01.07,1.5.21s.93.33,1.33.58l-.54,1.6c-.23-.16-.51-.29-.85-.39-.34-.1-.67-.15-1-.15-.72,0-1.27.27-1.65.81s-.57,1.33-.57,2.36v.34h3.42v1.7h-3.42v11.14h-2.16Z"/><path class="cls-1" d="m133.48,122.2c-.97,0-1.85-.18-2.64-.54-.8-.36-1.48-.84-2.04-1.45-.56-.61-1-1.31-1.32-2.11s-.47-1.65-.47-2.53.16-1.75.48-2.56c.32-.8.76-1.51,1.33-2.11.56-.61,1.24-1.09,2.04-1.45.8-.36,1.67-.54,2.62-.54s1.83.18,2.63.54c.8.36,1.49.84,2.05,1.45.56.61,1.01,1.31,1.33,2.11.32.8.48,1.66.48,2.56s-.16,1.73-.47,2.53c-.31.8-.75,1.51-1.33,2.11-.57.61-1.26,1.09-2.05,1.45-.8.36-1.68.54-2.64.54Zm-4.25-6.61c0,.67.11,1.29.33,1.87.22.57.52,1.07.91,1.5s.84.76,1.35,1.01,1.07.37,1.66.37,1.14-.12,1.66-.37.97-.59,1.36-1.02.7-.94.92-1.52.33-1.21.33-1.88-.11-1.27-.33-1.86-.53-1.09-.92-1.53c-.39-.43-.85-.77-1.36-1.02s-1.07-.37-1.66-.37-1.14.13-1.66.38-.97.6-1.35,1.03-.69.94-.91,1.52c-.22.58-.33,1.21-.33,1.88Z"/><path class="cls-1" d="m149.64,111.01c-1.08.03-2.04.31-2.86.84-.83.53-1.41,1.25-1.76,2.19v7.92h-2.16v-12.83h2.02v2.97c.44-.88,1.02-1.6,1.75-2.15.72-.55,1.49-.86,2.31-.92h.42c.11,0,.21,0,.29.02v1.97Z"/><path class="cls-1" d="m168.1,109.12h2.09l-5.46,12.83h-1.79l-2.58-6.27-2.56,6.27h-1.8l-5.46-12.83h2.07l4.43,10.7,2.16-5.34-2.21-5.34h1.8l1.57,4.11,1.57-4.11h1.79l-2.19,5.34,2.16,5.34,4.4-10.7Z"/><path class="cls-1" d="m175.43,122.2c-.61,0-1.17-.1-1.7-.31s-.98-.49-1.36-.85c-.39-.36-.69-.78-.91-1.27-.22-.48-.33-1.01-.33-1.59s.13-1.13.39-1.61c.26-.48.64-.9,1.12-1.24.48-.34,1.06-.61,1.72-.81s1.39-.29,2.18-.29c.62,0,1.25.06,1.89.17s1.2.27,1.7.47v-1.03c0-1.05-.29-1.87-.89-2.47-.59-.6-1.43-.9-2.51-.9-1.3,0-2.66.5-4.08,1.5l-.71-1.4c1.65-1.11,3.32-1.67,4.99-1.67s3,.45,3.95,1.35c.94.9,1.41,2.17,1.41,3.81v5.24c0,.51.23.77.69.79v1.87c-.23.03-.42.06-.57.07s-.3.02-.47.02c-.43,0-.77-.13-1.02-.38-.25-.25-.41-.56-.46-.92l-.05-.91c-.57.77-1.3,1.36-2.18,1.76-.88.4-1.82.6-2.82.6Zm.57-1.62c.77,0,1.49-.14,2.15-.43.66-.29,1.17-.67,1.51-1.14.31-.31.47-.63.47-.96v-1.89c-1.05-.41-2.14-.61-3.27-.61s-1.96.23-2.64.69c-.68.46-1.02,1.06-1.02,1.8,0,.36.07.7.21,1.01.14.31.34.58.59.81.25.23.55.41.9.54.34.13.71.2,1.11.2Z"/><path class="cls-1" d="m192.79,111.01c-1.08.03-2.04.31-2.86.84-.83.53-1.41,1.25-1.76,2.19v7.92h-2.16v-12.83h2.02v2.97c.44-.88,1.02-1.6,1.75-2.15.72-.55,1.49-.86,2.31-.92h.42c.12,0,.21,0,.3.02v1.97Z"/><path class="cls-1" d="m200.23,122.2c-.88,0-1.7-.18-2.46-.54-.75-.36-1.4-.84-1.94-1.45-.54-.61-.96-1.31-1.27-2.11s-.46-1.65-.46-2.53.14-1.76.43-2.57.69-1.52,1.2-2.13c.52-.61,1.13-1.09,1.84-1.44.71-.35,1.5-.53,2.35-.53,1.03,0,1.95.27,2.77.81.81.54,1.45,1.2,1.93,1.97v-7.67h2.16v15.29c0,.51.23.77.69.79v1.87c-.23.03-.41.06-.55.07-.14.02-.27.02-.41.02-.43,0-.8-.14-1.12-.43-.32-.29-.48-.62-.48-.99v-1.08c-.51.84-1.18,1.49-2.03,1.95-.84.47-1.73.7-2.67.7Zm.52-1.87c.39,0,.8-.07,1.22-.22.42-.15.81-.35,1.18-.61s.69-.57.96-.92c.27-.35.45-.73.53-1.12v-3.69c-.15-.41-.37-.8-.66-1.17-.3-.37-.63-.69-1-.96-.37-.27-.76-.48-1.18-.64-.42-.16-.83-.23-1.24-.23-.64,0-1.22.14-1.73.41-.52.27-.96.63-1.33,1.08s-.65.97-.85,1.55-.29,1.18-.29,1.78c0,.64.11,1.25.34,1.83s.54,1.09.93,1.51c.39.43.86.77,1.39,1.02.53.25,1.11.38,1.73.38Z"/><path class="cls-1" d="m223.76,121.31c-.13.07-.3.14-.52.23s-.46.18-.73.27c-.27.09-.57.16-.89.22-.32.06-.65.09-1,.09-.79,0-1.47-.22-2.04-.65-.57-.43-.86-1.11-.86-2.03v-8.63h-1.75v-1.7h1.75v-4.28h2.16v4.28h2.88v1.7h-2.88v7.97c.03.48.19.82.47,1.03.28.21.61.32.98.32.43,0,.82-.07,1.17-.21s.59-.25.73-.33l.52,1.72Z"/><path class="cls-1" d="m231.46,122.2c-.97,0-1.85-.18-2.64-.54s-1.48-.84-2.04-1.45c-.57-.61-1-1.31-1.32-2.11s-.47-1.65-.47-2.53.16-1.75.48-2.56.76-1.51,1.33-2.11c.57-.61,1.25-1.09,2.04-1.45.8-.36,1.67-.54,2.62-.54s1.83.18,2.63.54c.8.36,1.49.84,2.05,1.45.57.61,1.01,1.31,1.33,2.11.32.8.48,1.66.48,2.56s-.16,1.73-.47,2.53-.75,1.51-1.33,2.11c-.57.61-1.26,1.09-2.05,1.45s-1.68.54-2.64.54Zm-4.25-6.61c0,.67.11,1.29.33,1.87.22.57.52,1.07.91,1.5s.84.76,1.35,1.01c.52.25,1.07.37,1.66.37s1.14-.12,1.66-.37c.52-.25.97-.59,1.36-1.02.39-.43.7-.94.92-1.52.22-.58.33-1.21.33-1.88s-.11-1.27-.33-1.86c-.22-.58-.53-1.09-.92-1.53-.39-.43-.85-.77-1.36-1.02-.52-.25-1.07-.37-1.66-.37s-1.14.13-1.66.38c-.52.25-.97.6-1.35,1.03s-.69.94-.91,1.52c-.22.58-.33,1.21-.33,1.88Z"/><path class="cls-1" d="m245.94,122.1c-.87,0-1.67-.18-2.4-.54-.73-.36-1.36-.84-1.88-1.45-.52-.61-.93-1.3-1.22-2.09-.29-.79-.43-1.61-.43-2.46,0-.9.14-1.76.43-2.57.29-.81.69-1.52,1.22-2.13.52-.61,1.15-1.09,1.88-1.44s1.54-.53,2.42-.53c1.08,0,2.02.26,2.8.79s1.45,1.19,1.99,1.99v-2.56h1.92v12.69c0,.92-.17,1.72-.52,2.42-.34.7-.81,1.28-1.4,1.76-.59.48-1.28.84-2.08,1.08-.8.25-1.64.37-2.55.37-1.46,0-2.64-.25-3.55-.75-.91-.5-1.67-1.19-2.27-2.08l1.25-1.11c.51.75,1.16,1.32,1.97,1.7s1.67.57,2.61.57c.59,0,1.15-.08,1.68-.25.53-.16.99-.41,1.39-.74.39-.33.71-.74.95-1.23.24-.49.36-1.07.36-1.75v-2.26c-.25.39-.54.75-.87,1.07s-.7.59-1.09.81c-.39.22-.81.39-1.25.5-.44.12-.89.17-1.35.17Zm.66-1.77c.46,0,.9-.08,1.33-.25.43-.16.82-.38,1.18-.65.36-.27.66-.58.91-.92s.41-.7.49-1.06v-3.69c-.18-.44-.41-.84-.7-1.2s-.61-.68-.97-.95c-.36-.27-.75-.48-1.17-.63-.42-.15-.84-.22-1.27-.22-.66,0-1.24.14-1.76.42-.52.28-.96.65-1.31,1.11-.36.46-.64.98-.84,1.56s-.29,1.17-.29,1.76c0,.64.11,1.25.34,1.82.23.57.54,1.07.93,1.5.39.43.86.77,1.39,1.02.53.25,1.11.38,1.73.38Z"/><path class="cls-1" d="m262.1,122.2c-.97,0-1.85-.18-2.66-.53-.8-.35-1.49-.83-2.07-1.44-.57-.61-1.02-1.32-1.34-2.13-.32-.81-.48-1.67-.48-2.57s.16-1.75.48-2.56c.32-.8.77-1.51,1.35-2.11.58-.61,1.27-1.09,2.08-1.44s1.69-.53,2.66-.53,1.85.18,2.64.54c.79.36,1.47.84,2.03,1.44.56.6.99,1.3,1.29,2.09.3.8.45,1.62.45,2.47,0,.18,0,.34-.01.49s-.02.26-.04.34h-10.65c.05.64.2,1.22.44,1.75s.56.98.96,1.35c.39.38.84.67,1.34.89.5.21,1.03.32,1.58.32.39,0,.78-.05,1.16-.16.38-.11.73-.25,1.06-.43.33-.18.62-.4.87-.66.25-.26.45-.56.58-.89l1.87.52c-.21.48-.5.91-.87,1.3-.37.39-.8.73-1.28,1.02-.48.29-1.02.51-1.61.68s-1.2.25-1.84.25Zm4.4-7.52c-.05-.61-.2-1.17-.46-1.68-.25-.52-.57-.95-.96-1.32-.39-.36-.83-.64-1.34-.85-.51-.2-1.05-.31-1.62-.31s-1.12.1-1.62.31c-.51.21-.95.49-1.34.86-.38.37-.7.81-.93,1.32-.24.51-.38,1.07-.43,1.67h8.7Z"/><path class="cls-1" d="m277.71,121.31c-.13.07-.3.14-.52.23s-.45.18-.72.27c-.27.09-.57.16-.89.22-.32.06-.65.09-1,.09-.79,0-1.47-.22-2.04-.65s-.86-1.11-.86-2.03v-8.63h-1.75v-1.7h1.75v-4.28h2.16v4.28h2.88v1.7h-2.88v7.97c.03.48.19.82.47,1.03.28.21.61.32.98.32.43,0,.81-.07,1.17-.21.35-.14.59-.25.72-.33l.52,1.72Z"/><path class="cls-1" d="m291.11,121.95h-2.16v-7.18c0-1.33-.23-2.32-.69-2.96s-1.13-.97-2.02-.97c-.43,0-.85.09-1.28.26-.43.17-.82.41-1.19.7s-.7.65-.98,1.06c-.29.41-.5.86-.65,1.35v7.74h-2.16v-17.95h2.16v7.87c.51-.93,1.2-1.66,2.06-2.19s1.82-.79,2.85-.79c.75,0,1.39.14,1.92.42s.94.66,1.25,1.13.54,1.04.68,1.71c.14.66.21,1.37.21,2.13v7.67Z"/><path class="cls-1" d="m300.4,122.2c-.97,0-1.85-.18-2.65-.53-.8-.35-1.49-.83-2.06-1.44-.57-.61-1.02-1.32-1.34-2.13-.32-.81-.48-1.67-.48-2.57s.16-1.75.48-2.56c.32-.8.77-1.51,1.35-2.11.58-.61,1.27-1.09,2.08-1.44.8-.35,1.69-.53,2.65-.53s1.85.18,2.64.54c.8.36,1.47.84,2.03,1.44s.99,1.3,1.29,2.09c.3.8.46,1.62.46,2.47,0,.18,0,.34-.01.49s-.02.26-.04.34h-10.65c.05.64.2,1.22.44,1.75s.57.98.96,1.35c.39.38.84.67,1.34.89s1.03.32,1.59.32c.39,0,.78-.05,1.15-.16.38-.11.73-.25,1.06-.43.33-.18.62-.4.87-.66s.45-.56.58-.89l1.87.52c-.21.48-.51.91-.87,1.3-.37.39-.8.73-1.28,1.02-.48.29-1.02.51-1.61.68-.59.16-1.2.25-1.84.25Zm4.4-7.52c-.05-.61-.2-1.17-.45-1.68-.26-.52-.57-.95-.96-1.32-.39-.36-.83-.64-1.34-.85-.51-.2-1.05-.31-1.62-.31s-1.11.1-1.62.31c-.51.21-.95.49-1.34.86-.39.37-.7.81-.94,1.32-.24.51-.38,1.07-.43,1.67h8.7Z"/><path class="cls-1" d="m316.28,111.01c-1.08.03-2.04.31-2.86.84-.83.53-1.41,1.25-1.76,2.19v7.92h-2.16v-12.83h2.02v2.97c.44-.88,1.02-1.6,1.75-2.15.72-.55,1.49-.86,2.31-.92h.42c.11,0,.21,0,.29.02v1.97Z"/><path class="cls-1" d="m109.34,149.36c-1.03,0-2.05-.16-3.05-.48-1-.32-1.86-.78-2.58-1.39l.93-1.45c.75.57,1.51,1,2.26,1.29.75.29,1.55.43,2.38.43.94,0,1.68-.18,2.23-.55.55-.37.82-.89.82-1.56,0-.31-.07-.58-.22-.8-.15-.22-.37-.41-.66-.58-.3-.16-.67-.31-1.13-.44-.46-.13-.99-.27-1.6-.42-.77-.2-1.43-.39-1.99-.57s-1.02-.39-1.38-.64c-.36-.25-.62-.54-.79-.88-.17-.34-.25-.77-.25-1.28,0-.64.13-1.21.38-1.71.25-.5.6-.92,1.04-1.25.44-.34.96-.59,1.56-.76.6-.17,1.24-.26,1.93-.26.97,0,1.87.16,2.7.47.84.31,1.54.72,2.11,1.23l-.98,1.3c-.54-.48-1.15-.83-1.82-1.07-.67-.24-1.36-.36-2.06-.36-.79,0-1.45.17-2,.5s-.82.87-.82,1.61c0,.3.05.54.16.74.11.2.28.37.53.52s.56.28.95.39c.39.11.85.24,1.39.37.85.2,1.59.4,2.23.6.63.2,1.16.45,1.57.73.42.28.73.61.93.98.2.38.31.84.31,1.38,0,1.2-.46,2.15-1.38,2.85-.92.7-2.16,1.06-3.71,1.06Z"/><path class="cls-1" d="m122.84,149.36c-.97,0-1.85-.18-2.64-.54s-1.48-.84-2.04-1.45c-.57-.61-1-1.31-1.31-2.11-.31-.8-.47-1.65-.47-2.53s.16-1.75.48-2.56c.32-.8.76-1.51,1.33-2.11.57-.61,1.25-1.09,2.04-1.45.79-.36,1.67-.54,2.62-.54s1.83.18,2.63.54c.8.36,1.49.84,2.05,1.45.57.61,1.01,1.31,1.33,2.11s.48,1.66.48,2.56-.16,1.73-.47,2.53-.75,1.51-1.33,2.11c-.57.61-1.26,1.09-2.05,1.45s-1.68.54-2.64.54Zm-4.25-6.61c0,.67.11,1.29.33,1.87.22.57.52,1.07.91,1.5.38.43.84.76,1.35,1.01s1.07.37,1.66.37,1.14-.12,1.66-.37.97-.59,1.36-1.02c.39-.43.7-.94.92-1.52.22-.58.33-1.21.33-1.88s-.11-1.27-.33-1.86c-.22-.58-.53-1.09-.92-1.53-.39-.43-.85-.77-1.36-1.02s-1.07-.37-1.66-.37-1.14.13-1.66.38-.97.6-1.35,1.03c-.39.43-.69.94-.91,1.52-.22.58-.33,1.21-.33,1.88Z"/><path class="cls-1" d="m143.34,149.11h-2.16v-7.18c0-1.38-.21-2.38-.63-3-.42-.62-1.05-.93-1.91-.93-.44,0-.89.09-1.33.26-.44.17-.86.41-1.25.7-.39.29-.74.65-1.03,1.06-.3.41-.52.86-.66,1.35v7.74h-2.16v-12.83h1.97v2.75c.51-.9,1.24-1.62,2.2-2.16.96-.54,2-.81,3.13-.81.74,0,1.35.14,1.84.41.49.27.88.65,1.18,1.13.29.48.5,1.05.63,1.71.12.66.18,1.37.18,2.14v7.67Z"/><path class="cls-1" d="m156,149.11l-4.43-6.27-2.46,2.31v3.96h-2.16v-17.95h2.16v11.8l6.59-6.66h2.38l-5.11,5.31,5.36,7.5h-2.34Z"/><path class="cls-1" d="m165.47,149.36c-.97,0-1.85-.18-2.65-.53-.8-.35-1.49-.83-2.07-1.44-.57-.61-1.02-1.32-1.34-2.13-.32-.81-.48-1.67-.48-2.57s.16-1.75.48-2.56c.32-.8.77-1.51,1.35-2.11.58-.61,1.27-1.09,2.08-1.44.8-.35,1.69-.53,2.66-.53s1.85.18,2.64.54c.8.36,1.47.84,2.03,1.44s.99,1.3,1.29,2.09c.3.8.46,1.62.46,2.47,0,.18,0,.34-.01.49,0,.15-.02.26-.04.34h-10.65c.05.64.2,1.22.44,1.75s.57.98.96,1.35c.39.38.84.67,1.34.89.5.21,1.03.32,1.59.32.39,0,.78-.05,1.16-.16s.73-.25,1.06-.43.62-.4.87-.66c.25-.26.45-.56.58-.89l1.87.52c-.21.48-.5.91-.87,1.3-.37.39-.8.73-1.28,1.02-.48.29-1.02.51-1.61.68s-1.2.25-1.84.25Zm4.4-7.52c-.05-.61-.2-1.17-.45-1.68-.25-.52-.57-.95-.96-1.32-.38-.36-.83-.64-1.34-.85-.51-.2-1.05-.31-1.62-.31s-1.12.1-1.62.31c-.51.21-.95.49-1.34.86s-.7.81-.93,1.32-.38,1.07-.43,1.67h8.7Z"/><path class="cls-1" d="m185.53,149.36c-1.03,0-2.05-.16-3.05-.48s-1.86-.78-2.58-1.39l.93-1.45c.75.57,1.51,1,2.26,1.29.75.29,1.55.43,2.38.43.93,0,1.68-.18,2.23-.55.55-.37.82-.89.82-1.56,0-.31-.07-.58-.22-.8-.15-.22-.37-.41-.66-.58s-.67-.31-1.13-.44c-.46-.13-.99-.27-1.6-.42-.77-.2-1.43-.39-1.99-.57s-1.02-.39-1.38-.64-.62-.54-.79-.88c-.16-.34-.25-.77-.25-1.28,0-.64.13-1.21.38-1.71.25-.5.6-.92,1.04-1.25.44-.34.96-.59,1.56-.76.6-.17,1.24-.26,1.93-.26.97,0,1.87.16,2.7.47s1.54.72,2.11,1.23l-.98,1.3c-.54-.48-1.15-.83-1.82-1.07-.67-.24-1.36-.36-2.06-.36-.79,0-1.46.17-2,.5-.55.34-.82.87-.82,1.61,0,.3.05.54.16.74.11.2.28.37.53.52s.56.28.95.39c.39.11.85.24,1.39.37.85.2,1.59.4,2.23.6.63.2,1.15.45,1.57.73.42.28.73.61.93.98.21.38.31.84.31,1.38,0,1.2-.46,2.15-1.38,2.85-.92.7-2.16,1.06-3.71,1.06Z"/><path class="cls-1" d="m193.42,133.87v-2.7h2.16v2.7h-2.16Zm0,15.24v-12.83h2.16v12.83h-2.16Z"/><path class="cls-1" d="m199.91,152.6c.21.03.43.06.64.07s.38.02.49.02c.2,0,.37-.05.53-.14.16-.09.31-.27.47-.53.16-.26.33-.63.53-1.09.2-.47.44-1.08.74-1.83l-5.43-12.83h2.24l4.38,10.89,3.98-10.89h2.06l-6.24,16.2c-.23.57-.61,1.08-1.14,1.51-.53.43-1.27.65-2.2.65-.15,0-.3,0-.46-.02s-.35-.05-.58-.1v-1.92Z"/><path class="cls-1" d="m215.92,149.36c-.61,0-1.17-.1-1.7-.31s-.98-.49-1.36-.85c-.39-.36-.69-.78-.91-1.27-.22-.48-.33-1.01-.33-1.59s.13-1.13.39-1.61c.26-.48.64-.9,1.12-1.24.48-.34,1.06-.61,1.72-.81.66-.2,1.39-.29,2.18-.29.62,0,1.25.06,1.89.17s1.2.27,1.7.47v-1.03c0-1.05-.29-1.87-.88-2.47s-1.43-.9-2.51-.9c-1.29,0-2.66.5-4.08,1.5l-.71-1.4c1.66-1.11,3.32-1.67,4.99-1.67s3,.45,3.95,1.35c.94.9,1.41,2.17,1.41,3.81v5.24c0,.51.23.77.69.79v1.87c-.23.03-.42.06-.56.07-.15.02-.3.02-.47.02-.43,0-.77-.13-1.02-.38-.25-.25-.41-.56-.45-.92l-.05-.91c-.57.77-1.3,1.36-2.18,1.76s-1.82.6-2.82.6Zm.57-1.62c.77,0,1.49-.14,2.15-.43.66-.29,1.17-.67,1.51-1.14.31-.31.47-.63.47-.96v-1.89c-1.05-.41-2.14-.61-3.27-.61s-1.96.23-2.64.69c-.68.46-1.02,1.06-1.02,1.8,0,.36.07.7.21,1.01s.34.58.59.81c.25.23.55.41.9.54.34.13.71.2,1.11.2Z"/><path class="cls-1" d="m239.87,149.36c-1.07,0-2-.26-2.81-.79-.81-.52-1.46-1.19-1.93-1.99v7.77h-2.16v-18.07h1.92v2.41c.51-.79,1.17-1.42,1.98-1.91.81-.48,1.71-.73,2.69-.73.89,0,1.7.18,2.43.54.74.36,1.38.85,1.92,1.46s.96,1.32,1.27,2.13c.3.8.45,1.64.45,2.51,0,.92-.14,1.78-.42,2.59s-.67,1.52-1.18,2.11-1.12,1.07-1.82,1.43c-.7.35-1.48.53-2.34.53Zm-.66-1.87c.64,0,1.22-.13,1.73-.41s.96-.63,1.33-1.08c.37-.45.65-.96.85-1.54.2-.57.29-1.16.29-1.77,0-.64-.11-1.25-.34-1.83-.23-.58-.54-1.09-.93-1.52s-.86-.78-1.39-1.03c-.53-.25-1.11-.38-1.73-.38-.39,0-.8.08-1.22.23-.42.16-.81.36-1.18.61-.37.25-.69.56-.96.91-.27.35-.45.73-.53,1.12v3.66c.18.43.41.82.69,1.19s.6.69.96.96c.36.27.75.48,1.16.64.41.16.84.23,1.28.23Z"/><path class="cls-1" d="m259.66,149.11h-2.16v-7.18c0-1.33-.23-2.32-.69-2.96-.46-.65-1.13-.97-2.02-.97-.43,0-.85.09-1.28.26-.43.17-.82.41-1.19.7s-.7.65-.98,1.06c-.29.41-.5.86-.65,1.35v7.74h-2.16v-17.95h2.16v7.87c.51-.93,1.2-1.66,2.07-2.19.87-.52,1.82-.79,2.85-.79.75,0,1.39.14,1.92.42s.94.66,1.25,1.13c.31.48.54,1.04.68,1.71.14.66.21,1.37.21,2.13v7.67Z"/><path class="cls-1" d="m266.57,149.36c-.61,0-1.17-.1-1.7-.31-.53-.2-.98-.49-1.36-.85s-.69-.78-.91-1.27c-.22-.48-.33-1.01-.33-1.59s.13-1.13.39-1.61c.26-.48.63-.9,1.12-1.24.48-.34,1.06-.61,1.72-.81.66-.2,1.39-.29,2.18-.29.62,0,1.25.06,1.89.17.64.11,1.21.27,1.7.47v-1.03c0-1.05-.3-1.87-.89-2.47s-1.43-.9-2.51-.9c-1.3,0-2.66.5-4.08,1.5l-.71-1.4c1.65-1.11,3.32-1.67,4.99-1.67s3,.45,3.95,1.35c.94.9,1.41,2.17,1.41,3.81v5.24c0,.51.23.77.69.79v1.87c-.23.03-.42.06-.57.07-.15.02-.3.02-.47.02-.43,0-.77-.13-1.02-.38s-.41-.56-.46-.92l-.05-.91c-.57.77-1.3,1.36-2.18,1.76s-1.82.6-2.82.6Zm.57-1.62c.77,0,1.49-.14,2.15-.43.66-.29,1.17-.67,1.51-1.14.31-.31.47-.63.47-.96v-1.89c-1.05-.41-2.14-.61-3.27-.61s-1.96.23-2.64.69c-.68.46-1.02,1.06-1.02,1.8,0,.36.07.7.21,1.01s.34.58.59.81c.25.23.55.41.9.54.34.13.71.2,1.11.2Z"/><path class="cls-1" d="m296.49,149.11h-2.16v-7.18c0-1.34-.22-2.34-.65-2.98-.44-.64-1.08-.96-1.93-.96s-1.68.32-2.37.95c-.7.63-1.19,1.45-1.49,2.45v7.72h-2.16v-7.18c0-1.38-.21-2.38-.64-3-.43-.62-1.07-.93-1.92-.93s-1.66.31-2.36.92-1.2,1.43-1.5,2.45v7.74h-2.16v-12.83h1.97v2.75c.52-.95,1.2-1.68,2.04-2.2.84-.52,1.78-.78,2.83-.78s1.94.29,2.57.87c.63.58,1.02,1.33,1.17,2.25,1.15-2.08,2.78-3.12,4.89-3.12.74,0,1.36.14,1.86.41.5.27.9.65,1.19,1.13.3.48.51,1.05.64,1.71.13.66.2,1.37.2,2.14v7.67Z"/><path class="cls-1" d="m306.69,149.36c-1,0-1.91-.25-2.73-.74-.82-.49-1.47-1.13-1.94-1.92v2.41h-1.92v-17.95h2.16v7.67c.54-.84,1.21-1.51,1.99-2.02.79-.51,1.71-.76,2.75-.76.89,0,1.68.19,2.38.57.7.38,1.31.87,1.81,1.49.5.61.89,1.33,1.16,2.14s.41,1.64.41,2.5c0,.9-.16,1.75-.47,2.56s-.74,1.5-1.28,2.1c-.54.6-1.18,1.07-1.93,1.43-.75.35-1.55.53-2.4.53Zm-.54-1.87c.64,0,1.23-.13,1.77-.39s1.01-.61,1.4-1.06.7-.95.91-1.51c.21-.57.32-1.16.32-1.78s-.1-1.23-.31-1.81-.49-1.09-.86-1.54-.81-.8-1.33-1.07c-.52-.27-1.09-.41-1.71-.41-.46,0-.89.08-1.3.25-.41.16-.79.38-1.14.65-.35.27-.66.59-.94.95-.27.36-.5.75-.7,1.16v3.71c.08.41.26.79.53,1.13.27.34.59.64.96.9s.76.45,1.18.6c.42.15.82.22,1.22.22Z"/><path class="cls-1" d="m315.67,133.87v-2.7h2.16v2.7h-2.16Zm0,15.24v-12.83h2.16v12.83h-2.16Z"/><path class="cls-1" d="m321.62,131.16h2.16v14.63c0,.48.13.85.38,1.12.25.27.61.41,1.07.41.18,0,.39-.03.64-.09s.48-.13.69-.21l.34,1.75c-.36.15-.79.27-1.28.37-.49.1-.93.15-1.3.15-.84,0-1.5-.24-1.98-.71s-.73-1.14-.73-1.99v-15.42Z"/><path class="cls-1" d="m328.85,133.87v-2.7h2.16v2.7h-2.16Zm0,15.24v-12.83h2.16v12.83h-2.16Z"/><path class="cls-1" d="m136.92,176.51c-1.03,0-2.05-.16-3.05-.48s-1.86-.78-2.58-1.39l.93-1.45c.75.57,1.51,1,2.26,1.29.75.29,1.55.43,2.38.43.93,0,1.68-.18,2.23-.55.55-.37.82-.89.82-1.56,0-.31-.07-.58-.22-.8-.15-.22-.37-.41-.66-.58s-.67-.31-1.13-.44c-.46-.13-.99-.27-1.6-.42-.77-.2-1.43-.39-1.99-.57s-1.02-.39-1.38-.64-.62-.54-.79-.88c-.16-.34-.25-.77-.25-1.28,0-.64.13-1.21.38-1.71.25-.5.6-.92,1.04-1.25.44-.34.96-.59,1.56-.76.6-.17,1.24-.26,1.93-.26.97,0,1.87.16,2.7.47s1.54.72,2.11,1.23l-.98,1.3c-.54-.48-1.15-.83-1.82-1.07-.67-.24-1.36-.36-2.06-.36-.79,0-1.46.17-2,.5-.55.34-.82.87-.82,1.61,0,.3.05.54.16.74.11.2.28.37.53.52s.56.28.95.39c.39.11.85.24,1.39.37.85.2,1.59.4,2.23.6.63.2,1.15.45,1.57.73.42.28.73.61.93.98.21.38.31.84.31,1.38,0,1.2-.46,2.15-1.38,2.85-.92.7-2.16,1.06-3.71,1.06Z"/><path class="cls-1" d="m148.11,176.51c-.61,0-1.17-.1-1.7-.31s-.98-.49-1.36-.85c-.39-.36-.69-.78-.91-1.27-.22-.48-.33-1.01-.33-1.59s.13-1.13.39-1.61c.26-.48.64-.9,1.12-1.24.48-.34,1.06-.61,1.72-.81.66-.2,1.39-.29,2.18-.29.62,0,1.25.06,1.89.17s1.2.27,1.7.47v-1.03c0-1.05-.29-1.87-.88-2.47s-1.43-.9-2.51-.9c-1.29,0-2.66.5-4.08,1.5l-.71-1.4c1.66-1.11,3.32-1.67,4.99-1.67s3,.45,3.95,1.35c.94.9,1.41,2.17,1.41,3.81v5.24c0,.51.23.77.69.79v1.87c-.23.03-.42.06-.56.07-.15.02-.3.02-.47.02-.43,0-.77-.13-1.02-.38-.25-.25-.41-.56-.45-.92l-.05-.91c-.57.77-1.3,1.36-2.18,1.76s-1.82.6-2.82.6Zm.57-1.62c.77,0,1.49-.14,2.15-.43.66-.29,1.17-.67,1.51-1.14.31-.31.47-.63.47-.96v-1.89c-1.05-.41-2.14-.61-3.27-.61s-1.96.23-2.64.69c-.68.46-1.02,1.06-1.02,1.8,0,.36.07.7.21,1.01s.34.58.59.81c.25.23.55.41.9.54.34.13.71.2,1.11.2Z"/><path class="cls-1" d="m161.98,176.51c-.61,0-1.17-.1-1.7-.31s-.98-.49-1.36-.85c-.39-.36-.69-.78-.91-1.27-.22-.48-.33-1.01-.33-1.59s.13-1.13.39-1.61c.26-.48.64-.9,1.12-1.24.48-.34,1.06-.61,1.72-.81.66-.2,1.39-.29,2.18-.29.62,0,1.25.06,1.89.17s1.2.27,1.7.47v-1.03c0-1.05-.29-1.87-.88-2.47s-1.43-.9-2.51-.9c-1.29,0-2.66.5-4.08,1.5l-.71-1.4c1.66-1.11,3.32-1.67,4.99-1.67s3,.45,3.95,1.35c.94.9,1.41,2.17,1.41,3.81v5.24c0,.51.23.77.69.79v1.87c-.23.03-.42.06-.56.07-.15.02-.3.02-.47.02-.43,0-.77-.13-1.02-.38-.25-.25-.41-.56-.45-.92l-.05-.91c-.57.77-1.3,1.36-2.18,1.76s-1.82.6-2.82.6Zm.57-1.62c.77,0,1.49-.14,2.15-.43.66-.29,1.17-.67,1.51-1.14.31-.31.47-.63.47-.96v-1.89c-1.05-.41-2.14-.61-3.27-.61s-1.96.23-2.64.69c-.68.46-1.02,1.06-1.02,1.8,0,.36.07.7.21,1.01s.34.58.59.81c.25.23.55.41.9.54.34.13.71.2,1.11.2Z"/><path class="cls-1" d="m191.9,176.26h-2.16v-7.18c0-1.34-.22-2.34-.65-2.98-.43-.64-1.08-.96-1.93-.96s-1.68.32-2.37.95c-.7.63-1.19,1.45-1.49,2.45v7.72h-2.16v-7.18c0-1.38-.21-2.38-.64-3-.43-.62-1.07-.93-1.92-.93s-1.66.31-2.36.92c-.7.61-1.21,1.43-1.5,2.45v7.74h-2.16v-12.83h1.97v2.75c.52-.95,1.21-1.68,2.04-2.2.84-.52,1.78-.78,2.83-.78s1.94.29,2.57.87c.63.58,1.02,1.33,1.17,2.25,1.15-2.08,2.78-3.12,4.89-3.12.74,0,1.36.14,1.86.41.5.27.9.65,1.19,1.13.29.48.51,1.05.64,1.71.13.66.2,1.37.2,2.14v7.67Z"/><path class="cls-1" d="m205.03,176.26l-5.07-12.83h2.24l4.06,10.94,4.08-10.94h2.06l-5.07,12.83h-2.31Z"/><path class="cls-1" d="m219.95,176.51c-.97,0-1.85-.18-2.64-.54-.8-.36-1.48-.84-2.04-1.45-.56-.61-1-1.31-1.31-2.11-.31-.8-.47-1.65-.47-2.53s.16-1.75.48-2.56c.32-.8.76-1.51,1.33-2.11.57-.61,1.25-1.09,2.04-1.45.79-.36,1.67-.54,2.62-.54s1.83.18,2.63.54c.8.36,1.49.84,2.05,1.45.57.61,1.01,1.31,1.33,2.11.32.8.48,1.66.48,2.56s-.16,1.73-.47,2.53c-.31.8-.75,1.51-1.33,2.11-.57.61-1.26,1.09-2.05,1.45-.8.36-1.68.54-2.64.54Zm-4.25-6.61c0,.67.11,1.29.33,1.87.22.57.52,1.07.91,1.5.38.43.84.76,1.35,1.01.52.25,1.07.37,1.66.37s1.14-.12,1.66-.37c.52-.25.97-.59,1.36-1.02s.7-.94.92-1.52.33-1.21.33-1.88-.11-1.27-.33-1.86-.53-1.09-.92-1.53c-.39-.43-.85-.77-1.36-1.02-.52-.25-1.07-.37-1.66-.37s-1.14.13-1.66.38c-.52.25-.97.6-1.35,1.03-.39.43-.69.94-.91,1.52-.22.58-.33,1.21-.33,1.88Z"/><path class="cls-1" d="m236.11,165.32c-1.08.03-2.04.31-2.86.84-.83.53-1.41,1.25-1.76,2.19v7.92h-2.16v-12.83h2.02v2.97c.44-.88,1.02-1.6,1.75-2.15.72-.55,1.49-.86,2.31-.92h.42c.11,0,.21,0,.29.02v1.97Z"/><path class="cls-1" d="m243.88,176.51c-.97,0-1.85-.18-2.65-.53-.8-.35-1.49-.83-2.07-1.44-.57-.61-1.02-1.32-1.34-2.13-.32-.81-.48-1.67-.48-2.57s.16-1.75.48-2.56c.32-.8.77-1.51,1.35-2.11.58-.61,1.27-1.09,2.08-1.44.8-.35,1.69-.53,2.66-.53s1.85.18,2.64.54c.8.36,1.47.84,2.03,1.44s.99,1.3,1.29,2.09c.3.8.46,1.62.46,2.47,0,.18,0,.34-.01.49,0,.15-.02.26-.04.34h-10.65c.05.64.2,1.22.44,1.75s.57.98.96,1.35c.39.38.84.67,1.34.89.5.21,1.03.32,1.59.32.39,0,.78-.05,1.16-.16s.73-.25,1.06-.43.62-.4.87-.66c.25-.26.45-.56.58-.89l1.87.52c-.21.48-.5.91-.87,1.3-.37.39-.8.73-1.28,1.02-.48.29-1.02.51-1.61.68s-1.2.25-1.84.25Zm4.4-7.52c-.05-.61-.2-1.17-.45-1.68-.25-.52-.57-.95-.96-1.32-.38-.36-.83-.64-1.34-.85-.51-.2-1.05-.31-1.62-.31s-1.12.1-1.62.31c-.51.21-.95.49-1.34.86s-.7.81-.93,1.32-.38,1.07-.43,1.67h8.7Z"/><path class="cls-1" d="m264.11,176.26h-2.16v-7.18c0-1.38-.21-2.38-.63-3-.42-.62-1.05-.93-1.91-.93-.44,0-.89.09-1.33.26-.44.17-.86.41-1.25.7-.39.29-.74.65-1.03,1.06-.29.41-.52.86-.66,1.35v7.74h-2.16v-12.83h1.97v2.75c.51-.9,1.24-1.62,2.2-2.16.96-.54,2-.81,3.13-.81.74,0,1.35.14,1.84.41.49.27.88.65,1.18,1.13.3.48.5,1.05.63,1.71.12.66.18,1.37.18,2.14v7.67Z"/><path class="cls-1" d="m274.24,175.62c-.13.07-.3.14-.52.23s-.45.18-.72.27c-.27.09-.57.16-.89.22-.32.06-.65.09-1,.09-.79,0-1.47-.22-2.04-.65s-.86-1.11-.86-2.03v-8.63h-1.75v-1.7h1.75v-4.28h2.16v4.28h2.88v1.7h-2.88v7.97c.03.48.19.82.47,1.03.28.21.61.32.98.32.43,0,.81-.07,1.17-.21.35-.14.59-.25.72-.33l.52,1.72Z"/><path class="cls-1" d="m281.94,176.51c-.97,0-1.85-.18-2.64-.54-.8-.36-1.48-.84-2.04-1.45-.56-.61-1-1.31-1.31-2.11-.31-.8-.47-1.65-.47-2.53s.16-1.75.48-2.56c.32-.8.76-1.51,1.33-2.11.57-.61,1.25-1.09,2.04-1.45.79-.36,1.67-.54,2.62-.54s1.83.18,2.63.54c.8.36,1.49.84,2.05,1.45.57.61,1.01,1.31,1.33,2.11.32.8.48,1.66.48,2.56s-.16,1.73-.47,2.53c-.31.8-.75,1.51-1.33,2.11-.57.61-1.26,1.09-2.05,1.45-.8.36-1.68.54-2.64.54Zm-4.25-6.61c0,.67.11,1.29.33,1.87.22.57.52,1.07.91,1.5.38.43.84.76,1.35,1.01.52.25,1.07.37,1.66.37s1.14-.12,1.66-.37c.52-.25.97-.59,1.36-1.02s.7-.94.92-1.52.33-1.21.33-1.88-.11-1.27-.33-1.86-.53-1.09-.92-1.53c-.39-.43-.85-.77-1.36-1.02-.52-.25-1.07-.37-1.66-.37s-1.14.13-1.66.38c-.52.25-.97.6-1.35,1.03-.39.43-.69.94-.91,1.52-.22.58-.33,1.21-.33,1.88Z"/><path class="cls-1" d="m296.98,176.51c-.97,0-1.85-.18-2.65-.53-.8-.35-1.49-.83-2.06-1.44-.57-.61-1.02-1.32-1.34-2.13-.32-.81-.48-1.67-.48-2.57s.16-1.75.48-2.56c.32-.8.77-1.51,1.35-2.11.58-.61,1.27-1.09,2.08-1.44.8-.35,1.69-.53,2.65-.53s1.85.18,2.64.54c.8.36,1.47.84,2.03,1.44s.99,1.3,1.29,2.09c.3.8.46,1.62.46,2.47,0,.18,0,.34-.01.49s-.02.26-.04.34h-10.65c.05.64.2,1.22.44,1.75s.57.98.96,1.35c.39.38.84.67,1.34.89s1.03.32,1.59.32c.39,0,.78-.05,1.15-.16.38-.11.73-.25,1.06-.43.33-.18.62-.4.87-.66s.45-.56.58-.89l1.87.52c-.21.48-.51.91-.87,1.3-.37.39-.8.73-1.28,1.02-.48.29-1.02.51-1.61.68-.59.16-1.2.25-1.84.25Zm4.4-7.52c-.05-.61-.2-1.17-.45-1.68-.26-.52-.57-.95-.96-1.32-.39-.36-.83-.64-1.34-.85-.51-.2-1.05-.31-1.62-.31s-1.11.1-1.62.31c-.51.21-.95.49-1.34.86-.39.37-.7.81-.94,1.32-.24.51-.38,1.07-.43,1.67h8.7Z"/></svg>