<?xml version="1.0" encoding="UTF-8"?><svg id="artwork" xmlns="http://www.w3.org/2000/svg" viewBox="0 0 434.72 255.03"><defs><style>.cls-1{fill:#bc955c;}</style></defs><rect class="cls-1" x="89.02" y="61.45" width="1.97" height="132.12"/><path class="cls-1" d="m119.68,106.74v-11.16h-1.75v-1.7h1.75v-.27c0-1.59.35-2.84,1.06-3.74.71-.9,1.67-1.36,2.88-1.36.51,0,1.01.07,1.5.21.49.14.94.33,1.33.58l-.54,1.6c-.23-.16-.51-.3-.85-.39-.34-.1-.67-.15-1-.15-.72,0-1.27.27-1.65.81-.38.54-.57,1.33-.57,2.36v.35h3.42v1.7h-3.42v11.16h-2.17Z"/><path class="cls-1" d="m133.01,106.98c-.97,0-1.85-.18-2.65-.54-.8-.36-1.48-.85-2.05-1.45-.57-.61-1.01-1.31-1.32-2.12s-.47-1.65-.47-2.54.16-1.76.48-2.56c.32-.8.76-1.51,1.33-2.12.57-.61,1.25-1.09,2.04-1.45.8-.36,1.67-.54,2.62-.54s1.83.18,2.64.54c.8.36,1.49.85,2.06,1.45.57.61,1.01,1.31,1.33,2.12.32.8.48,1.66.48,2.56s-.16,1.73-.47,2.54c-.31.8-.76,1.51-1.33,2.12-.57.61-1.26,1.09-2.06,1.45-.8.36-1.68.54-2.65.54Zm-4.26-6.63c0,.67.11,1.3.33,1.87.22.58.53,1.08.91,1.5.39.43.84.76,1.36,1.01.52.25,1.07.37,1.66.37s1.15-.12,1.66-.37c.52-.25.97-.59,1.37-1.02s.7-.94.92-1.53.33-1.21.33-1.89-.11-1.28-.33-1.86-.53-1.09-.92-1.53c-.39-.43-.85-.78-1.37-1.02-.52-.25-1.07-.37-1.66-.37s-1.15.13-1.66.38c-.52.26-.97.6-1.36,1.03-.39.43-.69.95-.91,1.53-.22.58-.33,1.21-.33,1.89Z"/><path class="cls-1" d="m149.2,95.77c-1.08.03-2.04.31-2.87.84-.83.53-1.42,1.26-1.76,2.19v7.93h-2.17v-12.86h2.02v2.98c.44-.89,1.03-1.61,1.75-2.16.72-.55,1.49-.86,2.32-.92h.42c.11,0,.21,0,.3.03v1.97Z"/><path class="cls-1" d="m167.7,93.88h2.09l-5.47,12.86h-1.8l-2.59-6.28-2.56,6.28h-1.8l-5.47-12.86h2.07l4.43,10.72,2.17-5.35-2.22-5.35h1.8l1.58,4.12,1.58-4.12h1.8l-2.19,5.35,2.17,5.35,4.41-10.72Z"/><path class="cls-1" d="m175.04,106.98c-.61,0-1.17-.1-1.7-.31-.53-.2-.98-.49-1.37-.85-.39-.36-.69-.78-.91-1.27-.22-.48-.33-1.01-.33-1.59s.13-1.13.39-1.61c.26-.48.64-.9,1.12-1.24.48-.35,1.06-.62,1.72-.81.67-.2,1.39-.3,2.18-.3.62,0,1.26.06,1.9.17.64.11,1.21.27,1.7.47v-1.03c0-1.05-.3-1.88-.89-2.48-.59-.6-1.43-.9-2.51-.9-1.3,0-2.66.5-4.09,1.5l-.71-1.4c1.66-1.12,3.33-1.68,5-1.68s3.01.45,3.95,1.36c.94.9,1.42,2.18,1.42,3.82v5.25c0,.51.23.77.69.79v1.87c-.23.03-.42.06-.57.07s-.3.02-.47.02c-.43,0-.77-.13-1.02-.38-.25-.26-.41-.56-.46-.92l-.05-.91c-.58.77-1.3,1.36-2.18,1.76-.88.4-1.82.6-2.82.6Zm.57-1.63c.77,0,1.49-.14,2.16-.43.66-.29,1.17-.67,1.51-1.15.31-.31.47-.63.47-.96v-1.9c-1.05-.41-2.14-.62-3.28-.62s-1.97.23-2.65.69c-.68.46-1.02,1.06-1.02,1.8,0,.36.07.7.21,1.01.14.31.34.58.59.81.26.23.55.41.9.54.34.13.71.2,1.11.2Z"/><path class="cls-1" d="m192.44,95.77c-1.08.03-2.04.31-2.87.84-.83.53-1.42,1.26-1.76,2.19v7.93h-2.17v-12.86h2.02v2.98c.44-.89,1.03-1.61,1.75-2.16.72-.55,1.49-.86,2.32-.92h.42c.12,0,.21,0,.3.03v1.97Z"/><path class="cls-1" d="m199.9,106.98c-.89,0-1.71-.18-2.46-.54-.75-.36-1.4-.85-1.95-1.45-.54-.61-.96-1.31-1.27-2.12s-.46-1.65-.46-2.54.14-1.76.43-2.57c.29-.81.69-1.52,1.21-2.13.52-.61,1.13-1.09,1.85-1.44.72-.35,1.5-.53,2.35-.53,1.03,0,1.96.27,2.77.81.81.54,1.46,1.2,1.93,1.97v-7.69h2.17v15.32c0,.51.23.77.69.79v1.87c-.23.03-.41.06-.55.07-.14.02-.28.02-.41.02-.43,0-.8-.14-1.12-.43-.32-.29-.48-.62-.48-1v-1.08c-.51.84-1.19,1.49-2.03,1.96-.85.47-1.74.7-2.67.7Zm.52-1.87c.39,0,.8-.07,1.22-.22.42-.15.81-.35,1.18-.62.37-.26.69-.57.96-.92.27-.35.45-.73.53-1.12v-3.7c-.15-.41-.37-.8-.67-1.17-.3-.37-.63-.69-1-.96-.37-.27-.76-.48-1.18-.64-.42-.16-.83-.23-1.24-.23-.64,0-1.22.14-1.74.41-.52.27-.96.63-1.33,1.08-.37.45-.65.97-.85,1.55-.2.58-.3,1.18-.3,1.79,0,.64.11,1.25.34,1.84.23.58.54,1.09.94,1.51.39.43.86.77,1.39,1.02.53.25,1.11.38,1.74.38Z"/><path class="cls-1" d="m223.48,106.1c-.13.07-.3.14-.52.23s-.46.18-.73.27c-.27.09-.57.16-.89.22-.32.06-.65.09-1,.09-.79,0-1.47-.22-2.04-.65-.58-.43-.86-1.11-.86-2.03v-8.65h-1.75v-1.7h1.75v-4.29h2.17v4.29h2.88v1.7h-2.88v7.98c.03.48.19.82.47,1.03.28.21.61.32.99.32.43,0,.82-.07,1.17-.21s.59-.25.73-.33l.52,1.72Z"/><path class="cls-1" d="m231.19,106.98c-.97,0-1.85-.18-2.65-.54-.8-.36-1.48-.85-2.04-1.45-.57-.61-1.01-1.31-1.32-2.12s-.47-1.65-.47-2.54.16-1.76.48-2.56c.32-.8.76-1.51,1.33-2.12.57-.61,1.25-1.09,2.05-1.45.8-.36,1.67-.54,2.62-.54s1.83.18,2.64.54c.8.36,1.49.85,2.06,1.45.57.61,1.01,1.31,1.33,2.12.32.8.48,1.66.48,2.56s-.16,1.73-.47,2.54-.76,1.51-1.33,2.12c-.58.61-1.26,1.09-2.06,1.45-.8.36-1.68.54-2.65.54Zm-4.26-6.63c0,.67.11,1.3.33,1.87.22.58.53,1.08.91,1.5.39.43.84.76,1.36,1.01.52.25,1.07.37,1.66.37s1.15-.12,1.66-.37c.52-.25.97-.59,1.37-1.02.39-.43.7-.94.92-1.53.22-.58.33-1.21.33-1.89s-.11-1.28-.33-1.86c-.22-.58-.53-1.09-.92-1.53-.39-.43-.85-.78-1.37-1.02-.52-.25-1.07-.37-1.66-.37s-1.15.13-1.66.38c-.52.26-.97.6-1.36,1.03-.39.43-.69.95-.91,1.53-.22.58-.33,1.21-.33,1.89Z"/><path class="cls-1" d="m245.7,106.89c-.87,0-1.67-.18-2.4-.54-.73-.36-1.36-.84-1.89-1.45-.53-.61-.93-1.31-1.22-2.09-.29-.79-.43-1.61-.43-2.46,0-.9.14-1.76.43-2.57.29-.81.69-1.52,1.22-2.13.53-.61,1.15-1.09,1.89-1.44.73-.35,1.54-.53,2.43-.53,1.08,0,2.02.26,2.81.79.79.53,1.45,1.19,2,2v-2.56h1.92v12.71c0,.92-.17,1.73-.52,2.43-.34.7-.81,1.28-1.41,1.76-.59.48-1.28.84-2.08,1.08-.8.25-1.65.37-2.55.37-1.46,0-2.65-.25-3.56-.75-.91-.5-1.67-1.2-2.28-2.08l1.26-1.11c.51.76,1.17,1.32,1.97,1.7.8.38,1.68.57,2.61.57.59,0,1.15-.08,1.69-.25.53-.16,1-.41,1.39-.74.39-.33.71-.74.95-1.23.24-.49.36-1.08.36-1.75v-2.27c-.25.39-.54.75-.87,1.07-.34.32-.7.59-1.1.81-.39.22-.81.39-1.26.5-.44.12-.9.17-1.36.17Zm.67-1.77c.46,0,.9-.08,1.33-.25.43-.16.82-.38,1.18-.65.36-.27.66-.58.91-.92s.41-.7.49-1.06v-3.7c-.18-.44-.41-.85-.7-1.21-.29-.36-.61-.68-.97-.95-.36-.27-.75-.48-1.17-.63-.42-.15-.84-.22-1.27-.22-.66,0-1.25.14-1.76.42-.52.28-.96.65-1.32,1.11-.36.46-.64.98-.84,1.56-.2.58-.3,1.17-.3,1.76,0,.64.11,1.25.34,1.82.23.57.54,1.08.94,1.5.39.43.86.77,1.39,1.02.53.25,1.11.38,1.74.38Z"/><path class="cls-1" d="m261.89,106.98c-.97,0-1.86-.18-2.66-.53-.81-.35-1.49-.83-2.07-1.44-.57-.61-1.02-1.32-1.34-2.13-.32-.81-.48-1.67-.48-2.58s.16-1.76.48-2.56c.32-.8.77-1.51,1.36-2.12.58-.61,1.28-1.09,2.08-1.44.8-.35,1.69-.53,2.66-.53s1.85.18,2.65.54c.8.36,1.47.84,2.03,1.44.56.6.99,1.3,1.29,2.09.3.8.46,1.62.46,2.48,0,.18,0,.34-.01.49s-.02.26-.04.34h-10.67c.05.64.2,1.22.44,1.75s.57.98.96,1.36c.39.38.84.67,1.34.89.5.21,1.03.32,1.59.32.39,0,.78-.05,1.16-.16.38-.11.73-.25,1.06-.43.33-.18.62-.4.88-.67.25-.26.45-.56.58-.89l1.87.52c-.21.48-.5.91-.87,1.31-.37.39-.8.74-1.28,1.02-.48.29-1.02.51-1.61.68s-1.21.25-1.85.25Zm4.41-7.54c-.05-.61-.2-1.17-.46-1.69-.25-.52-.57-.96-.96-1.32-.39-.36-.83-.64-1.34-.85-.51-.2-1.05-.31-1.63-.31s-1.12.1-1.63.31c-.51.21-.96.49-1.34.86-.38.37-.7.81-.94,1.32-.24.51-.38,1.07-.43,1.67h8.72Z"/><path class="cls-1" d="m277.53,106.1c-.13.07-.3.14-.52.23s-.46.18-.73.27c-.27.09-.57.16-.89.22-.32.06-.65.09-1,.09-.79,0-1.47-.22-2.05-.65s-.86-1.11-.86-2.03v-8.65h-1.75v-1.7h1.75v-4.29h2.17v4.29h2.88v1.7h-2.88v7.98c.03.48.19.82.47,1.03.28.21.61.32.99.32.43,0,.82-.07,1.17-.21.35-.14.59-.25.73-.33l.52,1.72Z"/><path class="cls-1" d="m290.96,106.74h-2.17v-7.19c0-1.33-.23-2.32-.69-2.97s-1.13-.97-2.02-.97c-.43,0-.85.09-1.28.26-.43.17-.83.41-1.2.7-.37.3-.7.65-.99,1.06-.29.41-.5.86-.65,1.36v7.76h-2.17v-17.99h2.17v7.88c.51-.94,1.2-1.67,2.07-2.19s1.82-.79,2.86-.79c.75,0,1.4.14,1.92.42s.95.66,1.26,1.13c.31.48.54,1.05.68,1.71.14.67.21,1.38.21,2.13v7.69Z"/><path class="cls-1" d="m300.27,106.98c-.97,0-1.86-.18-2.66-.53-.8-.35-1.5-.83-2.07-1.44-.58-.61-1.02-1.32-1.34-2.13-.32-.81-.48-1.67-.48-2.58s.16-1.76.48-2.56c.32-.8.77-1.51,1.36-2.12.58-.61,1.28-1.09,2.08-1.44.8-.35,1.69-.53,2.66-.53s1.85.18,2.65.54c.8.36,1.47.84,2.03,1.44.56.6.99,1.3,1.29,2.09.3.8.46,1.62.46,2.48,0,.18,0,.34-.01.49,0,.15-.02.26-.04.34h-10.67c.05.64.2,1.22.44,1.75s.57.98.96,1.36c.39.38.84.67,1.34.89s1.03.32,1.59.32c.39,0,.78-.05,1.16-.16.38-.11.73-.25,1.06-.43.33-.18.62-.4.87-.67s.45-.56.58-.89l1.87.52c-.21.48-.51.91-.88,1.31-.37.39-.8.74-1.28,1.02-.49.29-1.02.51-1.61.68-.59.16-1.21.25-1.85.25Zm4.41-7.54c-.05-.61-.2-1.17-.46-1.69-.26-.52-.58-.96-.96-1.32-.39-.36-.83-.64-1.34-.85-.51-.2-1.05-.31-1.63-.31s-1.12.1-1.63.31c-.51.21-.96.49-1.34.86-.39.37-.7.81-.94,1.32-.24.51-.38,1.07-.43,1.67h8.72Z"/><path class="cls-1" d="m316.19,95.77c-1.08.03-2.04.31-2.87.84-.83.53-1.42,1.26-1.76,2.19v7.93h-2.17v-12.86h2.02v2.98c.44-.89,1.03-1.61,1.75-2.16.72-.55,1.49-.86,2.32-.92h.42c.11,0,.21,0,.3.03v1.97Z"/><path class="cls-1" d="m123.58,134.17c-1.04,0-2.05-.16-3.05-.48-1-.32-1.87-.78-2.59-1.39l.94-1.45c.76.58,1.51,1.01,2.27,1.29.75.29,1.55.43,2.39.43.94,0,1.68-.18,2.23-.55.55-.37.82-.89.82-1.56,0-.31-.07-.58-.22-.8-.15-.22-.37-.41-.66-.58-.3-.16-.67-.31-1.13-.44-.46-.13-.99-.27-1.6-.42-.77-.2-1.44-.39-2-.57s-1.02-.39-1.38-.64c-.36-.25-.62-.54-.79-.89-.17-.35-.25-.77-.25-1.28,0-.64.13-1.21.38-1.71.25-.5.6-.92,1.05-1.26.44-.34.96-.59,1.56-.76.6-.17,1.24-.26,1.93-.26.97,0,1.87.16,2.71.47.84.31,1.54.72,2.12,1.23l-.99,1.31c-.54-.48-1.15-.83-1.82-1.07-.67-.24-1.36-.36-2.07-.36-.79,0-1.46.17-2.01.51s-.83.87-.83,1.61c0,.3.05.54.16.74.11.2.28.37.53.52s.56.28.95.39c.39.11.85.24,1.39.37.85.2,1.6.4,2.23.6.63.2,1.16.45,1.58.73.42.28.73.61.94.99.2.38.31.84.31,1.38,0,1.2-.46,2.15-1.38,2.86-.92.71-2.16,1.06-3.72,1.06Z"/><path class="cls-1" d="m137.1,134.17c-.97,0-1.85-.18-2.65-.54-.8-.36-1.48-.85-2.05-1.45-.57-.61-1.01-1.31-1.32-2.12-.31-.8-.47-1.65-.47-2.54s.16-1.76.48-2.56c.32-.8.76-1.51,1.33-2.12.57-.61,1.25-1.09,2.05-1.45.8-.36,1.67-.54,2.62-.54s1.83.18,2.64.54c.8.36,1.49.85,2.06,1.45.57.61,1.01,1.31,1.33,2.12.32.8.48,1.66.48,2.56s-.16,1.73-.47,2.54-.76,1.51-1.33,2.12c-.58.61-1.26,1.09-2.06,1.45-.8.36-1.68.54-2.65.54Zm-4.26-6.63c0,.67.11,1.3.33,1.87.22.58.53,1.08.91,1.5.38.43.84.76,1.36,1.01s1.07.37,1.66.37,1.15-.12,1.66-.37.97-.59,1.37-1.02c.39-.43.7-.94.92-1.53.22-.58.33-1.21.33-1.89s-.11-1.28-.33-1.86c-.22-.58-.53-1.09-.92-1.53-.39-.43-.85-.78-1.37-1.02s-1.07-.37-1.66-.37-1.15.13-1.66.38c-.52.26-.97.6-1.36,1.03-.39.43-.69.95-.91,1.53-.22.58-.33,1.21-.33,1.89Z"/><path class="cls-1" d="m157.65,133.92h-2.17v-7.19c0-1.38-.21-2.38-.63-3.01-.42-.62-1.06-.94-1.91-.94-.44,0-.89.09-1.33.26-.44.17-.86.41-1.26.7-.39.3-.74.65-1.03,1.06-.3.41-.52.86-.67,1.36v7.76h-2.17v-12.86h1.97v2.76c.51-.9,1.24-1.63,2.2-2.17.96-.54,2.01-.81,3.14-.81.74,0,1.36.14,1.85.41.49.27.89.65,1.18,1.13.3.49.5,1.06.63,1.71.12.66.18,1.37.18,2.14v7.69Z"/><path class="cls-1" d="m170.34,133.92l-4.43-6.28-2.46,2.32v3.97h-2.17v-17.99h2.17v11.83l6.6-6.68h2.39l-5.12,5.32,5.37,7.51h-2.34Z"/><path class="cls-1" d="m179.82,134.17c-.97,0-1.86-.18-2.66-.53-.81-.35-1.5-.83-2.07-1.44-.57-.61-1.02-1.32-1.34-2.13-.32-.81-.48-1.67-.48-2.58s.16-1.76.48-2.56c.32-.8.77-1.51,1.36-2.12.58-.61,1.28-1.09,2.08-1.44.8-.35,1.69-.53,2.66-.53s1.85.18,2.65.54c.8.36,1.47.84,2.03,1.44.56.6.99,1.3,1.29,2.09.3.8.46,1.62.46,2.48,0,.18,0,.34-.01.49,0,.15-.02.26-.04.34h-10.67c.05.64.2,1.22.44,1.75s.57.98.96,1.36c.39.38.84.67,1.34.89.5.21,1.03.32,1.59.32.39,0,.78-.05,1.16-.16.38-.11.73-.25,1.06-.43.33-.18.62-.4.87-.67.25-.26.45-.56.58-.89l1.87.52c-.21.48-.51.91-.87,1.31-.37.39-.8.74-1.28,1.02-.48.29-1.02.51-1.61.68s-1.21.25-1.85.25Zm4.41-7.54c-.05-.61-.2-1.17-.46-1.69-.26-.52-.57-.96-.96-1.32-.38-.36-.83-.64-1.34-.85-.51-.2-1.05-.31-1.63-.31s-1.12.1-1.63.31c-.51.21-.96.49-1.34.86-.39.37-.7.81-.94,1.32s-.38,1.07-.43,1.67h8.72Z"/><path class="cls-1" d="m199.93,134.17c-1.04,0-2.05-.16-3.06-.48s-1.86-.78-2.59-1.39l.94-1.45c.75.58,1.51,1.01,2.27,1.29.76.29,1.55.43,2.39.43.94,0,1.68-.18,2.23-.55.55-.37.82-.89.82-1.56,0-.31-.07-.58-.22-.8-.15-.22-.37-.41-.67-.58s-.67-.31-1.13-.44c-.46-.13-1-.27-1.6-.42-.77-.2-1.44-.39-2-.57s-1.02-.39-1.38-.64-.62-.54-.79-.89c-.16-.35-.25-.77-.25-1.28,0-.64.13-1.21.38-1.71.25-.5.6-.92,1.05-1.26.44-.34.96-.59,1.56-.76.6-.17,1.24-.26,1.93-.26.97,0,1.87.16,2.71.47.84.31,1.54.72,2.12,1.23l-.99,1.31c-.54-.48-1.15-.83-1.82-1.07-.67-.24-1.36-.36-2.07-.36-.79,0-1.46.17-2.01.51-.55.34-.83.87-.83,1.61,0,.3.05.54.16.74.11.2.28.37.53.52s.56.28.95.39c.39.11.85.24,1.39.37.85.2,1.6.4,2.23.6.63.2,1.16.45,1.58.73.42.28.73.61.94.99.21.38.31.84.31,1.38,0,1.2-.46,2.15-1.38,2.86-.92.71-2.16,1.06-3.72,1.06Z"/><path class="cls-1" d="m207.83,118.65v-2.71h2.17v2.71h-2.17Zm0,15.27v-12.86h2.17v12.86h-2.17Z"/><path class="cls-1" d="m214.34,137.42c.21.03.43.06.64.07s.38.03.49.03c.2,0,.37-.05.53-.14.16-.09.31-.27.47-.53.16-.26.33-.63.53-1.1.2-.47.44-1.08.74-1.84l-5.45-12.86h2.24l4.38,10.91,3.99-10.91h2.07l-6.26,16.24c-.23.57-.61,1.08-1.15,1.52-.54.43-1.27.65-2.21.65-.15,0-.3,0-.46-.03s-.35-.05-.58-.1v-1.92Z"/><path class="cls-1" d="m230.38,134.17c-.61,0-1.18-.1-1.7-.31-.53-.2-.98-.49-1.37-.85-.39-.36-.69-.78-.91-1.27-.22-.48-.33-1.01-.33-1.59s.13-1.13.39-1.61c.26-.48.64-.9,1.12-1.24.48-.35,1.06-.62,1.72-.81.66-.2,1.39-.3,2.18-.3.62,0,1.26.06,1.9.17.64.11,1.21.27,1.7.47v-1.03c0-1.05-.29-1.88-.89-2.48-.59-.6-1.43-.9-2.51-.9-1.3,0-2.66.5-4.09,1.5l-.71-1.4c1.66-1.12,3.33-1.68,5-1.68s3.01.45,3.96,1.36c.94.9,1.42,2.18,1.42,3.82v5.25c0,.51.23.77.69.79v1.87c-.23.03-.42.06-.57.07-.15.02-.3.02-.47.02-.43,0-.77-.13-1.02-.38-.25-.26-.41-.56-.46-.92l-.05-.91c-.58.77-1.3,1.36-2.18,1.76-.88.4-1.82.6-2.82.6Zm.57-1.63c.77,0,1.49-.14,2.16-.43.67-.29,1.17-.67,1.51-1.15.31-.31.47-.63.47-.96v-1.9c-1.05-.41-2.14-.62-3.28-.62s-1.97.23-2.65.69c-.68.46-1.02,1.06-1.02,1.8,0,.36.07.7.21,1.01.14.31.34.58.59.81.25.23.55.41.9.54.34.13.71.2,1.11.2Z"/><path class="cls-1" d="m254.37,134.17c-1.07,0-2.01-.26-2.82-.79-.81-.53-1.46-1.19-1.93-2v7.79h-2.17v-18.11h1.92v2.41c.51-.79,1.17-1.43,1.98-1.91.81-.49,1.71-.73,2.7-.73.89,0,1.7.18,2.44.54.74.36,1.38.85,1.92,1.47.54.62.97,1.33,1.27,2.13.3.81.46,1.64.46,2.51,0,.92-.14,1.79-.42,2.6s-.67,1.52-1.18,2.12c-.51.6-1.12,1.08-1.82,1.43-.71.35-1.49.53-2.34.53Zm-.66-1.87c.64,0,1.22-.13,1.74-.41s.96-.63,1.33-1.08c.37-.45.65-.97.85-1.54.2-.58.3-1.17.3-1.77,0-.64-.11-1.25-.35-1.84-.23-.58-.54-1.09-.94-1.53s-.86-.78-1.39-1.03c-.54-.26-1.11-.38-1.74-.38-.39,0-.8.08-1.22.23-.42.16-.81.36-1.18.62-.37.26-.69.56-.96.91-.27.35-.45.73-.53,1.12v3.67c.18.43.41.82.69,1.19s.6.69.96.96c.36.27.75.48,1.16.64.41.16.84.23,1.28.23Z"/><path class="cls-1" d="m274.2,133.92h-2.17v-7.19c0-1.33-.23-2.32-.69-2.97-.46-.65-1.13-.97-2.02-.97-.43,0-.85.09-1.28.26-.43.17-.82.41-1.19.7-.37.3-.7.65-.99,1.06-.29.41-.51.86-.65,1.36v7.76h-2.17v-17.99h2.17v7.88c.51-.94,1.2-1.67,2.07-2.19.87-.53,1.82-.79,2.86-.79.76,0,1.4.14,1.92.42s.94.66,1.26,1.13c.31.48.54,1.05.68,1.71.14.67.21,1.38.21,2.13v7.69Z"/><path class="cls-1" d="m281.13,134.17c-.61,0-1.17-.1-1.7-.31-.53-.2-.98-.49-1.37-.85-.39-.36-.69-.78-.91-1.27-.22-.48-.33-1.01-.33-1.59s.13-1.13.39-1.61c.26-.48.64-.9,1.12-1.24.49-.35,1.06-.62,1.72-.81.67-.2,1.39-.3,2.18-.3.62,0,1.26.06,1.9.17.64.11,1.21.27,1.7.47v-1.03c0-1.05-.3-1.88-.89-2.48-.59-.6-1.43-.9-2.51-.9-1.3,0-2.66.5-4.09,1.5l-.71-1.4c1.66-1.12,3.33-1.68,5-1.68s3.01.45,3.95,1.36c.95.9,1.42,2.18,1.42,3.82v5.25c0,.51.23.77.69.79v1.87c-.23.03-.42.06-.57.07-.15.02-.3.02-.47.02-.43,0-.77-.13-1.02-.38-.26-.26-.41-.56-.46-.92l-.05-.91c-.58.77-1.3,1.36-2.18,1.76-.88.4-1.82.6-2.82.6Zm.57-1.63c.77,0,1.49-.14,2.16-.43.67-.29,1.17-.67,1.51-1.15.31-.31.47-.63.47-.96v-1.9c-1.05-.41-2.14-.62-3.28-.62s-1.97.23-2.65.69c-.68.46-1.02,1.06-1.02,1.8,0,.36.07.7.21,1.01.14.31.34.58.59.81.26.23.55.41.9.54.34.13.71.2,1.11.2Z"/><path class="cls-1" d="m311.11,133.92h-2.17v-7.19c0-1.35-.22-2.34-.65-2.98-.44-.64-1.08-.96-1.93-.96s-1.68.32-2.38.95c-.7.63-1.2,1.45-1.49,2.45v7.74h-2.17v-7.19c0-1.38-.21-2.38-.64-3.01-.43-.62-1.07-.94-1.92-.94s-1.66.31-2.37.92-1.21,1.43-1.5,2.45v7.76h-2.17v-12.86h1.97v2.76c.53-.95,1.21-1.69,2.04-2.2.84-.52,1.78-.78,2.83-.78s1.94.29,2.58.87c.63.58,1.02,1.33,1.17,2.25,1.15-2.09,2.78-3.13,4.9-3.13.74,0,1.36.14,1.86.41.5.27.9.65,1.19,1.13.3.49.51,1.06.64,1.71.13.66.2,1.37.2,2.14v7.69Z"/><path class="cls-1" d="m321.33,134.17c-1,0-1.91-.25-2.73-.74-.82-.49-1.47-1.13-1.95-1.92v2.41h-1.92v-17.99h2.17v7.69c.54-.84,1.21-1.51,2-2.02.79-.51,1.71-.76,2.76-.76.89,0,1.68.19,2.39.57.71.38,1.31.87,1.81,1.49.5.62.89,1.33,1.16,2.14.27.81.41,1.65.41,2.5,0,.9-.16,1.76-.47,2.56s-.74,1.51-1.28,2.11c-.54.6-1.19,1.08-1.93,1.43-.75.35-1.55.53-2.4.53Zm-.54-1.87c.64,0,1.23-.13,1.77-.39.54-.26,1.01-.62,1.4-1.06.39-.44.7-.95.91-1.51.21-.57.32-1.16.32-1.79s-.1-1.23-.31-1.81-.49-1.1-.86-1.54c-.37-.44-.81-.8-1.33-1.07-.52-.27-1.09-.41-1.71-.41-.46,0-.9.08-1.3.25-.41.16-.79.38-1.15.65-.35.27-.67.59-.94.95-.27.36-.5.75-.7,1.16v3.72c.08.41.26.79.53,1.13.27.35.59.64.96.9.37.26.76.46,1.18.6.42.15.83.22,1.22.22Z"/><path class="cls-1" d="m330.33,118.65v-2.71h2.17v2.71h-2.17Zm0,15.27v-12.86h2.17v12.86h-2.17Z"/><path class="cls-1" d="m336.29,115.94h2.17v14.66c0,.48.13.85.38,1.12.25.27.61.41,1.07.41.18,0,.39-.03.64-.09s.48-.13.69-.21l.34,1.75c-.36.15-.79.27-1.28.37-.49.1-.93.15-1.3.15-.84,0-1.5-.24-1.98-.71-.48-.48-.73-1.14-.73-2v-15.45Z"/><path class="cls-1" d="m343.53,118.65v-2.71h2.17v2.71h-2.17Zm0,15.27v-12.86h2.17v12.86h-2.17Z"/><path class="cls-1" d="m123.58,161.38c-1.04,0-2.05-.16-3.06-.48-1-.32-1.86-.78-2.59-1.39l.94-1.45c.75.58,1.51,1.01,2.27,1.29.76.29,1.55.43,2.39.43.94,0,1.68-.18,2.23-.55.55-.37.82-.89.82-1.56,0-.31-.07-.58-.22-.8-.15-.22-.37-.41-.67-.58-.3-.16-.67-.31-1.13-.44-.46-.13-1-.27-1.6-.42-.77-.2-1.44-.39-2-.57s-1.02-.39-1.38-.64-.62-.54-.79-.89c-.16-.35-.25-.77-.25-1.28,0-.64.13-1.21.38-1.71.25-.5.6-.92,1.05-1.26.44-.34.96-.59,1.56-.76.6-.17,1.24-.26,1.93-.26.97,0,1.87.16,2.71.47.84.31,1.54.72,2.12,1.23l-.99,1.31c-.54-.48-1.15-.83-1.82-1.07-.67-.24-1.36-.36-2.07-.36-.79,0-1.46.17-2.01.51-.55.34-.83.87-.83,1.61,0,.3.05.54.16.74.11.2.28.37.53.52s.56.28.95.39c.39.11.85.24,1.39.37.85.2,1.6.4,2.23.6.63.2,1.16.45,1.58.73.42.28.73.61.94.99.21.38.31.84.31,1.38,0,1.2-.46,2.15-1.38,2.86-.92.71-2.16,1.06-3.72,1.06Z"/><path class="cls-1" d="m134.79,161.38c-.61,0-1.18-.1-1.7-.31-.53-.2-.98-.49-1.37-.85-.39-.36-.69-.78-.91-1.27-.22-.48-.33-1.01-.33-1.59s.13-1.13.39-1.61c.26-.48.64-.9,1.12-1.24.48-.35,1.06-.62,1.72-.81.66-.2,1.39-.3,2.18-.3.62,0,1.26.06,1.9.17.64.11,1.21.27,1.7.47v-1.03c0-1.05-.29-1.88-.89-2.48-.59-.6-1.43-.9-2.51-.9-1.3,0-2.66.5-4.09,1.5l-.71-1.4c1.66-1.12,3.33-1.68,5-1.68s3.01.45,3.96,1.36c.94.9,1.42,2.18,1.42,3.82v5.25c0,.51.23.77.69.79v1.87c-.23.03-.42.06-.57.07-.15.02-.3.02-.47.02-.43,0-.77-.13-1.02-.38-.25-.26-.41-.56-.46-.92l-.05-.91c-.58.77-1.3,1.36-2.18,1.76-.88.4-1.82.6-2.82.6Zm.57-1.63c.77,0,1.49-.14,2.16-.43.67-.29,1.17-.67,1.51-1.15.31-.31.47-.63.47-.96v-1.9c-1.05-.41-2.14-.62-3.28-.62s-1.97.23-2.65.69c-.68.46-1.02,1.06-1.02,1.8,0,.36.07.7.21,1.01.14.31.34.58.59.81.25.23.55.41.9.54.34.13.71.2,1.11.2Z"/><path class="cls-1" d="m148.68,161.38c-.61,0-1.18-.1-1.7-.31-.53-.2-.98-.49-1.37-.85-.39-.36-.69-.78-.91-1.27-.22-.48-.33-1.01-.33-1.59s.13-1.13.39-1.61c.26-.48.64-.9,1.12-1.24.48-.35,1.06-.62,1.72-.81.66-.2,1.39-.3,2.18-.3.62,0,1.26.06,1.9.17.64.11,1.21.27,1.7.47v-1.03c0-1.05-.29-1.88-.89-2.48-.59-.6-1.43-.9-2.51-.9-1.3,0-2.66.5-4.09,1.5l-.71-1.4c1.66-1.12,3.33-1.68,5-1.68s3.01.45,3.96,1.36c.94.9,1.42,2.18,1.42,3.82v5.25c0,.51.23.77.69.79v1.87c-.23.03-.42.06-.57.07-.15.02-.3.02-.47.02-.43,0-.77-.13-1.02-.38-.25-.26-.41-.56-.46-.92l-.05-.91c-.58.77-1.3,1.36-2.18,1.76-.88.4-1.82.6-2.82.6Zm.57-1.63c.77,0,1.49-.14,2.16-.43.67-.29,1.17-.67,1.51-1.15.31-.31.47-.63.47-.96v-1.9c-1.05-.41-2.14-.62-3.28-.62s-1.97.23-2.65.69c-.68.46-1.02,1.06-1.02,1.8,0,.36.07.7.21,1.01.14.31.34.58.59.81.25.23.55.41.9.54.34.13.71.2,1.11.2Z"/><path class="cls-1" d="m178.66,161.14h-2.17v-7.19c0-1.35-.22-2.34-.65-2.98-.43-.64-1.08-.96-1.93-.96s-1.68.32-2.38.95c-.7.63-1.19,1.45-1.49,2.45v7.74h-2.17v-7.19c0-1.38-.21-2.38-.64-3.01-.43-.62-1.07-.94-1.92-.94s-1.66.31-2.36.92c-.71.62-1.21,1.43-1.5,2.45v7.76h-2.17v-12.86h1.97v2.76c.53-.95,1.21-1.69,2.05-2.2.84-.52,1.78-.78,2.83-.78s1.94.29,2.57.87c.63.58,1.02,1.33,1.17,2.25,1.15-2.09,2.79-3.13,4.9-3.13.74,0,1.36.14,1.86.41.5.27.9.65,1.2,1.13.29.49.51,1.06.64,1.71.13.66.2,1.37.2,2.14v7.69Z"/><path class="cls-1" d="m191.82,161.14l-5.08-12.86h2.24l4.07,10.96,4.09-10.96h2.07l-5.08,12.86h-2.32Z"/><path class="cls-1" d="m206.77,161.38c-.97,0-1.85-.18-2.65-.54-.8-.36-1.48-.85-2.05-1.45-.57-.61-1.01-1.31-1.32-2.12-.31-.8-.47-1.65-.47-2.54s.16-1.76.48-2.56c.32-.8.76-1.51,1.33-2.12.57-.61,1.25-1.09,2.05-1.45.8-.36,1.67-.54,2.62-.54s1.83.18,2.64.54c.8.36,1.49.85,2.06,1.45.57.61,1.01,1.31,1.33,2.12.32.8.48,1.66.48,2.56s-.16,1.73-.47,2.54c-.31.8-.76,1.51-1.33,2.12-.57.61-1.26,1.09-2.06,1.45-.8.36-1.68.54-2.65.54Zm-4.26-6.63c0,.67.11,1.3.33,1.87.22.58.53,1.08.91,1.5.38.43.84.76,1.36,1.01.52.25,1.07.37,1.66.37s1.15-.12,1.66-.37c.52-.25.97-.59,1.37-1.02s.7-.94.92-1.53.33-1.21.33-1.89-.11-1.28-.33-1.86-.53-1.09-.92-1.53c-.39-.43-.85-.78-1.37-1.02-.52-.25-1.07-.37-1.66-.37s-1.15.13-1.66.38c-.52.26-.97.6-1.36,1.03-.39.43-.69.95-.91,1.53-.22.58-.33,1.21-.33,1.89Z"/><path class="cls-1" d="m222.96,150.17c-1.08.03-2.04.31-2.87.84-.83.53-1.42,1.26-1.76,2.19v7.93h-2.17v-12.86h2.02v2.98c.44-.89,1.03-1.61,1.75-2.16.72-.55,1.49-.86,2.32-.92h.42c.11,0,.21,0,.29.03v1.97Z"/><path class="cls-1" d="m230.75,161.38c-.97,0-1.86-.18-2.66-.53-.81-.35-1.5-.83-2.07-1.44-.57-.61-1.02-1.32-1.34-2.13-.32-.81-.48-1.67-.48-2.58s.16-1.76.48-2.56c.32-.8.77-1.51,1.36-2.12.58-.61,1.28-1.09,2.08-1.44.8-.35,1.69-.53,2.66-.53s1.85.18,2.65.54c.8.36,1.47.84,2.03,1.44.56.6.99,1.3,1.29,2.09.3.8.46,1.62.46,2.48,0,.18,0,.34-.01.49,0,.15-.02.26-.04.34h-10.67c.05.64.2,1.22.44,1.75s.57.98.96,1.36c.39.38.84.67,1.34.89.5.21,1.03.32,1.59.32.39,0,.78-.05,1.16-.16.38-.11.73-.25,1.06-.43.33-.18.62-.4.87-.67.25-.26.45-.56.58-.89l1.87.52c-.21.48-.51.91-.87,1.31-.37.39-.8.74-1.28,1.02-.48.29-1.02.51-1.61.68s-1.21.25-1.85.25Zm4.41-7.54c-.05-.61-.2-1.17-.46-1.69-.26-.52-.57-.96-.96-1.32-.38-.36-.83-.64-1.34-.85-.51-.2-1.05-.31-1.63-.31s-1.12.1-1.63.31c-.51.21-.96.49-1.34.86-.39.37-.7.81-.94,1.32s-.38,1.07-.43,1.67h8.72Z"/><path class="cls-1" d="m251.02,161.14h-2.17v-7.19c0-1.38-.21-2.38-.63-3.01-.42-.62-1.06-.94-1.91-.94-.44,0-.89.09-1.33.26-.44.17-.86.41-1.26.7-.39.3-.74.65-1.04,1.06-.3.41-.52.86-.67,1.36v7.76h-2.17v-12.86h1.97v2.76c.51-.9,1.24-1.63,2.21-2.17.96-.54,2.01-.81,3.14-.81.74,0,1.36.14,1.85.41.49.27.89.65,1.18,1.13.3.49.51,1.06.63,1.71.12.66.18,1.37.18,2.14v7.69Z"/><path class="cls-1" d="m261.17,160.5c-.13.07-.3.14-.52.23s-.46.18-.73.27c-.27.09-.57.16-.89.22-.32.06-.65.09-1,.09-.79,0-1.47-.22-2.05-.65s-.86-1.11-.86-2.03v-8.65h-1.75v-1.7h1.75v-4.29h2.17v4.29h2.88v1.7h-2.88v7.98c.03.48.19.82.47,1.03.28.21.61.32.99.32.43,0,.82-.07,1.17-.21.35-.14.59-.25.73-.33l.52,1.72Z"/><path class="cls-1" d="m268.89,161.38c-.97,0-1.85-.18-2.65-.54-.8-.36-1.48-.85-2.05-1.45-.57-.61-1.01-1.31-1.32-2.12-.31-.8-.47-1.65-.47-2.54s.16-1.76.48-2.56c.32-.8.76-1.51,1.33-2.12.57-.61,1.25-1.09,2.05-1.45.8-.36,1.67-.54,2.62-.54s1.83.18,2.64.54c.8.36,1.49.85,2.06,1.45.57.61,1.01,1.31,1.33,2.12.32.8.48,1.66.48,2.56s-.16,1.73-.47,2.54c-.31.8-.76,1.51-1.33,2.12-.57.61-1.26,1.09-2.06,1.45-.8.36-1.68.54-2.65.54Zm-4.26-6.63c0,.67.11,1.3.33,1.87.22.58.53,1.08.91,1.5.38.43.84.76,1.36,1.01.52.25,1.07.37,1.66.37s1.15-.12,1.66-.37c.52-.25.97-.59,1.37-1.02s.7-.94.92-1.53.33-1.21.33-1.89-.11-1.28-.33-1.86-.53-1.09-.92-1.53c-.39-.43-.85-.78-1.37-1.02-.52-.25-1.07-.37-1.66-.37s-1.15.13-1.66.38c-.52.26-.97.6-1.36,1.03-.39.43-.69.95-.91,1.53-.22.58-.33,1.21-.33,1.89Z"/><path class="cls-1" d="m283.96,161.38c-.97,0-1.86-.18-2.66-.53-.8-.35-1.5-.83-2.07-1.44-.58-.61-1.02-1.32-1.34-2.13-.32-.81-.48-1.67-.48-2.58s.16-1.76.48-2.56c.32-.8.77-1.51,1.36-2.12.58-.61,1.28-1.09,2.08-1.44.8-.35,1.69-.53,2.66-.53s1.85.18,2.65.54c.8.36,1.47.84,2.03,1.44.56.6.99,1.3,1.29,2.09.3.8.46,1.62.46,2.48,0,.18,0,.34-.01.49,0,.15-.02.26-.04.34h-10.67c.05.64.2,1.22.44,1.75s.57.98.96,1.36c.39.38.84.67,1.34.89s1.03.32,1.59.32c.39,0,.78-.05,1.16-.16.38-.11.73-.25,1.06-.43.33-.18.62-.4.87-.67s.45-.56.58-.89l1.87.52c-.21.48-.51.91-.88,1.31-.37.39-.8.74-1.28,1.02-.49.29-1.02.51-1.61.68-.59.16-1.21.25-1.85.25Zm4.41-7.54c-.05-.61-.2-1.17-.46-1.69-.26-.52-.58-.96-.96-1.32-.39-.36-.83-.64-1.34-.85-.51-.2-1.05-.31-1.63-.31s-1.12.1-1.63.31c-.51.21-.96.49-1.34.86-.39.37-.7.81-.94,1.32-.24.51-.38,1.07-.43,1.67h8.72Z"/></svg>