<?xml version="1.0" encoding="utf-8"?>
<!-- Generator: Adobe Illustrator 26.4.1, SVG Export Plug-In . SVG Version: 6.00 Build 0)  -->
<svg version="1.1" id="artwork" xmlns="http://www.w3.org/2000/svg" xmlns:xlink="http://www.w3.org/1999/xlink" x="0px" y="0px"
	 viewBox="0 0 434.7 592.9" style="enable-background:new 0 0 434.7 592.9;" xml:space="preserve">
<style type="text/css">
	.st0{fill:none;}
	.st1{fill:#72253D;}
	.st2{font-family:'Raleway-SemiBold';}
	.st3{font-size:15px;}
	.st4{fill:#B5B5B6;}
</style>
<g>
	<path d="M224.3,103.9c0-14.9,6.4-22.3,10-25.7l-0.4-0.7l-74.3,0v8.2h3.8V158c0,9.8,0.3,23.2,5.8,35.7c5.4,12.3,13.2,21.5,26.6,21.5
		c13.6,0,27.7-14.6,10.7-37.4c-12.6-16.9-34.7-32.3-34.7-67.4c0-14.6,5.3-22.1,7.6-24.6h15.1c-1.7,2.3-6.4,9.9-6.4,22.9
		c0,42.4,43.8,56.1,43.8,87.2c0,14.8-11.8,30.6-25,32.6l-0.2,1.3c3.5,1.3,7.4,2.3,11.1,3c5.2-0.2,48.7-12.2,48.7-50
		C266.2,146.1,224.3,136.3,224.3,103.9z M172.2,147.4c0.1,0,0.4-0.2,0.5-0.2c6.7,15.9,23.7,30,29.3,43.3c4,9.5,0.4,16.2-6.2,16.2
		c-15.2,0-23.5-22.3-23.5-47.6C172.2,156.5,172.2,147.4,172.2,147.4z M230,221.1c-0.1-0.2-0.2-0.3-0.3-0.4c5.8-4.5,12.6-13,12.6-25
		c0-35.6-44.6-49-44.6-88.3c0-11.9,4.8-19.3,6.6-21.6h14.4c-1.5,2.6-4.3,9.3-4.3,19.1c0,35.9,41.8,46.5,41.8,79.3
		C256.1,203.4,239.8,217.6,230,221.1z"/>
	<path d="M159.8,77.5c-0.1,0-0.1,0-0.2,0C159.7,77.5,159.7,77.5,159.8,77.5C159.8,77.5,159.8,77.5,159.8,77.5z"/>
	<path d="M265.9,77.5c-6.4,0-11.7,1.3-16.4,5c-1.1,0.9-9.3,7.5-9.3,18.4c0,13.2,8.7,23.1,18.3,32.7c7.4,7.4,11,12.1,12.5,14.6
		l0.9-0.3V85.8h3.8c0-0.2,0-8.5,0-8.2C275.6,77.5,268.9,77.5,265.9,77.5z M263,126.6c-0.1,0-0.3,0.1-0.4,0.2
		c-4-5.3-13.9-14.5-13.9-25.9c0-6.6,4.5-12.6,9.2-14.2c1.4-0.5,2.8-0.5,4.2-0.5c0.5,0,0.3,0,0.9,0L263,126.6z"/>
</g>
<g>
	<path d="M133.5,327.4c0.8,0,1.6-0.2,2.1-0.5c0.6-0.3,1-0.8,1.4-1.4c0.4-0.6,0.6-1.2,0.8-1.9c0.1-0.7,0.2-1.5,0.2-2.2V312h3.6v9.4
		c0,1.3-0.2,2.5-0.5,3.6c-0.3,1.1-0.8,2.1-1.4,2.9c-0.6,0.8-1.5,1.5-2.5,2c-1,0.5-2.2,0.7-3.7,0.7c-1.5,0-2.7-0.3-3.8-0.8
		c-1-0.5-1.9-1.2-2.5-2s-1.1-1.8-1.4-2.9c-0.3-1.1-0.4-2.3-0.4-3.5V312h3.6v9.4c0,0.8,0.1,1.5,0.2,2.2c0.1,0.7,0.4,1.4,0.8,1.9
		s0.8,1,1.4,1.3S132.7,327.4,133.5,327.4z"/>
	<path d="M152.4,318.6v11.8h-3.6V312h2.8l9.6,12.1V312h3.6v18.4h-2.9L152.4,318.6z"/>
	<path d="M172.2,330.4V312h3.6v18.5H172.2z"/>
	<path d="M185.1,312l5,14l4.9-14h3.8l-7.2,18.5h-3l-7.3-18.5H185.1z"/>
	<path d="M217.1,327.3v3.1h-12.8V312h12.6v3.1h-9v4.4h7.8v2.9h-7.8v4.8H217.1z"/>
	<path d="M223.5,330.4V312h8.2c0.8,0,1.6,0.2,2.4,0.5s1.3,0.8,1.9,1.4c0.5,0.6,0.9,1.2,1.2,2s0.4,1.5,0.4,2.2c0,1.2-0.3,2.3-0.9,3.3
		s-1.4,1.7-2.4,2.1l4.2,6.9h-4l-3.8-6.2h-3.5v6.2H223.5z M227.1,321.1h4.5c0.3,0,0.6-0.1,0.9-0.2c0.3-0.2,0.5-0.4,0.7-0.6
		c0.2-0.3,0.4-0.6,0.5-0.9c0.1-0.4,0.2-0.8,0.2-1.2c0-0.4-0.1-0.8-0.2-1.2c-0.1-0.4-0.3-0.7-0.6-0.9c-0.2-0.3-0.5-0.5-0.8-0.6
		s-0.6-0.2-0.9-0.2h-4.3V321.1z"/>
	<path d="M255.4,316.8c-0.1-0.1-0.3-0.3-0.7-0.5s-0.7-0.4-1.2-0.6c-0.5-0.2-1-0.4-1.5-0.5c-0.5-0.1-1.1-0.2-1.6-0.2
		c-1,0-1.7,0.2-2.2,0.5c-0.5,0.4-0.7,0.9-0.7,1.5c0,0.4,0.1,0.7,0.3,0.9c0.2,0.3,0.4,0.5,0.8,0.7s0.8,0.4,1.3,0.5
		c0.5,0.2,1.1,0.3,1.8,0.5c0.9,0.2,1.7,0.5,2.5,0.8c0.7,0.3,1.4,0.6,1.9,1c0.5,0.4,0.9,0.9,1.2,1.5s0.4,1.3,0.4,2.1
		c0,1-0.2,1.8-0.6,2.5c-0.4,0.7-0.9,1.3-1.5,1.7c-0.6,0.4-1.4,0.8-2.2,0.9s-1.7,0.3-2.6,0.3c-1.4,0-2.8-0.2-4.1-0.6s-2.6-1-3.6-1.8
		l1.6-3.1c0.2,0.2,0.4,0.4,0.8,0.6s0.9,0.5,1.4,0.8c0.6,0.3,1.2,0.5,1.8,0.6c0.7,0.2,1.4,0.3,2.1,0.3c2,0,3-0.6,3-1.9
		c0-0.4-0.1-0.7-0.3-1c-0.2-0.3-0.5-0.5-1-0.7s-0.9-0.4-1.5-0.6c-0.6-0.2-1.2-0.4-2-0.6c-0.9-0.2-1.7-0.5-2.3-0.8s-1.2-0.6-1.6-1
		c-0.4-0.4-0.8-0.8-1-1.4c-0.2-0.5-0.3-1.1-0.3-1.8c0-0.9,0.2-1.8,0.5-2.5c0.3-0.7,0.8-1.3,1.4-1.8c0.6-0.5,1.3-0.9,2.1-1.1
		s1.7-0.4,2.6-0.4c1.3,0,2.5,0.2,3.6,0.6s2,0.9,2.9,1.4L255.4,316.8z"/>
	<path d="M263.9,330.4V312h3.6v18.5H263.9z"/>
	<path d="M288.7,315.1h-5.9v15.3h-3.6v-15.3h-5.9V312h15.4V315.1z"/>
	<path d="M296.6,312l4.5,8.9l4.6-8.9h3.9l-6.7,12v6.4h-3.6v-6.5l-6.7-12H296.6z"/>
</g>
<g>
	<path d="M114.7,358.6v-18.5h3.6v18.5H114.7z"/>
	<path d="M127.7,340.1l4.5,8.9l4.6-8.9h3.9l-6.7,12v6.4h-3.6v-6.5l-6.7-12H127.7z"/>
	<path d="M154.2,355.6c0.8,0,1.6-0.2,2.1-0.5c0.6-0.3,1-0.8,1.4-1.4s0.6-1.2,0.8-1.9c0.1-0.7,0.2-1.5,0.2-2.2v-9.4h3.6v9.4
		c0,1.3-0.2,2.5-0.5,3.6c-0.3,1.1-0.8,2.1-1.4,2.9s-1.5,1.5-2.5,2c-1,0.5-2.2,0.7-3.7,0.7c-1.5,0-2.7-0.3-3.8-0.8
		c-1-0.5-1.9-1.2-2.5-2c-0.6-0.8-1.1-1.8-1.4-2.9s-0.4-2.3-0.4-3.5v-9.4h3.6v9.4c0,0.8,0.1,1.5,0.2,2.2c0.1,0.7,0.4,1.4,0.8,1.9
		s0.8,1,1.4,1.3C152.6,355.4,153.4,355.6,154.2,355.6z"/>
	<path d="M173,346.8v11.8h-3.6v-18.5h2.8l9.6,12.1v-12.1h3.6v18.4h-2.9L173,346.8z"/>
	<path d="M192.8,358.6v-18.5h3.6v18.5H192.8z"/>
	<path d="M205.7,340.1l5,14l4.9-14h3.8l-7.2,18.5h-3l-7.3-18.5H205.7z"/>
	<path d="M237.8,355.5v3.1H225v-18.5h12.6v3.1h-9v4.4h7.8v2.9h-7.8v4.8H237.8z"/>
	<path d="M254.8,345c-0.1-0.1-0.3-0.3-0.7-0.5c-0.3-0.2-0.7-0.4-1.2-0.6s-1-0.4-1.5-0.5c-0.5-0.1-1.1-0.2-1.6-0.2
		c-1,0-1.7,0.2-2.2,0.5c-0.5,0.4-0.7,0.9-0.7,1.5c0,0.4,0.1,0.7,0.3,0.9c0.2,0.3,0.4,0.5,0.8,0.7s0.8,0.4,1.3,0.5
		c0.5,0.2,1.1,0.3,1.8,0.5c0.9,0.2,1.7,0.5,2.5,0.8c0.7,0.3,1.4,0.6,1.9,1c0.5,0.4,0.9,0.9,1.2,1.5s0.4,1.3,0.4,2.1
		c0,1-0.2,1.8-0.6,2.5c-0.4,0.7-0.9,1.3-1.5,1.7c-0.6,0.4-1.4,0.8-2.2,0.9s-1.7,0.3-2.6,0.3c-1.4,0-2.8-0.2-4.1-0.6
		c-1.4-0.4-2.6-1-3.6-1.8l1.6-3.1c0.2,0.2,0.4,0.4,0.8,0.6s0.9,0.5,1.4,0.8c0.6,0.3,1.2,0.5,1.8,0.6c0.7,0.2,1.4,0.3,2.1,0.3
		c2,0,3-0.6,3-1.9c0-0.4-0.1-0.7-0.3-1s-0.5-0.5-1-0.7s-0.9-0.4-1.5-0.6c-0.6-0.2-1.2-0.4-2-0.6c-0.9-0.2-1.7-0.5-2.3-0.8
		c-0.6-0.3-1.2-0.6-1.6-1c-0.4-0.4-0.8-0.8-1-1.4c-0.2-0.5-0.3-1.1-0.3-1.8c0-0.9,0.2-1.8,0.5-2.5c0.3-0.7,0.8-1.3,1.4-1.8
		c0.6-0.5,1.3-0.9,2.1-1.1c0.8-0.3,1.7-0.4,2.6-0.4c1.3,0,2.5,0.2,3.6,0.6s2,0.9,2.9,1.4L254.8,345z"/>
	<path d="M263.3,358.6v-18.5h3.6v18.5H263.3z"/>
	<path d="M288.1,343.3h-5.9v15.3h-3.6v-15.3h-5.9v-3.1h15.4V343.3z"/>
	<path d="M309.5,340.1v18.5h-3.6v-7.9h-8.4v7.9h-3.6v-18.5h3.6v7.5h8.4v-7.5H309.5z"/>
	<path d="M316.9,358.6v-18.5h3.6v18.5H316.9z"/>
</g>
<g>
	<path d="M119.1,383.7c0.8,0,1.6-0.2,2.1-0.5c0.6-0.3,1-0.8,1.4-1.4s0.6-1.2,0.8-1.9c0.1-0.7,0.2-1.5,0.2-2.2v-9.4h3.6v9.4
		c0,1.3-0.2,2.5-0.5,3.6c-0.3,1.1-0.8,2.1-1.4,2.9s-1.5,1.5-2.5,2c-1,0.5-2.2,0.7-3.7,0.7c-1.5,0-2.7-0.3-3.8-0.8
		c-1-0.5-1.9-1.2-2.5-2c-0.6-0.8-1.1-1.8-1.4-2.9s-0.4-2.3-0.4-3.5v-9.4h3.6v9.4c0,0.8,0.1,1.5,0.2,2.2c0.1,0.7,0.4,1.4,0.8,1.9
		s0.8,1,1.4,1.3C117.6,383.6,118.3,383.7,119.1,383.7z"/>
	<path d="M137.9,374.9v11.8h-3.6v-18.5h2.8l9.6,12.1v-12.1h3.6v18.4h-2.9L137.9,374.9z"/>
	<path d="M157.8,386.8v-18.5h3.6v18.5H157.8z"/>
	<path d="M170.7,368.3l5,14l4.9-14h3.8l-7.2,18.5h-3l-7.3-18.5H170.7z"/>
	<path d="M202.7,383.6v3.1h-12.8v-18.5h12.6v3.1h-9v4.4h7.8v2.9h-7.8v4.8H202.7z"/>
	<path d="M209.1,386.8v-18.5h8.2c0.8,0,1.6,0.2,2.4,0.5c0.7,0.4,1.3,0.8,1.9,1.4c0.5,0.6,0.9,1.2,1.2,2s0.4,1.5,0.4,2.2
		c0,1.2-0.3,2.3-0.9,3.3c-0.6,1-1.4,1.7-2.4,2.1l4.2,6.9h-4l-3.8-6.2h-3.5v6.2H209.1z M212.7,377.4h4.5c0.3,0,0.6-0.1,0.9-0.2
		c0.3-0.2,0.5-0.4,0.7-0.6s0.4-0.6,0.5-0.9c0.1-0.4,0.2-0.8,0.2-1.2c0-0.4-0.1-0.8-0.2-1.2c-0.1-0.4-0.3-0.7-0.6-0.9
		c-0.2-0.3-0.5-0.5-0.8-0.6c-0.3-0.1-0.6-0.2-0.9-0.2h-4.3V377.4z"/>
	<path d="M240.9,373.1c-0.1-0.1-0.3-0.3-0.7-0.5c-0.3-0.2-0.7-0.4-1.2-0.6s-1-0.4-1.5-0.5c-0.5-0.1-1.1-0.2-1.6-0.2
		c-1,0-1.7,0.2-2.2,0.5c-0.5,0.4-0.7,0.9-0.7,1.5c0,0.4,0.1,0.7,0.3,0.9c0.2,0.3,0.4,0.5,0.8,0.7s0.8,0.4,1.3,0.5
		c0.5,0.2,1.1,0.3,1.8,0.5c0.9,0.2,1.7,0.5,2.5,0.8c0.7,0.3,1.4,0.6,1.9,1c0.5,0.4,0.9,0.9,1.2,1.5s0.4,1.3,0.4,2.1
		c0,1-0.2,1.8-0.6,2.5c-0.4,0.7-0.9,1.3-1.5,1.7c-0.6,0.4-1.4,0.8-2.2,0.9s-1.7,0.3-2.6,0.3c-1.4,0-2.8-0.2-4.1-0.6
		c-1.4-0.4-2.6-1-3.6-1.8l1.6-3.1c0.2,0.2,0.4,0.4,0.8,0.6s0.9,0.5,1.4,0.8c0.6,0.3,1.2,0.5,1.8,0.6c0.7,0.2,1.4,0.3,2.1,0.3
		c2,0,3-0.6,3-1.9c0-0.4-0.1-0.7-0.3-1s-0.5-0.5-1-0.7s-0.9-0.4-1.5-0.6c-0.6-0.2-1.2-0.4-2-0.6c-0.9-0.2-1.7-0.5-2.3-0.8
		c-0.6-0.3-1.2-0.6-1.6-1c-0.4-0.4-0.8-0.8-1-1.4c-0.2-0.5-0.3-1.1-0.3-1.8c0-0.9,0.2-1.8,0.5-2.5c0.3-0.7,0.8-1.3,1.4-1.8
		c0.6-0.5,1.3-0.9,2.1-1.1c0.8-0.3,1.7-0.4,2.6-0.4c1.3,0,2.5,0.2,3.6,0.6s2,0.9,2.9,1.4L240.9,373.1z"/>
	<path d="M249.4,386.8v-18.5h3.6v18.5H249.4z"/>
	<path d="M274.2,371.5h-5.9v15.3h-3.6v-15.3h-5.9v-3.1h15.4V371.5z"/>
	<path d="M292.9,383.6v3.1h-12.8v-18.5h12.6v3.1h-9v4.4h7.8v2.9h-7.8v4.8H292.9z"/>
	<path d="M299.3,386.8v-18.5h3.6v18.5H299.3z"/>
	<path d="M324.1,371.5h-5.9v15.3h-3.6v-15.3h-5.9v-3.1h15.4V371.5z"/>
</g>
<g>
	<path d="M77.6,282.8l3.1-0.2c0.7,3.8,3.5,7,7.6,7c3.3,0,6.8-2.2,6.8-6.3c0-4.4-4-6.5-9.3-8.6c-4.8-2-9-5.2-9-10.7
		c0-6.3,5.6-9.9,12-9.9c3.3,0,7.1,0.9,10,2.2l-0.7,6.8L95,263c-0.3-3.4-3.1-5.5-6.6-5.5c-3.3,0-5.8,1.9-5.8,5.1c0,3,2.1,4.6,7.1,6.6
		c5.7,2.3,11.7,6.5,11.7,13.1c0,6.9-6.3,10.8-13.3,10.8c-3.8,0-7-1.2-10.2-2.9L77.6,282.8z"/>
	<path d="M118.7,290.4c-2.1,1.8-4.2,2.8-6.6,2.8c-3.9,0-5.9-2.6-5.9-7.8V269h-2.6v-3.7c2.4,0,3.9-1.6,4-4.5l0.1-3.1h4.5v7.6h6.4v1.3
		c0,1.5-1,2.4-2.8,2.4h-3.6v16.9c0,2.3,1.1,3.7,2.8,3.7c0.9,0,1.9-0.4,2.9-1.1L118.7,290.4z"/>
	<path d="M143.6,288.2c-2.6,3.3-5.8,5-10.2,5c-8.7,0-13.4-7.1-13.4-15.2c0-7.1,5.7-13.4,13.1-13.4c5.5,0,11.1,3.5,11.1,9.4
		c0,4.8-4.2,6.6-9.1,6.6h-8.7c0.2,5,3.6,9,8.6,9c3.2,0,5.3-1.2,7.6-3.2L143.6,288.2z M135.2,276.7c1.9-0.4,3.3-1.4,3.3-3.5
		c0-2.6-2.1-5.1-5.2-5.1c-4.5,0-6.9,4.9-6.9,9C128.2,277.1,133.2,277.2,135.2,276.7z"/>
	<path d="M148.8,256c0-1.1-1-1.2-1.8-1.2h-0.5v-2.4h4.3c3.3,0,4.1,1.7,4.1,4.6v30.6c0,1.3,0.4,1.8,1.5,2.3v2.7h-9v-2.7
		c1.1-0.5,1.5-0.9,1.5-2.3V256z"/>
	<path d="M162.6,256c0-1.1-1-1.2-1.8-1.2h-0.5v-2.4h4.3c3.3,0,4.1,1.7,4.1,4.6v30.6c0,1.3,0.4,1.8,1.5,2.3v2.7h-9v-2.7
		c1.1-0.5,1.5-0.9,1.5-2.3V256z"/>
	<path d="M196.2,288.2c-2.6,3.3-5.8,5-10.2,5c-8.7,0-13.4-7.1-13.4-15.2c0-7.1,5.7-13.4,13.1-13.4c5.5,0,11.1,3.5,11.1,9.4
		c0,4.8-4.2,6.6-9.1,6.6h-8.7c0.2,5,3.6,9,8.6,9c3.2,0,5.3-1.2,7.6-3.2L196.2,288.2z M187.8,276.7c1.9-0.4,3.3-1.4,3.3-3.5
		c0-2.6-2.1-5.1-5.2-5.1c-4.5,0-6.9,4.9-6.9,9C180.8,277.1,185.7,277.2,187.8,276.7z"/>
	<path d="M199.5,292.6v-2.8c1.3,0,1.5-1.1,1.5-2.2v-19.1c0-0.7-0.3-1.1-1.1-1.2c-0.2-0.1-0.6-0.1-0.9-0.1v-2.4h3.9
		c2.5,0,3.8,1,3.9,3.6c1.9-2.3,4.5-3.5,7.7-3.5c5.4,0,8.6,3.5,8.6,9.4v13.3c0,1.1,0.2,2.2,1.5,2.2v2.8h-9.1v-2.8
		c1.3,0,1.5-1.1,1.5-2.2v-13.5c0-3.2-1.8-5.6-4.5-5.6c-2.4,0-4.8,1.9-5.7,4.7v14.4c0,1.1,0.2,2.2,1.5,2.2v2.8H199.5z"/>
	<path d="M225.7,254.6v-2.4h4.4c3.5,0,3.9,1.7,4,4.5c0,0.4,0,0.9,0,1.3v9.1c1.5-1.8,4.2-2.5,6.6-2.5c7.9,0,11.9,7.3,11.9,14.4
		c0,7.9-4.6,14.2-13.6,14.2c-6,0-10.9-2.9-10.9-9.1v-28.2c0-0.8-0.5-1-1.1-1.1c-0.3-0.1-0.6-0.1-1-0.1H225.7z M234.1,284.3
		c0,3.4,1.6,5.6,4.8,5.6c5.7,0,7.3-6.9,7.3-11.4c0-4.2-1.5-9.9-6.6-9.9c-2.2,0-3.9,1-5.1,2.5l-0.1,0.1c-0.1,0.2-0.3,0.3-0.3,0.5
		V284.3z"/>
	<path d="M268.5,264.6c7.6,0,13.4,6.2,13.4,14.1c0,8-5.9,14.4-13.4,14.4s-13.6-6.5-13.6-14.6C254.9,270.8,260.9,264.6,268.5,264.6z
		 M268.5,289.8c4.1,0,6.9-4.3,6.9-10.9s-2.8-10.9-7.1-10.9c-4.1,0-6.8,4.2-6.8,10.5C261.5,285.2,264.3,289.8,268.5,289.8z"/>
	<path d="M285,285.3h3c0.8,3.1,3.1,4.9,6.3,4.9c2.8,0,4.7-1.4,4.7-3.5c0-3.7-8.5-5.8-11.3-7.9c-2.2-1.7-3.3-3.7-3.3-6.2
		c0-4.8,4.2-7.9,10.3-7.9c2.5,0,5.9,0.5,8.3,1.5v6h-3.1c-0.8-2.8-2.8-4.3-5.6-4.3c-2.5,0-4.3,1.4-4.3,3.1c0,2.7,5.3,4.9,7.5,5.9
		c5.6,2.5,7.4,4.6,7.4,8.2c0,4.7-4.6,8-10.9,8c-3.3,0-6-0.9-8.9-2.4V285.3z"/>
	<path d="M330.5,287.7L330.5,287.7c-2.8,3.5-6.3,5.5-10.8,5.5c-7.3,0-12.7-5.9-12.7-14.1c0-8.6,5.7-14.4,14.4-14.4
		c3.3,0,5.7,0.9,8.6,2.2v5.3h-3.1c-0.2-0.4-0.3-0.8-0.5-1.1c-1-2.1-2.9-3.3-5.2-3.3c-4.4,0-7.6,4.6-7.6,11s3.2,10.7,8,10.7
		c2.5,0,4.9-1.1,6.8-3.4c0.2-0.2,0.5-0.6,0.8-1L330.5,287.7z"/>
	<path d="M333.2,292.6v-2.7l0.3-0.1c0.5-0.3,1.2-0.7,1.2-2.2V256c0-0.9-0.9-1.2-2.1-1.2h-0.5v-2.4h4.5c3.4,0,4.2,1.5,4.2,6.2v9.2
		c1.8-2.1,3.7-2.9,6.4-2.9c5.6,0,9.4,3.7,9.4,9.1v13.7c0,1.3,0.4,1.8,1.5,2.3v2.7h-9.1v-2.7c1.1-0.4,1.6-1.1,1.6-2.3v-13.5
		c0-3-1.8-5.7-4.9-5.7c-2.2,0-4.2,1.5-5.2,4v15.2c0,1.3,0.8,1.8,1.8,2.3v2.7H333.2z"/>
</g>
<g>
	<rect x="150.5" y="415.9" width="134" height="2"/>
</g>
<g>
	<path d="M118.7,460v-11.3H117V447h1.8v-0.3c0-1.6,0.4-2.9,1.1-3.8c0.7-0.9,1.7-1.4,2.9-1.4c0.5,0,1,0.1,1.5,0.2s1,0.3,1.4,0.6
		l-0.6,1.6c-0.2-0.2-0.5-0.3-0.9-0.4c-0.3-0.1-0.7-0.2-1-0.2c-0.7,0-1.3,0.3-1.7,0.8s-0.6,1.3-0.6,2.4v0.4h3.5v1.7h-3.5V460H118.7z"
		/>
	<path d="M132.3,460.3c-1,0-1.9-0.2-2.7-0.5c-0.8-0.4-1.5-0.9-2.1-1.5c-0.6-0.6-1-1.3-1.3-2.1s-0.5-1.7-0.5-2.6
		c0-0.9,0.2-1.8,0.5-2.6c0.3-0.8,0.8-1.5,1.3-2.2c0.6-0.6,1.3-1.1,2.1-1.5c0.8-0.4,1.7-0.6,2.7-0.6c1,0,1.9,0.2,2.7,0.6
		c0.8,0.4,1.5,0.9,2.1,1.5c0.6,0.6,1,1.3,1.3,2.2c0.3,0.8,0.5,1.7,0.5,2.6c0,0.9-0.2,1.8-0.5,2.6c-0.3,0.8-0.8,1.5-1.4,2.1
		c-0.6,0.6-1.3,1.1-2.1,1.5C134.2,460.1,133.3,460.3,132.3,460.3z M127.9,453.6c0,0.7,0.1,1.3,0.3,1.9c0.2,0.6,0.5,1.1,0.9,1.5
		s0.9,0.8,1.4,1s1.1,0.4,1.7,0.4s1.2-0.1,1.7-0.4s1-0.6,1.4-1s0.7-1,0.9-1.5s0.3-1.2,0.3-1.9c0-0.7-0.1-1.3-0.3-1.9
		s-0.5-1.1-0.9-1.6c-0.4-0.4-0.9-0.8-1.4-1s-1.1-0.4-1.7-0.4s-1.2,0.1-1.7,0.4s-1,0.6-1.4,1s-0.7,1-0.9,1.5
		C128.1,452.2,127.9,452.9,127.9,453.6z"/>
	<path d="M148.7,448.9c-1.1,0-2.1,0.3-2.9,0.8c-0.8,0.5-1.4,1.3-1.8,2.2v8h-2.2v-13h2.1v3c0.4-0.9,1-1.6,1.8-2.2
		c0.7-0.6,1.5-0.9,2.3-0.9c0.2,0,0.3,0,0.4,0s0.2,0,0.3,0V448.9z"/>
	<path d="M167.5,447h2.1l-5.6,13h-1.8l-2.6-6.4L157,460h-1.8l-5.5-13h2.1l4.5,10.9l2.2-5.4l-2.2-5.4h1.8l1.6,4.2l1.6-4.2h1.8
		l-2.2,5.4l2.2,5.4L167.5,447z"/>
	<path d="M174.9,460.3c-0.6,0-1.2-0.1-1.7-0.3s-1-0.5-1.4-0.9c-0.4-0.4-0.7-0.8-0.9-1.3c-0.2-0.5-0.3-1-0.3-1.6
		c0-0.6,0.1-1.1,0.4-1.6c0.3-0.5,0.6-0.9,1.1-1.3c0.5-0.4,1.1-0.6,1.8-0.8s1.4-0.3,2.2-0.3c0.6,0,1.3,0.1,1.9,0.2s1.2,0.3,1.7,0.5
		v-1c0-1.1-0.3-1.9-0.9-2.5c-0.6-0.6-1.4-0.9-2.5-0.9c-1.3,0-2.7,0.5-4.2,1.5l-0.7-1.4c1.7-1.1,3.4-1.7,5.1-1.7c1.7,0,3.1,0.5,4,1.4
		c1,0.9,1.4,2.2,1.4,3.9v5.3c0,0.5,0.2,0.8,0.7,0.8v1.9c-0.2,0-0.4,0.1-0.6,0.1s-0.3,0-0.5,0c-0.4,0-0.8-0.1-1-0.4
		c-0.3-0.3-0.4-0.6-0.5-0.9l0-0.9c-0.6,0.8-1.3,1.4-2.2,1.8C176.9,460.1,175.9,460.3,174.9,460.3z M175.5,458.6
		c0.8,0,1.5-0.1,2.2-0.4c0.7-0.3,1.2-0.7,1.5-1.2c0.3-0.3,0.5-0.6,0.5-1v-1.9c-1.1-0.4-2.2-0.6-3.3-0.6c-1.1,0-2,0.2-2.7,0.7
		c-0.7,0.5-1,1.1-1,1.8c0,0.4,0.1,0.7,0.2,1c0.1,0.3,0.3,0.6,0.6,0.8c0.3,0.2,0.6,0.4,0.9,0.6C174.7,458.6,175.1,458.6,175.5,458.6z
		"/>
	<path d="M192.6,448.9c-1.1,0-2.1,0.3-2.9,0.8c-0.8,0.5-1.4,1.3-1.8,2.2v8h-2.2v-13h2.1v3c0.4-0.9,1-1.6,1.8-2.2
		c0.7-0.6,1.5-0.9,2.4-0.9c0.2,0,0.3,0,0.4,0c0.1,0,0.2,0,0.3,0V448.9z"/>
	<path d="M200.1,460.3c-0.9,0-1.7-0.2-2.5-0.5c-0.8-0.4-1.4-0.9-2-1.5c-0.5-0.6-1-1.3-1.3-2.1s-0.5-1.7-0.5-2.6
		c0-0.9,0.1-1.8,0.4-2.6s0.7-1.5,1.2-2.2c0.5-0.6,1.2-1.1,1.9-1.5c0.7-0.4,1.5-0.5,2.4-0.5c1,0,2,0.3,2.8,0.8c0.8,0.5,1.5,1.2,2,2
		v-7.8h2.2v15.5c0,0.5,0.2,0.8,0.7,0.8v1.9c-0.2,0-0.4,0.1-0.6,0.1c-0.1,0-0.3,0-0.4,0c-0.4,0-0.8-0.1-1.1-0.4
		c-0.3-0.3-0.5-0.6-0.5-1v-1.1c-0.5,0.9-1.2,1.5-2.1,2C202,460.1,201.1,460.3,200.1,460.3z M200.7,458.4c0.4,0,0.8-0.1,1.2-0.2
		c0.4-0.2,0.8-0.4,1.2-0.6s0.7-0.6,1-0.9c0.3-0.4,0.5-0.7,0.5-1.1v-3.8c-0.1-0.4-0.4-0.8-0.7-1.2c-0.3-0.4-0.6-0.7-1-1
		c-0.4-0.3-0.8-0.5-1.2-0.7c-0.4-0.2-0.8-0.2-1.3-0.2c-0.7,0-1.2,0.1-1.8,0.4c-0.5,0.3-1,0.6-1.3,1.1s-0.7,1-0.9,1.6
		s-0.3,1.2-0.3,1.8c0,0.6,0.1,1.3,0.3,1.9s0.6,1.1,1,1.5c0.4,0.4,0.9,0.8,1.4,1C199.5,458.3,200,458.4,200.7,458.4z"/>
	<path d="M224.1,459.4c-0.1,0.1-0.3,0.1-0.5,0.2s-0.5,0.2-0.7,0.3c-0.3,0.1-0.6,0.2-0.9,0.2c-0.3,0.1-0.7,0.1-1,0.1
		c-0.8,0-1.5-0.2-2.1-0.7c-0.6-0.4-0.9-1.1-0.9-2.1v-8.8h-1.8V447h1.8v-4.4h2.2v4.4h2.9v1.7h-2.9v8.1c0,0.5,0.2,0.8,0.5,1
		c0.3,0.2,0.6,0.3,1,0.3c0.4,0,0.8-0.1,1.2-0.2s0.6-0.3,0.7-0.3L224.1,459.4z"/>
	<path d="M231.9,460.3c-1,0-1.9-0.2-2.7-0.5s-1.5-0.9-2.1-1.5c-0.6-0.6-1-1.3-1.3-2.1s-0.5-1.7-0.5-2.6c0-0.9,0.2-1.8,0.5-2.6
		s0.8-1.5,1.3-2.2c0.6-0.6,1.3-1.1,2.1-1.5c0.8-0.4,1.7-0.6,2.7-0.6s1.9,0.2,2.7,0.6c0.8,0.4,1.5,0.9,2.1,1.5c0.6,0.6,1,1.3,1.4,2.2
		c0.3,0.8,0.5,1.7,0.5,2.6c0,0.9-0.2,1.8-0.5,2.6s-0.8,1.5-1.3,2.1c-0.6,0.6-1.3,1.1-2.1,1.5S232.9,460.3,231.9,460.3z M227.6,453.6
		c0,0.7,0.1,1.3,0.3,1.9c0.2,0.6,0.5,1.1,0.9,1.5s0.9,0.8,1.4,1c0.5,0.2,1.1,0.4,1.7,0.4c0.6,0,1.2-0.1,1.7-0.4c0.5-0.2,1-0.6,1.4-1
		c0.4-0.4,0.7-1,0.9-1.5c0.2-0.6,0.3-1.2,0.3-1.9c0-0.7-0.1-1.3-0.3-1.9c-0.2-0.6-0.5-1.1-0.9-1.6c-0.4-0.4-0.9-0.8-1.4-1
		c-0.5-0.2-1.1-0.4-1.7-0.4c-0.6,0-1.2,0.1-1.7,0.4c-0.5,0.3-1,0.6-1.4,1s-0.7,1-0.9,1.5C227.7,452.2,227.6,452.9,227.6,453.6z"/>
	<path d="M246.6,460.2c-0.9,0-1.7-0.2-2.4-0.6c-0.7-0.4-1.4-0.9-1.9-1.5c-0.5-0.6-0.9-1.3-1.2-2.1c-0.3-0.8-0.4-1.6-0.4-2.5
		c0-0.9,0.1-1.8,0.4-2.6c0.3-0.8,0.7-1.5,1.2-2.2c0.5-0.6,1.2-1.1,1.9-1.5s1.6-0.5,2.5-0.5c1.1,0,2.1,0.3,2.9,0.8s1.5,1.2,2,2V447h2
		v12.9c0,0.9-0.2,1.8-0.5,2.5c-0.3,0.7-0.8,1.3-1.4,1.8c-0.6,0.5-1.3,0.9-2.1,1.1c-0.8,0.2-1.7,0.4-2.6,0.4c-1.5,0-2.7-0.3-3.6-0.8
		c-0.9-0.5-1.7-1.2-2.3-2.1l1.3-1.1c0.5,0.8,1.2,1.3,2,1.7s1.7,0.6,2.7,0.6c0.6,0,1.2-0.1,1.7-0.2c0.5-0.2,1-0.4,1.4-0.8
		c0.4-0.3,0.7-0.8,1-1.2c0.2-0.5,0.4-1.1,0.4-1.8v-2.3c-0.2,0.4-0.5,0.8-0.9,1.1s-0.7,0.6-1.1,0.8c-0.4,0.2-0.8,0.4-1.3,0.5
		C247.5,460.1,247.1,460.2,246.6,460.2z M247.3,458.4c0.5,0,0.9-0.1,1.3-0.2c0.4-0.2,0.8-0.4,1.2-0.7c0.4-0.3,0.7-0.6,0.9-0.9
		s0.4-0.7,0.5-1.1v-3.8c-0.2-0.5-0.4-0.9-0.7-1.2s-0.6-0.7-1-1c-0.4-0.3-0.8-0.5-1.2-0.6c-0.4-0.1-0.9-0.2-1.3-0.2
		c-0.7,0-1.3,0.1-1.8,0.4c-0.5,0.3-1,0.7-1.3,1.1c-0.4,0.5-0.7,1-0.9,1.6s-0.3,1.2-0.3,1.8c0,0.7,0.1,1.3,0.3,1.9
		c0.2,0.6,0.6,1.1,1,1.5c0.4,0.4,0.9,0.8,1.4,1C246.1,458.3,246.7,458.4,247.3,458.4z"/>
	<path d="M263,460.3c-1,0-1.9-0.2-2.7-0.5c-0.8-0.4-1.5-0.8-2.1-1.5c-0.6-0.6-1-1.3-1.4-2.2c-0.3-0.8-0.5-1.7-0.5-2.6
		c0-0.9,0.2-1.8,0.5-2.6c0.3-0.8,0.8-1.5,1.4-2.2c0.6-0.6,1.3-1.1,2.1-1.5s1.7-0.5,2.7-0.5c1,0,1.9,0.2,2.7,0.6
		c0.8,0.4,1.5,0.9,2.1,1.5c0.6,0.6,1,1.3,1.3,2.1c0.3,0.8,0.5,1.6,0.5,2.5c0,0.2,0,0.3,0,0.5s0,0.3,0,0.3h-10.8
		c0,0.7,0.2,1.2,0.5,1.8s0.6,1,1,1.4c0.4,0.4,0.9,0.7,1.4,0.9c0.5,0.2,1,0.3,1.6,0.3c0.4,0,0.8-0.1,1.2-0.2c0.4-0.1,0.7-0.3,1.1-0.4
		c0.3-0.2,0.6-0.4,0.9-0.7c0.3-0.3,0.5-0.6,0.6-0.9l1.9,0.5c-0.2,0.5-0.5,0.9-0.9,1.3c-0.4,0.4-0.8,0.7-1.3,1
		c-0.5,0.3-1,0.5-1.6,0.7S263.7,460.3,263,460.3z M267.5,452.6c0-0.6-0.2-1.2-0.5-1.7c-0.3-0.5-0.6-1-1-1.3
		c-0.4-0.4-0.8-0.7-1.4-0.9c-0.5-0.2-1.1-0.3-1.6-0.3c-0.6,0-1.1,0.1-1.7,0.3c-0.5,0.2-1,0.5-1.4,0.9c-0.4,0.4-0.7,0.8-0.9,1.3
		c-0.2,0.5-0.4,1.1-0.4,1.7H267.5z"/>
	<path d="M278.9,459.4c-0.1,0.1-0.3,0.1-0.5,0.2s-0.5,0.2-0.7,0.3c-0.3,0.1-0.6,0.2-0.9,0.2c-0.3,0.1-0.7,0.1-1,0.1
		c-0.8,0-1.5-0.2-2.1-0.7s-0.9-1.1-0.9-2.1v-8.8H271V447h1.8v-4.4h2.2v4.4h2.9v1.7H275v8.1c0,0.5,0.2,0.8,0.5,1
		c0.3,0.2,0.6,0.3,1,0.3c0.4,0,0.8-0.1,1.2-0.2c0.4-0.1,0.6-0.3,0.7-0.3L278.9,459.4z"/>
	<path d="M292.5,460h-2.2v-7.3c0-1.4-0.2-2.4-0.7-3s-1.2-1-2-1c-0.4,0-0.9,0.1-1.3,0.3c-0.4,0.2-0.8,0.4-1.2,0.7s-0.7,0.7-1,1.1
		c-0.3,0.4-0.5,0.9-0.7,1.4v7.9h-2.2v-18.2h2.2v8c0.5-1,1.2-1.7,2.1-2.2s1.8-0.8,2.9-0.8c0.8,0,1.4,0.1,1.9,0.4s1,0.7,1.3,1.1
		s0.5,1.1,0.7,1.7c0.1,0.7,0.2,1.4,0.2,2.2V460z"/>
	<path d="M302,460.3c-1,0-1.9-0.2-2.7-0.5c-0.8-0.4-1.5-0.8-2.1-1.5c-0.6-0.6-1-1.3-1.4-2.2c-0.3-0.8-0.5-1.7-0.5-2.6
		c0-0.9,0.2-1.8,0.5-2.6c0.3-0.8,0.8-1.5,1.4-2.2c0.6-0.6,1.3-1.1,2.1-1.5c0.8-0.4,1.7-0.5,2.7-0.5s1.9,0.2,2.7,0.6
		c0.8,0.4,1.5,0.9,2.1,1.5s1,1.3,1.3,2.1c0.3,0.8,0.5,1.6,0.5,2.5c0,0.2,0,0.3,0,0.5s0,0.3,0,0.3h-10.8c0,0.7,0.2,1.2,0.4,1.8
		s0.6,1,1,1.4c0.4,0.4,0.9,0.7,1.4,0.9s1,0.3,1.6,0.3c0.4,0,0.8-0.1,1.2-0.2c0.4-0.1,0.7-0.3,1.1-0.4c0.3-0.2,0.6-0.4,0.9-0.7
		s0.5-0.6,0.6-0.9l1.9,0.5c-0.2,0.5-0.5,0.9-0.9,1.3c-0.4,0.4-0.8,0.7-1.3,1c-0.5,0.3-1,0.5-1.6,0.7
		C303.3,460.2,302.6,460.3,302,460.3z M306.5,452.6c0-0.6-0.2-1.2-0.5-1.7c-0.3-0.5-0.6-1-1-1.3c-0.4-0.4-0.8-0.7-1.4-0.9
		c-0.5-0.2-1.1-0.3-1.7-0.3s-1.1,0.1-1.7,0.3c-0.5,0.2-1,0.5-1.4,0.9c-0.4,0.4-0.7,0.8-1,1.3c-0.2,0.5-0.4,1.1-0.4,1.7H306.5z"/>
	<path d="M318.1,448.9c-1.1,0-2.1,0.3-2.9,0.8c-0.8,0.5-1.4,1.3-1.8,2.2v8h-2.2v-13h2.1v3c0.4-0.9,1-1.6,1.8-2.2
		c0.7-0.6,1.5-0.9,2.3-0.9c0.2,0,0.3,0,0.4,0s0.2,0,0.3,0V448.9z"/>
</g>
<g>
	<path d="M107.7,487.9c-1.1,0-2.1-0.2-3.1-0.5c-1-0.3-1.9-0.8-2.6-1.4l0.9-1.5c0.8,0.6,1.5,1,2.3,1.3c0.8,0.3,1.6,0.4,2.4,0.4
		c1,0,1.7-0.2,2.3-0.6c0.6-0.4,0.8-0.9,0.8-1.6c0-0.3-0.1-0.6-0.2-0.8c-0.1-0.2-0.4-0.4-0.7-0.6c-0.3-0.2-0.7-0.3-1.2-0.5
		c-0.5-0.1-1-0.3-1.6-0.4c-0.8-0.2-1.5-0.4-2-0.6s-1-0.4-1.4-0.7c-0.4-0.2-0.6-0.5-0.8-0.9c-0.2-0.4-0.2-0.8-0.2-1.3
		c0-0.7,0.1-1.2,0.4-1.7c0.3-0.5,0.6-0.9,1.1-1.3c0.5-0.3,1-0.6,1.6-0.8c0.6-0.2,1.3-0.3,2-0.3c1,0,1.9,0.2,2.8,0.5
		c0.8,0.3,1.6,0.7,2.1,1.2l-1,1.3c-0.5-0.5-1.2-0.8-1.9-1.1c-0.7-0.2-1.4-0.4-2.1-0.4c-0.8,0-1.5,0.2-2,0.5s-0.8,0.9-0.8,1.6
		c0,0.3,0.1,0.6,0.2,0.8c0.1,0.2,0.3,0.4,0.5,0.5s0.6,0.3,1,0.4c0.4,0.1,0.9,0.2,1.4,0.4c0.9,0.2,1.6,0.4,2.3,0.6
		c0.6,0.2,1.2,0.5,1.6,0.7c0.4,0.3,0.7,0.6,1,1c0.2,0.4,0.3,0.8,0.3,1.4c0,1.2-0.5,2.2-1.4,2.9C110.6,487.5,109.3,487.9,107.7,487.9
		z"/>
	<path d="M121.4,487.9c-1,0-1.9-0.2-2.7-0.5s-1.5-0.9-2.1-1.5c-0.6-0.6-1-1.3-1.3-2.1c-0.3-0.8-0.5-1.7-0.5-2.6
		c0-0.9,0.2-1.8,0.5-2.6c0.3-0.8,0.8-1.5,1.3-2.2c0.6-0.6,1.3-1.1,2.1-1.5c0.8-0.4,1.7-0.6,2.7-0.6s1.9,0.2,2.7,0.6
		c0.8,0.4,1.5,0.9,2.1,1.5c0.6,0.6,1,1.3,1.4,2.2s0.5,1.7,0.5,2.6c0,0.9-0.2,1.8-0.5,2.6s-0.8,1.5-1.3,2.1c-0.6,0.6-1.3,1.1-2.1,1.5
		S122.4,487.9,121.4,487.9z M117.1,481.2c0,0.7,0.1,1.3,0.3,1.9c0.2,0.6,0.5,1.1,0.9,1.5c0.4,0.4,0.8,0.8,1.4,1s1.1,0.4,1.7,0.4
		s1.2-0.1,1.7-0.4s1-0.6,1.4-1c0.4-0.4,0.7-1,0.9-1.5c0.2-0.6,0.3-1.2,0.3-1.9c0-0.7-0.1-1.3-0.3-1.9c-0.2-0.6-0.5-1.1-0.9-1.6
		c-0.4-0.4-0.9-0.8-1.4-1s-1.1-0.4-1.7-0.4s-1.2,0.1-1.7,0.4s-1,0.6-1.4,1c-0.4,0.4-0.7,1-0.9,1.5
		C117.2,479.9,117.1,480.5,117.1,481.2z"/>
	<path d="M142.3,487.7h-2.2v-7.3c0-1.4-0.2-2.4-0.6-3c-0.4-0.6-1.1-1-1.9-1c-0.5,0-0.9,0.1-1.4,0.3c-0.4,0.2-0.9,0.4-1.3,0.7
		c-0.4,0.3-0.8,0.7-1,1.1c-0.3,0.4-0.5,0.9-0.7,1.4v7.9H131v-13h2v2.8c0.5-0.9,1.3-1.7,2.2-2.2c1-0.5,2-0.8,3.2-0.8
		c0.8,0,1.4,0.1,1.9,0.4c0.5,0.3,0.9,0.7,1.2,1.1c0.3,0.5,0.5,1.1,0.6,1.7c0.1,0.7,0.2,1.4,0.2,2.2V487.7z"/>
	<path d="M155.2,487.7l-4.5-6.4l-2.5,2.3v4H146v-18.2h2.2v12l6.7-6.8h2.4l-5.2,5.4l5.4,7.6H155.2z"/>
	<path d="M164.8,487.9c-1,0-1.9-0.2-2.7-0.5c-0.8-0.4-1.5-0.8-2.1-1.5c-0.6-0.6-1-1.3-1.4-2.2c-0.3-0.8-0.5-1.7-0.5-2.6
		c0-0.9,0.2-1.8,0.5-2.6c0.3-0.8,0.8-1.5,1.4-2.2c0.6-0.6,1.3-1.1,2.1-1.5c0.8-0.4,1.7-0.5,2.7-0.5c1,0,1.9,0.2,2.7,0.6
		c0.8,0.4,1.5,0.9,2.1,1.5s1,1.3,1.3,2.1c0.3,0.8,0.5,1.6,0.5,2.5c0,0.2,0,0.3,0,0.5c0,0.2,0,0.3,0,0.3h-10.8c0,0.7,0.2,1.2,0.4,1.8
		s0.6,1,1,1.4c0.4,0.4,0.9,0.7,1.4,0.9c0.5,0.2,1,0.3,1.6,0.3c0.4,0,0.8-0.1,1.2-0.2s0.7-0.3,1.1-0.4s0.6-0.4,0.9-0.7
		c0.3-0.3,0.5-0.6,0.6-0.9l1.9,0.5c-0.2,0.5-0.5,0.9-0.9,1.3c-0.4,0.4-0.8,0.7-1.3,1c-0.5,0.3-1,0.5-1.6,0.7
		S165.4,487.9,164.8,487.9z M169.3,480.3c0-0.6-0.2-1.2-0.5-1.7c-0.3-0.5-0.6-1-1-1.3c-0.4-0.4-0.8-0.7-1.4-0.9
		c-0.5-0.2-1.1-0.3-1.7-0.3c-0.6,0-1.1,0.1-1.7,0.3c-0.5,0.2-1,0.5-1.4,0.9s-0.7,0.8-1,1.3s-0.4,1.1-0.4,1.7H169.3z"/>
	<path d="M185.2,487.9c-1.1,0-2.1-0.2-3.1-0.5s-1.9-0.8-2.6-1.4l1-1.5c0.8,0.6,1.5,1,2.3,1.3c0.8,0.3,1.6,0.4,2.4,0.4
		c1,0,1.7-0.2,2.3-0.6c0.6-0.4,0.8-0.9,0.8-1.6c0-0.3-0.1-0.6-0.2-0.8c-0.2-0.2-0.4-0.4-0.7-0.6s-0.7-0.3-1.1-0.5
		c-0.5-0.1-1-0.3-1.6-0.4c-0.8-0.2-1.5-0.4-2-0.6s-1-0.4-1.4-0.7s-0.6-0.5-0.8-0.9c-0.2-0.4-0.2-0.8-0.2-1.3c0-0.7,0.1-1.2,0.4-1.7
		c0.3-0.5,0.6-0.9,1.1-1.3c0.4-0.3,1-0.6,1.6-0.8c0.6-0.2,1.3-0.3,2-0.3c1,0,1.9,0.2,2.8,0.5s1.6,0.7,2.1,1.2l-1,1.3
		c-0.5-0.5-1.2-0.8-1.8-1.1c-0.7-0.2-1.4-0.4-2.1-0.4c-0.8,0-1.5,0.2-2,0.5c-0.6,0.3-0.8,0.9-0.8,1.6c0,0.3,0.1,0.6,0.2,0.8
		c0.1,0.2,0.3,0.4,0.5,0.5s0.6,0.3,1,0.4c0.4,0.1,0.9,0.2,1.4,0.4c0.9,0.2,1.6,0.4,2.3,0.6c0.6,0.2,1.2,0.5,1.6,0.7
		c0.4,0.3,0.7,0.6,0.9,1c0.2,0.4,0.3,0.8,0.3,1.4c0,1.2-0.5,2.2-1.4,2.9C188,487.5,186.8,487.9,185.2,487.9z"/>
	<path d="M193.2,472.2v-2.8h2.2v2.8H193.2z M193.2,487.7v-13h2.2v13H193.2z"/>
	<path d="M199.8,491.2c0.2,0,0.4,0.1,0.6,0.1s0.4,0,0.5,0c0.2,0,0.4,0,0.5-0.1c0.2-0.1,0.3-0.3,0.5-0.5c0.2-0.3,0.3-0.6,0.5-1.1
		c0.2-0.5,0.4-1.1,0.8-1.9l-5.5-13h2.3l4.4,11.1l4.1-11.1h2.1l-6.3,16.5c-0.2,0.6-0.6,1.1-1.2,1.5c-0.5,0.4-1.3,0.7-2.2,0.7
		c-0.2,0-0.3,0-0.5,0s-0.4,0-0.6-0.1V491.2z"/>
	<path d="M216.1,487.9c-0.6,0-1.2-0.1-1.7-0.3s-1-0.5-1.4-0.9c-0.4-0.4-0.7-0.8-0.9-1.3c-0.2-0.5-0.3-1-0.3-1.6
		c0-0.6,0.1-1.1,0.4-1.6c0.3-0.5,0.6-0.9,1.1-1.3c0.5-0.4,1.1-0.6,1.8-0.8c0.7-0.2,1.4-0.3,2.2-0.3c0.6,0,1.3,0.1,1.9,0.2
		s1.2,0.3,1.7,0.5v-1c0-1.1-0.3-1.9-0.9-2.5s-1.5-0.9-2.5-0.9c-1.3,0-2.7,0.5-4.2,1.5l-0.7-1.4c1.7-1.1,3.4-1.7,5.1-1.7
		c1.7,0,3.1,0.5,4,1.4c1,0.9,1.4,2.2,1.4,3.9v5.3c0,0.5,0.2,0.8,0.7,0.8v1.9c-0.2,0-0.4,0.1-0.6,0.1c-0.2,0-0.3,0-0.5,0
		c-0.4,0-0.8-0.1-1-0.4c-0.3-0.3-0.4-0.6-0.5-0.9l0-0.9c-0.6,0.8-1.3,1.4-2.2,1.8S217.1,487.9,216.1,487.9z M216.7,486.3
		c0.8,0,1.5-0.1,2.2-0.4c0.7-0.3,1.2-0.7,1.5-1.2c0.3-0.3,0.5-0.6,0.5-1v-1.9c-1.1-0.4-2.2-0.6-3.3-0.6c-1.1,0-2,0.2-2.7,0.7
		c-0.7,0.5-1,1.1-1,1.8c0,0.4,0.1,0.7,0.2,1s0.3,0.6,0.6,0.8c0.3,0.2,0.6,0.4,0.9,0.6C215.9,486.2,216.3,486.3,216.7,486.3z"/>
	<path d="M240.4,487.9c-1.1,0-2-0.3-2.9-0.8c-0.8-0.5-1.5-1.2-2-2v7.9h-2.2v-18.4h2v2.5c0.5-0.8,1.2-1.4,2-1.9
		c0.8-0.5,1.7-0.7,2.7-0.7c0.9,0,1.7,0.2,2.5,0.6c0.8,0.4,1.4,0.9,2,1.5s1,1.3,1.3,2.2c0.3,0.8,0.5,1.7,0.5,2.5
		c0,0.9-0.1,1.8-0.4,2.6s-0.7,1.5-1.2,2.2s-1.1,1.1-1.9,1.5C242.1,487.7,241.3,487.9,240.4,487.9z M239.8,486c0.6,0,1.2-0.1,1.8-0.4
		s1-0.6,1.3-1.1c0.4-0.5,0.7-1,0.9-1.6c0.2-0.6,0.3-1.2,0.3-1.8c0-0.6-0.1-1.3-0.4-1.9c-0.2-0.6-0.5-1.1-0.9-1.5s-0.9-0.8-1.4-1
		c-0.5-0.3-1.1-0.4-1.8-0.4c-0.4,0-0.8,0.1-1.2,0.2c-0.4,0.2-0.8,0.4-1.2,0.6c-0.4,0.3-0.7,0.6-1,0.9c-0.3,0.4-0.5,0.7-0.5,1.1v3.7
		c0.2,0.4,0.4,0.8,0.7,1.2s0.6,0.7,1,1c0.4,0.3,0.8,0.5,1.2,0.6C238.9,485.9,239.3,486,239.8,486z"/>
	<path d="M260.6,487.7h-2.2v-7.3c0-1.4-0.2-2.4-0.7-3c-0.5-0.7-1.2-1-2-1c-0.4,0-0.9,0.1-1.3,0.3c-0.4,0.2-0.8,0.4-1.2,0.7
		s-0.7,0.7-1,1.1c-0.3,0.4-0.5,0.9-0.7,1.4v7.9h-2.2v-18.2h2.2v8c0.5-1,1.2-1.7,2.1-2.2c0.9-0.5,1.8-0.8,2.9-0.8
		c0.8,0,1.4,0.1,2,0.4s1,0.7,1.3,1.1c0.3,0.5,0.5,1.1,0.7,1.7c0.1,0.7,0.2,1.4,0.2,2.2V487.7z"/>
	<path d="M267.6,487.9c-0.6,0-1.2-0.1-1.7-0.3c-0.5-0.2-1-0.5-1.4-0.9s-0.7-0.8-0.9-1.3c-0.2-0.5-0.3-1-0.3-1.6
		c0-0.6,0.1-1.1,0.4-1.6c0.3-0.5,0.6-0.9,1.1-1.3c0.5-0.4,1.1-0.6,1.8-0.8c0.7-0.2,1.4-0.3,2.2-0.3c0.6,0,1.3,0.1,1.9,0.2
		c0.7,0.1,1.2,0.3,1.7,0.5v-1c0-1.1-0.3-1.9-0.9-2.5s-1.5-0.9-2.5-0.9c-1.3,0-2.7,0.5-4.2,1.5l-0.7-1.4c1.7-1.1,3.4-1.7,5.1-1.7
		c1.7,0,3.1,0.5,4,1.4c1,0.9,1.4,2.2,1.4,3.9v5.3c0,0.5,0.2,0.8,0.7,0.8v1.9c-0.2,0-0.4,0.1-0.6,0.1c-0.1,0-0.3,0-0.5,0
		c-0.4,0-0.8-0.1-1-0.4c-0.3-0.3-0.4-0.6-0.5-0.9l0-0.9c-0.6,0.8-1.3,1.4-2.2,1.8S268.6,487.9,267.6,487.9z M268.2,486.3
		c0.8,0,1.5-0.1,2.2-0.4c0.7-0.3,1.2-0.7,1.5-1.2c0.3-0.3,0.5-0.6,0.5-1v-1.9c-1.1-0.4-2.2-0.6-3.3-0.6c-1.1,0-2,0.2-2.7,0.7
		c-0.7,0.5-1,1.1-1,1.8c0,0.4,0.1,0.7,0.2,1s0.3,0.6,0.6,0.8c0.3,0.2,0.6,0.4,0.9,0.6C267.4,486.2,267.8,486.3,268.2,486.3z"/>
	<path d="M298,487.7h-2.2v-7.3c0-1.4-0.2-2.4-0.7-3c-0.4-0.6-1.1-1-2-1c-0.9,0-1.7,0.3-2.4,1c-0.7,0.6-1.2,1.5-1.5,2.5v7.8h-2.2
		v-7.3c0-1.4-0.2-2.4-0.7-3c-0.4-0.6-1.1-1-1.9-1c-0.9,0-1.7,0.3-2.4,0.9s-1.2,1.5-1.5,2.5v7.9h-2.2v-13h2v2.8
		c0.5-1,1.2-1.7,2.1-2.2c0.9-0.5,1.8-0.8,2.9-0.8c1.1,0,2,0.3,2.6,0.9c0.6,0.6,1,1.4,1.2,2.3c1.2-2.1,2.8-3.2,5-3.2
		c0.8,0,1.4,0.1,1.9,0.4c0.5,0.3,0.9,0.7,1.2,1.1c0.3,0.5,0.5,1.1,0.7,1.7c0.1,0.7,0.2,1.4,0.2,2.2V487.7z"/>
	<path d="M308.4,487.9c-1,0-1.9-0.2-2.8-0.8c-0.8-0.5-1.5-1.2-2-2v2.5h-2v-18.2h2.2v7.8c0.5-0.8,1.2-1.5,2-2
		c0.8-0.5,1.7-0.8,2.8-0.8c0.9,0,1.7,0.2,2.4,0.6c0.7,0.4,1.3,0.9,1.8,1.5c0.5,0.6,0.9,1.3,1.2,2.2s0.4,1.7,0.4,2.5
		c0,0.9-0.2,1.8-0.5,2.6s-0.8,1.5-1.3,2.1c-0.5,0.6-1.2,1.1-2,1.5C310.1,487.7,309.3,487.9,308.4,487.9z M307.8,486
		c0.7,0,1.2-0.1,1.8-0.4s1-0.6,1.4-1.1s0.7-1,0.9-1.5c0.2-0.6,0.3-1.2,0.3-1.8c0-0.6-0.1-1.2-0.3-1.8s-0.5-1.1-0.9-1.6
		s-0.8-0.8-1.3-1.1c-0.5-0.3-1.1-0.4-1.7-0.4c-0.5,0-0.9,0.1-1.3,0.2c-0.4,0.2-0.8,0.4-1.2,0.7c-0.4,0.3-0.7,0.6-1,1
		c-0.3,0.4-0.5,0.8-0.7,1.2v3.8c0.1,0.4,0.3,0.8,0.5,1.1c0.3,0.4,0.6,0.7,1,0.9s0.8,0.5,1.2,0.6C307,485.9,307.4,486,307.8,486z"/>
	<path d="M317.5,472.2v-2.8h2.2v2.8H317.5z M317.5,487.7v-13h2.2v13H317.5z"/>
	<path d="M323.6,469.4h2.2v14.9c0,0.5,0.1,0.9,0.4,1.1c0.3,0.3,0.6,0.4,1.1,0.4c0.2,0,0.4,0,0.6-0.1s0.5-0.1,0.7-0.2l0.3,1.8
		c-0.4,0.1-0.8,0.3-1.3,0.4c-0.5,0.1-0.9,0.1-1.3,0.1c-0.8,0-1.5-0.2-2-0.7s-0.7-1.2-0.7-2V469.4z"/>
	<path d="M330.9,472.2v-2.8h2.2v2.8H330.9z M330.9,487.7v-13h2.2v13H330.9z"/>
</g>
<g>
	<path d="M135.8,515.5c-1.1,0-2.1-0.2-3.1-0.5s-1.9-0.8-2.6-1.4l1-1.5c0.8,0.6,1.5,1,2.3,1.3c0.8,0.3,1.6,0.4,2.4,0.4
		c1,0,1.7-0.2,2.3-0.6c0.6-0.4,0.8-0.9,0.8-1.6c0-0.3-0.1-0.6-0.2-0.8c-0.2-0.2-0.4-0.4-0.7-0.6s-0.7-0.3-1.1-0.5
		c-0.5-0.1-1-0.3-1.6-0.4c-0.8-0.2-1.5-0.4-2-0.6s-1-0.4-1.4-0.7s-0.6-0.5-0.8-0.9c-0.2-0.4-0.2-0.8-0.2-1.3c0-0.7,0.1-1.2,0.4-1.7
		c0.3-0.5,0.6-0.9,1.1-1.3c0.4-0.3,1-0.6,1.6-0.8c0.6-0.2,1.3-0.3,2-0.3c1,0,1.9,0.2,2.8,0.5s1.6,0.7,2.1,1.2l-1,1.3
		c-0.5-0.5-1.2-0.8-1.8-1.1c-0.7-0.2-1.4-0.4-2.1-0.4c-0.8,0-1.5,0.2-2,0.5c-0.6,0.3-0.8,0.9-0.8,1.6c0,0.3,0.1,0.6,0.2,0.8
		c0.1,0.2,0.3,0.4,0.5,0.5s0.6,0.3,1,0.4c0.4,0.1,0.9,0.2,1.4,0.4c0.9,0.2,1.6,0.4,2.3,0.6c0.6,0.2,1.2,0.5,1.6,0.7
		c0.4,0.3,0.7,0.6,0.9,1c0.2,0.4,0.3,0.8,0.3,1.4c0,1.2-0.5,2.2-1.4,2.9C138.6,515.2,137.4,515.5,135.8,515.5z"/>
	<path d="M147.1,515.5c-0.6,0-1.2-0.1-1.7-0.3s-1-0.5-1.4-0.9c-0.4-0.4-0.7-0.8-0.9-1.3c-0.2-0.5-0.3-1-0.3-1.6
		c0-0.6,0.1-1.1,0.4-1.6c0.3-0.5,0.6-0.9,1.1-1.3c0.5-0.4,1.1-0.6,1.8-0.8c0.7-0.2,1.4-0.3,2.2-0.3c0.6,0,1.3,0.1,1.9,0.2
		s1.2,0.3,1.7,0.5v-1c0-1.1-0.3-1.9-0.9-2.5s-1.5-0.9-2.5-0.9c-1.3,0-2.7,0.5-4.2,1.5l-0.7-1.4c1.7-1.1,3.4-1.7,5.1-1.7
		c1.7,0,3.1,0.5,4,1.4c1,0.9,1.4,2.2,1.4,3.9v5.3c0,0.5,0.2,0.8,0.7,0.8v1.9c-0.2,0-0.4,0.1-0.6,0.1c-0.2,0-0.3,0-0.5,0
		c-0.4,0-0.8-0.1-1-0.4c-0.3-0.3-0.4-0.6-0.5-0.9l0-0.9c-0.6,0.8-1.3,1.4-2.2,1.8S148.2,515.5,147.1,515.5z M147.7,513.9
		c0.8,0,1.5-0.1,2.2-0.4c0.7-0.3,1.2-0.7,1.5-1.2c0.3-0.3,0.5-0.6,0.5-1v-1.9c-1.1-0.4-2.2-0.6-3.3-0.6c-1.1,0-2,0.2-2.7,0.7
		c-0.7,0.5-1,1.1-1,1.8c0,0.4,0.1,0.7,0.2,1s0.3,0.6,0.6,0.8c0.3,0.2,0.6,0.4,0.9,0.6C146.9,513.8,147.3,513.9,147.7,513.9z"/>
	<path d="M161.2,515.5c-0.6,0-1.2-0.1-1.7-0.3s-1-0.5-1.4-0.9c-0.4-0.4-0.7-0.8-0.9-1.3c-0.2-0.5-0.3-1-0.3-1.6
		c0-0.6,0.1-1.1,0.4-1.6c0.3-0.5,0.6-0.9,1.1-1.3c0.5-0.4,1.1-0.6,1.8-0.8c0.7-0.2,1.4-0.3,2.2-0.3c0.6,0,1.3,0.1,1.9,0.2
		s1.2,0.3,1.7,0.5v-1c0-1.1-0.3-1.9-0.9-2.5s-1.5-0.9-2.5-0.9c-1.3,0-2.7,0.5-4.2,1.5l-0.7-1.4c1.7-1.1,3.4-1.7,5.1-1.7
		c1.7,0,3.1,0.5,4,1.4c1,0.9,1.4,2.2,1.4,3.9v5.3c0,0.5,0.2,0.8,0.7,0.8v1.9c-0.2,0-0.4,0.1-0.6,0.1c-0.2,0-0.3,0-0.5,0
		c-0.4,0-0.8-0.1-1-0.4c-0.3-0.3-0.4-0.6-0.5-0.9l0-0.9c-0.6,0.8-1.3,1.4-2.2,1.8S162.3,515.5,161.2,515.5z M161.8,513.9
		c0.8,0,1.5-0.1,2.2-0.4c0.7-0.3,1.2-0.7,1.5-1.2c0.3-0.3,0.5-0.6,0.5-1v-1.9c-1.1-0.4-2.2-0.6-3.3-0.6c-1.1,0-2,0.2-2.7,0.7
		c-0.7,0.5-1,1.1-1,1.8c0,0.4,0.1,0.7,0.2,1s0.3,0.6,0.6,0.8c0.3,0.2,0.6,0.4,0.9,0.6C161,513.8,161.4,513.9,161.8,513.9z"/>
	<path d="M191.7,515.3h-2.2V508c0-1.4-0.2-2.4-0.7-3c-0.4-0.6-1.1-1-2-1c-0.9,0-1.7,0.3-2.4,1c-0.7,0.6-1.2,1.5-1.5,2.5v7.8h-2.2
		V508c0-1.4-0.2-2.4-0.6-3c-0.4-0.6-1.1-1-2-1c-0.9,0-1.7,0.3-2.4,0.9c-0.7,0.6-1.2,1.5-1.5,2.5v7.9H172v-13h2v2.8
		c0.5-1,1.2-1.7,2.1-2.2c0.8-0.5,1.8-0.8,2.9-0.8c1.1,0,2,0.3,2.6,0.9c0.6,0.6,1,1.4,1.2,2.3c1.2-2.1,2.8-3.2,5-3.2
		c0.8,0,1.4,0.1,1.9,0.4c0.5,0.3,0.9,0.7,1.2,1.1c0.3,0.5,0.5,1.1,0.6,1.7c0.1,0.7,0.2,1.4,0.2,2.2V515.3z"/>
	<path d="M205,515.3l-5.2-13h2.3l4.1,11.1l4.2-11.1h2.1l-5.2,13H205z"/>
	<path d="M220.2,515.5c-1,0-1.9-0.2-2.7-0.5c-0.8-0.4-1.5-0.9-2.1-1.5c-0.6-0.6-1-1.3-1.3-2.1c-0.3-0.8-0.5-1.7-0.5-2.6
		c0-0.9,0.2-1.8,0.5-2.6c0.3-0.8,0.8-1.5,1.3-2.2c0.6-0.6,1.3-1.1,2.1-1.5c0.8-0.4,1.7-0.6,2.7-0.6c1,0,1.9,0.2,2.7,0.6
		c0.8,0.4,1.5,0.9,2.1,1.5c0.6,0.6,1,1.3,1.3,2.2c0.3,0.8,0.5,1.7,0.5,2.6c0,0.9-0.2,1.8-0.5,2.6c-0.3,0.8-0.8,1.5-1.4,2.1
		c-0.6,0.6-1.3,1.1-2.1,1.5C222.1,515.3,221.2,515.5,220.2,515.5z M215.9,508.8c0,0.7,0.1,1.3,0.3,1.9c0.2,0.6,0.5,1.1,0.9,1.5
		c0.4,0.4,0.8,0.8,1.4,1c0.5,0.2,1.1,0.4,1.7,0.4c0.6,0,1.2-0.1,1.7-0.4c0.5-0.2,1-0.6,1.4-1s0.7-1,0.9-1.5s0.3-1.2,0.3-1.9
		c0-0.7-0.1-1.3-0.3-1.9s-0.5-1.1-0.9-1.6c-0.4-0.4-0.9-0.8-1.4-1c-0.5-0.2-1.1-0.4-1.7-0.4c-0.6,0-1.2,0.1-1.7,0.4
		c-0.5,0.3-1,0.6-1.4,1c-0.4,0.4-0.7,1-0.9,1.5C216,507.5,215.9,508.1,215.9,508.8z"/>
	<path d="M236.6,504.1c-1.1,0-2.1,0.3-2.9,0.8c-0.8,0.5-1.4,1.3-1.8,2.2v8h-2.2v-13h2v3c0.5-0.9,1-1.6,1.8-2.2
		c0.7-0.6,1.5-0.9,2.3-0.9c0.2,0,0.3,0,0.4,0c0.1,0,0.2,0,0.3,0V504.1z"/>
	<path d="M244.5,515.5c-1,0-1.9-0.2-2.7-0.5c-0.8-0.4-1.5-0.8-2.1-1.5c-0.6-0.6-1-1.3-1.4-2.2c-0.3-0.8-0.5-1.7-0.5-2.6
		c0-0.9,0.2-1.8,0.5-2.6c0.3-0.8,0.8-1.5,1.4-2.2c0.6-0.6,1.3-1.1,2.1-1.5c0.8-0.4,1.7-0.5,2.7-0.5c1,0,1.9,0.2,2.7,0.6
		c0.8,0.4,1.5,0.9,2.1,1.5s1,1.3,1.3,2.1c0.3,0.8,0.5,1.6,0.5,2.5c0,0.2,0,0.3,0,0.5c0,0.2,0,0.3,0,0.3h-10.8c0,0.7,0.2,1.2,0.4,1.8
		s0.6,1,1,1.4c0.4,0.4,0.9,0.7,1.4,0.9c0.5,0.2,1,0.3,1.6,0.3c0.4,0,0.8-0.1,1.2-0.2s0.7-0.3,1.1-0.4s0.6-0.4,0.9-0.7
		c0.3-0.3,0.5-0.6,0.6-0.9l1.9,0.5c-0.2,0.5-0.5,0.9-0.9,1.3c-0.4,0.4-0.8,0.7-1.3,1c-0.5,0.3-1,0.5-1.6,0.7
		S245.2,515.5,244.5,515.5z M249,507.9c0-0.6-0.2-1.2-0.5-1.7c-0.3-0.5-0.6-1-1-1.3c-0.4-0.4-0.8-0.7-1.4-0.9
		c-0.5-0.2-1.1-0.3-1.7-0.3c-0.6,0-1.1,0.1-1.7,0.3c-0.5,0.2-1,0.5-1.4,0.9s-0.7,0.8-1,1.3s-0.4,1.1-0.4,1.7H249z"/>
	<path d="M265.1,515.3h-2.2V508c0-1.4-0.2-2.4-0.6-3c-0.4-0.6-1.1-1-1.9-1c-0.5,0-0.9,0.1-1.4,0.3c-0.5,0.2-0.9,0.4-1.3,0.7
		c-0.4,0.3-0.8,0.7-1.1,1.1c-0.3,0.4-0.5,0.9-0.7,1.4v7.9h-2.2v-13h2v2.8c0.5-0.9,1.3-1.7,2.2-2.2c1-0.5,2-0.8,3.2-0.8
		c0.8,0,1.4,0.1,1.9,0.4c0.5,0.3,0.9,0.7,1.2,1.1c0.3,0.5,0.5,1.1,0.6,1.7c0.1,0.7,0.2,1.4,0.2,2.2V515.3z"/>
	<path d="M275.4,514.6c-0.1,0.1-0.3,0.1-0.5,0.2s-0.5,0.2-0.7,0.3c-0.3,0.1-0.6,0.2-0.9,0.2c-0.3,0.1-0.7,0.1-1,0.1
		c-0.8,0-1.5-0.2-2.1-0.7s-0.9-1.1-0.9-2.1v-8.8h-1.8v-1.7h1.8v-4.4h2.2v4.4h2.9v1.7h-2.9v8.1c0,0.5,0.2,0.8,0.5,1
		c0.3,0.2,0.6,0.3,1,0.3c0.4,0,0.8-0.1,1.2-0.2c0.4-0.1,0.6-0.3,0.7-0.3L275.4,514.6z"/>
	<path d="M283.2,515.5c-1,0-1.9-0.2-2.7-0.5c-0.8-0.4-1.5-0.9-2.1-1.5c-0.6-0.6-1-1.3-1.3-2.1c-0.3-0.8-0.5-1.7-0.5-2.6
		c0-0.9,0.2-1.8,0.5-2.6c0.3-0.8,0.8-1.5,1.3-2.2c0.6-0.6,1.3-1.1,2.1-1.5c0.8-0.4,1.7-0.6,2.7-0.6c1,0,1.9,0.2,2.7,0.6
		c0.8,0.4,1.5,0.9,2.1,1.5c0.6,0.6,1,1.3,1.3,2.2c0.3,0.8,0.5,1.7,0.5,2.6c0,0.9-0.2,1.8-0.5,2.6c-0.3,0.8-0.8,1.5-1.4,2.1
		c-0.6,0.6-1.3,1.1-2.1,1.5C285.1,515.3,284.2,515.5,283.2,515.5z M278.9,508.8c0,0.7,0.1,1.3,0.3,1.9c0.2,0.6,0.5,1.1,0.9,1.5
		c0.4,0.4,0.8,0.8,1.4,1c0.5,0.2,1.1,0.4,1.7,0.4c0.6,0,1.2-0.1,1.7-0.4c0.5-0.2,1-0.6,1.4-1s0.7-1,0.9-1.5s0.3-1.2,0.3-1.9
		c0-0.7-0.1-1.3-0.3-1.9s-0.5-1.1-0.9-1.6c-0.4-0.4-0.9-0.8-1.4-1c-0.5-0.2-1.1-0.4-1.7-0.4c-0.6,0-1.2,0.1-1.7,0.4
		c-0.5,0.3-1,0.6-1.4,1c-0.4,0.4-0.7,1-0.9,1.5C279,507.5,278.9,508.1,278.9,508.8z"/>
	<path d="M298.5,515.5c-1,0-1.9-0.2-2.7-0.5c-0.8-0.4-1.5-0.8-2.1-1.5c-0.6-0.6-1-1.3-1.4-2.2c-0.3-0.8-0.5-1.7-0.5-2.6
		c0-0.9,0.2-1.8,0.5-2.6c0.3-0.8,0.8-1.5,1.4-2.2c0.6-0.6,1.3-1.1,2.1-1.5c0.8-0.4,1.7-0.5,2.7-0.5s1.9,0.2,2.7,0.6
		c0.8,0.4,1.5,0.9,2.1,1.5s1,1.3,1.3,2.1c0.3,0.8,0.5,1.6,0.5,2.5c0,0.2,0,0.3,0,0.5s0,0.3,0,0.3h-10.8c0,0.7,0.2,1.2,0.4,1.8
		s0.6,1,1,1.4c0.4,0.4,0.9,0.7,1.4,0.9s1,0.3,1.6,0.3c0.4,0,0.8-0.1,1.2-0.2c0.4-0.1,0.7-0.3,1.1-0.4c0.3-0.2,0.6-0.4,0.9-0.7
		s0.5-0.6,0.6-0.9l1.9,0.5c-0.2,0.5-0.5,0.9-0.9,1.3c-0.4,0.4-0.8,0.7-1.3,1c-0.5,0.3-1,0.5-1.6,0.7
		C299.8,515.4,299.2,515.5,298.5,515.5z M303,507.9c0-0.6-0.2-1.2-0.5-1.7c-0.3-0.5-0.6-1-1-1.3c-0.4-0.4-0.8-0.7-1.4-0.9
		c-0.5-0.2-1.1-0.3-1.7-0.3s-1.1,0.1-1.7,0.3c-0.5,0.2-1,0.5-1.4,0.9c-0.4,0.4-0.7,0.8-1,1.3c-0.2,0.5-0.4,1.1-0.4,1.7H303z"/>
</g>
</svg>
