<svg xmlns="http://www.w3.org/2000/svg" viewBox="155 74 122 160" aria-hidden="true" focusable="false">
  <path fill="#caa258" d="M224.25,103.89c0-14.86,6.42-22.27,9.97-25.65l-.4-.71h-74.31v8.22h3.75v72.27c0,9.76.28,23.2,5.8,35.7,5.43,12.29,13.15,21.46,26.55,21.46s27.67-14.56,10.71-37.35c-12.61-16.95-34.67-32.3-34.67-67.45,0-14.6,5.3-22.09,7.59-24.64h15.11c-1.71,2.32-6.44,9.92-6.44,22.89,0,42.35,43.82,56.13,43.82,87.21,0,14.82-11.82,30.57-25.04,32.57l-.21,1.33c3.53,1.35,7.42,2.35,11.06,2.99,5.17-.22,48.66-12.22,48.66-50.02s-41.95-46.37-41.95-78.82ZM172.2,147.44c.1-.02.42-.22.51-.23,6.69,15.92,23.7,30,29.26,43.32,3.96,9.49.36,16.15-6.23,16.15-15.2,0-23.55-22.31-23.55-47.57v-11.67ZM229.96,221.07c-.15-.15-.19-.25-.3-.37,5.78-4.5,12.64-13.03,12.64-25.04,0-35.57-44.62-49.02-44.62-88.27,0-11.87,4.83-19.32,6.58-21.62h14.38c-1.49,2.6-4.33,9.25-4.33,19.1,0,35.86,41.76,46.51,41.76,79.28,0,19.24-16.26,33.44-26.12,36.94Z"/>
  <path fill="#caa258" d="M159.82,77.54c-.07,0-.13,0-.18,0,.03,0,.06,0,.09,0,.03,0,.06,0,.09,0Z"/>
  <path fill="#caa258" d="M265.91,77.53c-6.43,0-11.66,1.32-16.42,4.95-1.12.86-9.35,7.52-9.35,18.42,0,13.24,8.73,23.13,18.26,32.67,7.38,7.38,10.97,12.08,12.48,14.64l.95-.27v-62.19h3.77c0-.16,0-8.47,0-8.22h-9.7ZM262.98,126.59c-.07.02-.3.13-.41.16-3.96-5.27-13.87-14.49-13.87-25.94,0-6.61,4.47-12.6,9.18-14.25,1.42-.49,2.77-.54,4.25-.54.54,0,.3,0,.86,0v40.57Z"/>
</svg>
