<?xml version="1.0" encoding="UTF-8"?><svg id="Layer_1" xmlns="http://www.w3.org/2000/svg" viewBox="0 0 913.89 113.39"><defs><style>.cls-1{fill:#caa258;}</style></defs><path class="cls-1" d="M147.22,62.87v-10.84h-1.7v-1.65h1.7v-.26c0-1.55.34-2.76,1.03-3.64.69-.88,1.62-1.32,2.8-1.32.49,0,.98.07,1.46.2.48.14.91.32,1.29.56l-.53,1.55c-.22-.16-.5-.29-.83-.38-.33-.1-.65-.14-.97-.14-.7,0-1.24.26-1.6.79-.37.53-.55,1.29-.55,2.3v.34h3.32v1.65h-3.32v10.84h-2.1Z"/><path class="cls-1" d="M160.16,63.11c-.94,0-1.8-.18-2.57-.53-.77-.35-1.44-.82-1.99-1.41-.55-.59-.98-1.28-1.28-2.06s-.45-1.6-.45-2.46.16-1.71.47-2.49c.31-.78.74-1.47,1.29-2.06.55-.59,1.21-1.06,1.98-1.41.77-.35,1.62-.53,2.55-.53s1.78.18,2.56.53c.78.35,1.45.82,2,1.41.55.59.98,1.28,1.29,2.06.31.78.47,1.61.47,2.49s-.15,1.68-.46,2.46c-.3.78-.73,1.47-1.29,2.06-.56.59-1.22,1.06-2,1.41-.77.35-1.63.53-2.57.53ZM156.02,56.67c0,.65.11,1.26.32,1.82.21.56.51,1.04.88,1.46.37.41.81.74,1.32.98.5.24,1.04.36,1.61.36s1.11-.12,1.61-.36.94-.57,1.33-.99.68-.92.9-1.48.32-1.18.32-1.83-.11-1.24-.32-1.81-.51-1.06-.9-1.48c-.38-.42-.83-.75-1.33-.99-.5-.24-1.04-.36-1.61-.36s-1.11.12-1.61.37c-.5.25-.94.58-1.32,1-.37.42-.67.92-.88,1.48-.21.57-.32,1.18-.32,1.83Z"/><path class="cls-1" d="M175.88,52.22c-1.05.03-1.98.3-2.79.81-.81.51-1.38,1.22-1.71,2.13v7.7h-2.11v-12.49h1.96v2.89c.43-.86,1-1.56,1.7-2.09.7-.53,1.45-.83,2.25-.9h.41c.11,0,.21,0,.29.02v1.91Z"/><path class="cls-1" d="M194.03,50.38h2.03l-5.31,12.49h-1.75l-2.51-6.1-2.49,6.1h-1.75l-5.31-12.49h2.01l4.31,10.41,2.1-5.19-2.15-5.19h1.75l1.53,4,1.53-4h1.75l-2.13,5.19,2.11,5.19,4.28-10.41Z"/><path class="cls-1" d="M200.97,63.11c-.59,0-1.14-.1-1.65-.3-.51-.2-.95-.47-1.33-.83-.38-.35-.67-.76-.89-1.23-.21-.47-.32-.98-.32-1.54s.13-1.1.38-1.57c.26-.47.62-.87,1.09-1.21.47-.34,1.03-.6,1.67-.79.65-.19,1.35-.29,2.12-.29.61,0,1.22.06,1.84.17.62.11,1.17.26,1.65.45v-1c0-1.02-.29-1.82-.86-2.4-.57-.58-1.39-.87-2.44-.87-1.26,0-2.58.49-3.97,1.46l-.69-1.36c1.61-1.08,3.23-1.63,4.86-1.63s2.92.44,3.84,1.32c.92.88,1.38,2.11,1.38,3.71v5.1c0,.49.22.75.67.77v1.82c-.22.03-.41.06-.55.07s-.3.02-.46.02c-.41,0-.75-.12-.99-.37-.25-.25-.39-.55-.44-.9l-.05-.89c-.56.75-1.27,1.32-2.12,1.71-.85.39-1.77.59-2.74.59ZM201.52,61.53c.75,0,1.45-.14,2.09-.42.64-.28,1.14-.65,1.47-1.11.3-.3.45-.61.45-.93v-1.84c-1.02-.4-2.08-.6-3.18-.6s-1.91.22-2.57.67c-.66.45-.99,1.03-.99,1.75,0,.35.07.68.2.98.14.3.33.57.57.79.25.22.54.4.87.53.33.13.69.19,1.08.19Z"/><path class="cls-1" d="M217.86,52.22c-1.05.03-1.98.3-2.79.81-.81.51-1.38,1.22-1.71,2.13v7.7h-2.11v-12.49h1.96v2.89c.43-.86,1-1.56,1.7-2.09.7-.53,1.45-.83,2.25-.9h.41c.11,0,.21,0,.29.02v1.91Z"/><path class="cls-1" d="M225.1,63.11c-.86,0-1.66-.18-2.39-.53-.73-.35-1.36-.82-1.89-1.41-.53-.59-.94-1.28-1.23-2.06s-.44-1.6-.44-2.46.14-1.71.42-2.5.67-1.48,1.17-2.07c.5-.59,1.1-1.06,1.79-1.4.69-.34,1.46-.51,2.29-.51,1,0,1.9.26,2.69.79.79.53,1.41,1.16,1.88,1.91v-7.46h2.11v14.88c0,.49.22.75.67.77v1.82c-.22.03-.4.06-.54.07-.13.02-.27.02-.39.02-.41,0-.78-.14-1.09-.42-.31-.28-.47-.6-.47-.97v-1.05c-.49.81-1.15,1.45-1.97,1.9-.82.46-1.69.68-2.6.68ZM225.61,61.29c.38,0,.78-.07,1.18-.21.41-.14.79-.34,1.15-.6.36-.26.67-.55.93-.9.26-.34.44-.71.51-1.09v-3.59c-.14-.4-.36-.78-.65-1.14-.29-.36-.61-.67-.97-.93-.36-.26-.74-.47-1.15-.62-.41-.15-.81-.23-1.21-.23-.62,0-1.18.13-1.69.39-.5.26-.93.61-1.29,1.05-.36.44-.63.94-.83,1.51-.19.57-.29,1.14-.29,1.73,0,.62.11,1.22.33,1.78.22.57.53,1.06.91,1.47.38.41.83.75,1.35.99.52.25,1.08.37,1.69.37Z"/><path class="cls-1" d="M248,62.24c-.13.06-.3.14-.5.23s-.44.18-.71.26c-.26.09-.55.16-.86.22-.31.06-.63.08-.97.08-.77,0-1.43-.21-1.98-.63-.56-.42-.84-1.08-.84-1.97v-8.4h-1.7v-1.65h1.7v-4.16h2.1v4.16h2.8v1.65h-2.8v7.75c.03.46.18.8.46,1,.27.21.59.31.96.31.41,0,.79-.07,1.14-.2.34-.14.58-.24.71-.32l.5,1.67Z"/><path class="cls-1" d="M255.48,63.11c-.94,0-1.8-.18-2.57-.53-.77-.35-1.44-.82-1.98-1.41-.55-.59-.98-1.28-1.28-2.06s-.45-1.6-.45-2.46.16-1.71.47-2.49c.31-.78.74-1.47,1.29-2.06.55-.59,1.21-1.06,1.99-1.41.77-.35,1.62-.53,2.55-.53s1.78.18,2.56.53c.78.35,1.45.82,2,1.41.55.59.98,1.28,1.29,2.06.31.78.47,1.61.47,2.49s-.15,1.68-.46,2.46-.73,1.47-1.29,2.06c-.56.59-1.22,1.06-2,1.41-.77.35-1.63.53-2.57.53ZM251.35,56.67c0,.65.11,1.26.32,1.82.22.56.51,1.04.88,1.46.37.41.81.74,1.32.98.5.24,1.04.36,1.61.36s1.11-.12,1.61-.36c.5-.24.95-.57,1.33-.99.38-.42.68-.92.9-1.48.22-.57.32-1.18.32-1.83s-.11-1.24-.32-1.81c-.21-.57-.51-1.06-.9-1.48-.38-.42-.83-.75-1.33-.99-.5-.24-1.04-.36-1.61-.36s-1.11.12-1.61.37c-.5.25-.94.58-1.32,1-.37.42-.67.92-.88,1.48-.21.57-.32,1.18-.32,1.83Z"/><path class="cls-1" d="M269.57,63.01c-.85,0-1.62-.18-2.33-.53-.71-.35-1.32-.82-1.83-1.41-.51-.59-.9-1.27-1.18-2.03-.28-.77-.42-1.56-.42-2.39,0-.88.14-1.71.42-2.5.28-.79.67-1.48,1.18-2.07.51-.59,1.12-1.06,1.83-1.4s1.5-.51,2.36-.51c1.05,0,1.96.26,2.73.77s1.41,1.16,1.94,1.94v-2.49h1.87v12.34c0,.89-.17,1.68-.5,2.36-.33.68-.79,1.25-1.36,1.71-.57.46-1.25.81-2.02,1.05-.77.24-1.6.36-2.48.36-1.42,0-2.57-.24-3.46-.73-.88-.49-1.62-1.16-2.21-2.02l1.22-1.08c.49.73,1.13,1.28,1.91,1.65.78.37,1.63.55,2.54.55.57,0,1.12-.08,1.64-.24.52-.16.97-.4,1.35-.72.38-.32.69-.72.92-1.2.23-.48.35-1.04.35-1.7v-2.2c-.24.38-.52.73-.85,1.04-.33.31-.68.57-1.07.79-.38.21-.79.38-1.22.49-.43.11-.87.17-1.32.17ZM270.22,61.29c.45,0,.88-.08,1.29-.24.41-.16.8-.37,1.15-.63.35-.26.64-.56.88-.9s.4-.68.48-1.03v-3.59c-.18-.43-.4-.82-.68-1.17-.28-.35-.59-.66-.94-.92-.35-.26-.73-.47-1.14-.61-.41-.14-.82-.21-1.23-.21-.64,0-1.21.14-1.71.41-.5.27-.93.63-1.28,1.08-.35.45-.62.95-.81,1.52-.19.57-.29,1.14-.29,1.71,0,.62.11,1.21.33,1.77.22.56.53,1.04.91,1.46.38.41.83.75,1.35.99.52.25,1.08.37,1.69.37Z"/><path class="cls-1" d="M285.29,63.11c-.94,0-1.8-.17-2.58-.51-.78-.34-1.45-.81-2.01-1.4-.56-.59-.99-1.28-1.3-2.07-.31-.79-.47-1.62-.47-2.5s.16-1.71.47-2.49c.31-.78.75-1.47,1.32-2.06.57-.59,1.24-1.06,2.02-1.4.78-.34,1.64-.51,2.58-.51s1.8.18,2.57.53c.77.35,1.43.82,1.97,1.4.54.58.96,1.26,1.26,2.03.29.77.44,1.58.44,2.4,0,.18,0,.33-.01.48s-.02.26-.04.33h-10.36c.05.62.19,1.19.43,1.7s.55.95.93,1.32c.38.37.82.65,1.3.86.49.21,1,.31,1.54.31.38,0,.76-.05,1.13-.16.37-.1.71-.24,1.03-.42.32-.18.6-.39.85-.65.25-.26.43-.54.56-.86l1.82.5c-.21.46-.49.88-.85,1.27-.36.38-.77.71-1.24.99-.47.28-.99.5-1.57.66s-1.17.24-1.79.24ZM289.57,55.79c-.05-.59-.2-1.14-.44-1.64-.25-.5-.56-.93-.93-1.28-.37-.35-.81-.63-1.3-.83-.49-.2-1.02-.3-1.58-.3s-1.09.1-1.58.3c-.5.2-.93.48-1.3.84-.37.36-.68.79-.91,1.28-.23.49-.37,1.04-.42,1.63h8.47Z"/><path class="cls-1" d="M300.48,62.24c-.13.06-.3.14-.5.23s-.44.18-.7.26c-.26.09-.55.16-.86.22-.31.06-.63.08-.97.08-.77,0-1.43-.21-1.99-.63-.56-.42-.84-1.08-.84-1.97v-8.4h-1.7v-1.65h1.7v-4.16h2.11v4.16h2.8v1.65h-2.8v7.75c.03.46.18.8.46,1,.27.21.59.31.96.31.41,0,.79-.07,1.14-.2.34-.14.58-.24.7-.32l.5,1.67Z"/><path class="cls-1" d="M313.51,62.87h-2.11v-6.98c0-1.29-.22-2.25-.67-2.88s-1.1-.94-1.96-.94c-.41,0-.83.08-1.24.25-.41.17-.8.39-1.16.68s-.68.63-.96,1.03c-.28.4-.49.84-.63,1.32v7.53h-2.11v-17.46h2.11v7.65c.49-.91,1.16-1.62,2.01-2.13.84-.51,1.77-.77,2.78-.77.73,0,1.35.14,1.87.41.51.27.92.64,1.22,1.1s.52,1.02.66,1.66c.14.65.2,1.34.2,2.07v7.46Z"/><path class="cls-1" d="M322.55,63.11c-.94,0-1.8-.17-2.58-.51-.78-.34-1.45-.81-2.01-1.4-.56-.59-.99-1.28-1.3-2.07-.31-.79-.47-1.62-.47-2.5s.16-1.71.47-2.49c.31-.78.75-1.47,1.32-2.06.57-.59,1.24-1.06,2.02-1.4.78-.34,1.64-.51,2.58-.51s1.8.18,2.57.53c.77.35,1.43.82,1.97,1.4.54.58.96,1.26,1.26,2.03.3.77.44,1.58.44,2.4,0,.18,0,.33-.01.48s-.02.26-.04.33h-10.36c.05.62.19,1.19.43,1.7s.55.95.93,1.32c.38.37.82.65,1.3.86.49.21,1,.31,1.54.31.38,0,.76-.05,1.12-.16.37-.1.71-.24,1.03-.42.32-.18.6-.39.85-.65s.43-.54.56-.86l1.82.5c-.21.46-.49.88-.85,1.27-.36.38-.77.71-1.24.99-.47.28-.99.5-1.57.66-.57.16-1.17.24-1.79.24ZM326.84,55.79c-.05-.59-.2-1.14-.44-1.64-.25-.5-.56-.93-.93-1.28-.37-.35-.81-.63-1.3-.83-.5-.2-1.02-.3-1.58-.3s-1.08.1-1.58.3c-.49.2-.93.48-1.3.84-.38.36-.68.79-.91,1.28-.23.49-.37,1.04-.42,1.63h8.47Z"/><path class="cls-1" d="M338.01,52.22c-1.05.03-1.98.3-2.79.81-.81.51-1.38,1.22-1.71,2.13v7.7h-2.11v-12.49h1.96v2.89c.43-.86,1-1.56,1.7-2.09.7-.53,1.45-.83,2.25-.9h.41c.11,0,.21,0,.29.02v1.91Z"/><path class="cls-1" d="M362.86,63.08c-1.01,0-1.99-.16-2.97-.47-.97-.31-1.81-.76-2.51-1.35l.91-1.41c.73.56,1.47.98,2.2,1.26.73.28,1.51.42,2.32.42.91,0,1.63-.18,2.17-.54.53-.36.8-.87.8-1.52,0-.3-.07-.56-.22-.78-.14-.21-.36-.4-.64-.56-.29-.16-.65-.3-1.1-.43-.45-.13-.97-.26-1.55-.41-.75-.19-1.4-.37-1.94-.55-.54-.18-.99-.38-1.34-.62-.35-.24-.61-.53-.76-.86-.16-.34-.24-.75-.24-1.24,0-.62.12-1.18.37-1.66.25-.49.59-.89,1.02-1.22.43-.33.94-.57,1.52-.74.58-.17,1.21-.25,1.88-.25.94,0,1.82.15,2.63.46.81.3,1.5.7,2.06,1.2l-.96,1.27c-.53-.46-1.12-.81-1.77-1.04-.65-.23-1.32-.35-2.01-.35-.77,0-1.41.16-1.95.49-.53.33-.8.85-.8,1.57,0,.29.05.53.16.72.1.19.28.36.51.5s.55.27.92.38c.38.11.83.23,1.35.36.83.19,1.55.39,2.16.59.61.2,1.12.43,1.53.71.41.27.71.59.91.96.2.37.3.81.3,1.34,0,1.16-.45,2.09-1.34,2.77-.89.69-2.1,1.03-3.61,1.03Z"/><path class="cls-1" d="M375.99,63.08c-.94,0-1.8-.18-2.57-.53-.77-.35-1.44-.82-1.99-1.41-.55-.59-.98-1.28-1.28-2.06-.3-.78-.46-1.6-.46-2.46s.16-1.71.47-2.49c.31-.78.74-1.47,1.29-2.06.55-.59,1.21-1.06,1.99-1.41.77-.35,1.62-.53,2.55-.53s1.78.18,2.56.53c.78.35,1.45.82,2,1.41.55.59.98,1.28,1.29,2.06.31.78.47,1.61.47,2.49s-.15,1.68-.45,2.46c-.3.78-.73,1.47-1.29,2.06-.56.59-1.22,1.06-2,1.41-.77.35-1.63.53-2.57.53ZM371.86,56.64c0,.65.11,1.26.32,1.82.22.56.51,1.04.89,1.46.37.41.81.74,1.32.98s1.04.36,1.61.36,1.11-.12,1.61-.36.94-.57,1.33-.99c.38-.42.68-.92.9-1.48.22-.57.32-1.18.32-1.83s-.11-1.24-.32-1.81c-.21-.57-.51-1.06-.9-1.48-.38-.42-.82-.75-1.33-.99s-1.04-.36-1.61-.36-1.11.12-1.61.37c-.5.25-.94.58-1.32,1-.38.42-.67.92-.89,1.48-.21.57-.32,1.18-.32,1.83Z"/><path class="cls-1" d="M395.94,62.84h-2.1v-6.98c0-1.34-.2-2.31-.61-2.92-.41-.61-1.03-.91-1.85-.91-.43,0-.86.08-1.29.25-.43.17-.84.39-1.22.68-.38.29-.72.63-1,1.03-.29.4-.5.84-.65,1.32v7.53h-2.1v-12.49h1.91v2.68c.49-.88,1.21-1.58,2.14-2.11.93-.53,1.95-.79,3.05-.79.72,0,1.32.13,1.79.4.48.26.86.63,1.15,1.1.29.47.49,1.03.61,1.66.12.64.18,1.33.18,2.08v7.46Z"/><path class="cls-1" d="M408.26,62.84l-4.31-6.1-2.39,2.25v3.85h-2.1v-17.46h2.1v11.48l6.41-6.48h2.32l-4.97,5.17,5.21,7.3h-2.27Z"/><path class="cls-1" d="M417.47,63.08c-.94,0-1.8-.17-2.58-.51-.78-.34-1.45-.81-2.01-1.4-.56-.59-.99-1.28-1.3-2.07-.31-.79-.47-1.62-.47-2.5s.16-1.71.47-2.49c.31-.78.75-1.47,1.32-2.06.57-.59,1.24-1.06,2.02-1.4.78-.34,1.64-.51,2.58-.51s1.8.18,2.57.53c.77.35,1.43.82,1.97,1.4.54.58.96,1.26,1.26,2.03.3.77.44,1.58.44,2.4,0,.18,0,.33-.01.48,0,.14-.02.26-.04.33h-10.36c.05.62.19,1.19.43,1.7.24.51.55.95.93,1.32.38.37.82.65,1.3.86.49.21,1,.31,1.54.31.38,0,.76-.05,1.12-.16s.71-.24,1.03-.42c.32-.18.6-.39.85-.65.25-.26.43-.54.56-.86l1.82.5c-.21.46-.49.88-.85,1.27-.36.38-.77.71-1.24.99-.47.28-.99.5-1.57.66-.57.16-1.17.24-1.79.24ZM421.75,55.76c-.05-.59-.19-1.14-.44-1.64-.25-.5-.56-.93-.93-1.28-.37-.35-.81-.63-1.3-.83-.5-.2-1.02-.3-1.58-.3s-1.08.1-1.58.3c-.49.2-.93.48-1.3.84s-.68.79-.91,1.28-.37,1.04-.42,1.63h8.47Z"/><path class="cls-1" d="M436.99,63.08c-1.01,0-1.99-.16-2.97-.47-.97-.31-1.81-.76-2.51-1.35l.91-1.41c.73.56,1.47.98,2.2,1.26.73.28,1.51.42,2.32.42.91,0,1.63-.18,2.16-.54.53-.36.8-.87.8-1.52,0-.3-.07-.56-.21-.78-.14-.21-.36-.4-.65-.56-.29-.16-.65-.3-1.1-.43-.45-.13-.97-.26-1.55-.41-.75-.19-1.4-.37-1.94-.55-.54-.18-.99-.38-1.34-.62-.35-.24-.61-.53-.77-.86-.16-.34-.24-.75-.24-1.24,0-.62.12-1.18.37-1.66.25-.49.59-.89,1.02-1.22.43-.33.94-.57,1.52-.74.58-.17,1.21-.25,1.88-.25.94,0,1.82.15,2.63.46.81.3,1.5.7,2.06,1.2l-.96,1.27c-.53-.46-1.12-.81-1.77-1.04-.65-.23-1.32-.35-2.01-.35-.77,0-1.42.16-1.95.49-.53.33-.8.85-.8,1.57,0,.29.05.53.16.72.1.19.27.36.51.5s.55.27.92.38c.37.11.83.23,1.35.36.83.19,1.55.39,2.17.59.61.2,1.12.43,1.53.71.41.27.71.59.91.96.2.37.3.81.3,1.34,0,1.16-.45,2.09-1.34,2.77-.89.69-2.1,1.03-3.61,1.03Z"/><path class="cls-1" d="M444.67,48.01v-2.63h2.11v2.63h-2.11ZM444.67,62.84v-12.49h2.11v12.49h-2.11Z"/><path class="cls-1" d="M450.98,66.24c.21.03.41.06.62.07.21.02.37.02.48.02.19,0,.36-.04.51-.13.15-.09.3-.26.46-.51.15-.26.32-.61.51-1.06.19-.45.43-1.05.72-1.78l-5.29-12.49h2.18l4.26,10.6,3.88-10.6h2.01l-6.08,15.76c-.22.56-.59,1.05-1.11,1.47-.52.42-1.23.63-2.14.63-.14,0-.29,0-.44-.02s-.34-.05-.56-.1v-1.87Z"/><path class="cls-1" d="M466.56,63.08c-.59,0-1.14-.1-1.65-.3-.51-.2-.95-.47-1.33-.83-.38-.35-.67-.76-.89-1.23-.21-.47-.32-.98-.32-1.54s.13-1.1.38-1.57c.26-.47.62-.87,1.09-1.21.47-.34,1.03-.6,1.67-.79.64-.19,1.35-.29,2.12-.29.61,0,1.22.06,1.84.17.62.11,1.17.26,1.65.45v-1c0-1.02-.29-1.82-.86-2.4s-1.39-.87-2.44-.87c-1.26,0-2.58.49-3.97,1.46l-.69-1.36c1.61-1.08,3.23-1.63,4.86-1.63s2.92.44,3.84,1.32c.92.88,1.38,2.11,1.38,3.71v5.1c0,.49.22.75.67.77v1.82c-.22.03-.41.06-.55.07-.14.02-.3.02-.46.02-.41,0-.75-.12-.99-.37-.25-.25-.39-.55-.44-.9l-.05-.89c-.56.75-1.26,1.32-2.12,1.71s-1.77.59-2.74.59ZM467.11,61.5c.75,0,1.45-.14,2.09-.42.65-.28,1.14-.65,1.47-1.11.3-.3.45-.61.45-.93v-1.84c-1.02-.4-2.08-.6-3.18-.6s-1.91.22-2.57.67c-.66.45-.99,1.03-.99,1.75,0,.35.07.68.2.98.14.3.33.57.57.79.25.22.54.4.87.53.33.13.69.19,1.08.19Z"/><path class="cls-1" d="M489.85,63.08c-1.04,0-1.95-.26-2.74-.77-.79-.51-1.42-1.16-1.88-1.94v7.56h-2.11v-17.58h1.87v2.34c.49-.77,1.14-1.38,1.92-1.85.79-.47,1.66-.71,2.62-.71.86,0,1.65.18,2.37.53.72.35,1.34.83,1.87,1.42s.94,1.29,1.23,2.07c.29.78.44,1.6.44,2.44,0,.89-.14,1.73-.41,2.52-.27.79-.65,1.48-1.15,2.06-.49.58-1.08,1.04-1.77,1.39-.69.34-1.44.51-2.27.51ZM489.21,61.26c.62,0,1.18-.13,1.69-.39s.93-.61,1.29-1.05c.36-.44.63-.94.83-1.5.19-.56.29-1.13.29-1.72,0-.62-.11-1.22-.34-1.78-.22-.57-.53-1.06-.91-1.48s-.83-.76-1.35-1c-.52-.25-1.08-.37-1.69-.37-.38,0-.78.08-1.18.23-.41.15-.79.35-1.15.6-.36.25-.67.54-.93.88-.26.34-.43.71-.51,1.09v3.56c.18.41.4.8.67,1.16s.58.67.93.93c.35.26.73.47,1.12.62.4.15.81.23,1.24.23Z"/><path class="cls-1" d="M509.11,62.84h-2.1v-6.98c0-1.29-.22-2.25-.67-2.88-.45-.63-1.1-.94-1.96-.94-.41,0-.83.08-1.24.25-.41.17-.8.39-1.16.68s-.68.63-.96,1.03c-.28.4-.49.84-.63,1.32v7.53h-2.1v-17.46h2.1v7.65c.49-.91,1.16-1.62,2.01-2.13.84-.51,1.77-.77,2.77-.77.73,0,1.36.14,1.87.41.51.27.92.64,1.22,1.1.3.46.52,1.02.66,1.66.14.65.2,1.34.2,2.07v7.46Z"/><path class="cls-1" d="M515.83,63.08c-.59,0-1.14-.1-1.65-.3-.51-.2-.95-.47-1.33-.83s-.67-.76-.88-1.23c-.22-.47-.32-.98-.32-1.54s.13-1.1.38-1.57c.25-.47.62-.87,1.09-1.21.47-.34,1.03-.6,1.67-.79.65-.19,1.35-.29,2.12-.29.61,0,1.22.06,1.84.17.62.11,1.17.26,1.65.45v-1c0-1.02-.29-1.82-.86-2.4s-1.39-.87-2.44-.87c-1.26,0-2.58.49-3.97,1.46l-.69-1.36c1.61-1.08,3.23-1.63,4.86-1.63s2.92.44,3.84,1.32c.92.88,1.38,2.11,1.38,3.71v5.1c0,.49.22.75.67.77v1.82c-.22.03-.41.06-.55.07-.14.02-.3.02-.45.02-.41,0-.75-.12-.99-.37s-.4-.55-.44-.9l-.05-.89c-.56.75-1.26,1.32-2.12,1.71-.85.39-1.77.59-2.74.59ZM516.38,61.5c.75,0,1.45-.14,2.09-.42.65-.28,1.14-.65,1.47-1.11.3-.3.46-.61.46-.93v-1.84c-1.02-.4-2.08-.6-3.18-.6s-1.91.22-2.57.67c-.66.45-.99,1.03-.99,1.75,0,.35.07.68.2.98s.33.57.57.79c.25.22.54.4.87.53.33.13.69.19,1.08.19Z"/><path class="cls-1" d="M544.94,62.84h-2.11v-6.98c0-1.31-.21-2.27-.63-2.89-.42-.62-1.05-.93-1.88-.93s-1.63.31-2.31.92c-.68.61-1.16,1.41-1.45,2.38v7.51h-2.11v-6.98c0-1.34-.21-2.31-.62-2.92-.41-.61-1.04-.91-1.87-.91s-1.61.3-2.3.9-1.17,1.39-1.46,2.38v7.53h-2.1v-12.49h1.91v2.68c.51-.93,1.17-1.64,1.98-2.14.81-.5,1.73-.75,2.75-.75s1.89.28,2.5.85c.61.57.99,1.3,1.14,2.19,1.12-2.03,2.7-3.04,4.76-3.04.72,0,1.32.13,1.81.4.49.26.87.63,1.16,1.1.29.47.49,1.03.62,1.66.13.64.19,1.33.19,2.08v7.46Z"/><path class="cls-1" d="M554.87,63.08c-.97,0-1.86-.24-2.65-.72-.8-.48-1.43-1.1-1.89-1.87v2.34h-1.87v-17.46h2.11v7.46c.53-.81,1.17-1.47,1.94-1.96.77-.49,1.66-.74,2.68-.74.86,0,1.63.18,2.32.55.68.37,1.27.85,1.76,1.45.49.6.86,1.29,1.13,2.08.26.79.39,1.6.39,2.43,0,.88-.15,1.71-.45,2.49s-.72,1.46-1.24,2.05c-.53.58-1.15,1.04-1.88,1.39-.73.34-1.5.51-2.33.51ZM554.34,61.26c.62,0,1.2-.13,1.72-.38.53-.26.98-.6,1.36-1.03.38-.43.68-.92.89-1.47.21-.55.31-1.13.31-1.73s-.1-1.19-.3-1.76c-.2-.57-.48-1.06-.84-1.5s-.79-.78-1.29-1.04c-.5-.26-1.06-.39-1.66-.39-.45,0-.87.08-1.27.24-.4.16-.77.37-1.11.63-.34.26-.65.57-.91.92-.26.35-.49.73-.68,1.12v3.61c.08.4.25.77.51,1.1.26.34.57.63.93.87.36.25.74.44,1.15.59.41.14.8.21,1.18.21Z"/><path class="cls-1" d="M563.6,48.01v-2.63h2.11v2.63h-2.11ZM563.6,62.84v-12.49h2.11v12.49h-2.11Z"/><path class="cls-1" d="M569.39,45.38h2.1v14.23c0,.46.12.83.37,1.09.25.26.59.39,1.04.39.17,0,.38-.03.62-.08s.46-.12.67-.2l.33,1.7c-.35.14-.77.26-1.24.36-.48.1-.9.14-1.27.14-.81,0-1.46-.23-1.93-.69-.47-.46-.71-1.11-.71-1.94v-15Z"/><path class="cls-1" d="M576.42,48.01v-2.63h2.11v2.63h-2.11ZM576.42,62.84v-12.49h2.11v12.49h-2.11Z"/><path class="cls-1" d="M606.38,63.08c-1.01,0-1.99-.16-2.97-.47s-1.81-.76-2.51-1.35l.91-1.41c.73.56,1.47.98,2.2,1.26.73.28,1.51.42,2.32.42.91,0,1.63-.18,2.16-.54.53-.36.8-.87.8-1.52,0-.3-.07-.56-.21-.78-.14-.21-.36-.4-.65-.56s-.65-.3-1.1-.43c-.45-.13-.97-.26-1.55-.41-.75-.19-1.4-.37-1.94-.55-.54-.18-.99-.38-1.34-.62-.35-.24-.61-.53-.77-.86-.16-.34-.24-.75-.24-1.24,0-.62.12-1.18.37-1.66.25-.49.59-.89,1.02-1.22.43-.33.94-.57,1.52-.74.58-.17,1.21-.25,1.88-.25.94,0,1.82.15,2.63.46.81.3,1.5.7,2.06,1.2l-.96,1.27c-.53-.46-1.12-.81-1.77-1.04-.65-.23-1.32-.35-2.01-.35-.77,0-1.42.16-1.95.49-.53.33-.8.85-.8,1.57,0,.29.05.53.16.72.1.19.27.36.51.5s.55.27.92.38c.37.11.83.23,1.35.36.83.19,1.55.39,2.17.59.61.2,1.12.43,1.53.71.41.27.71.59.91.96.2.37.3.81.3,1.34,0,1.16-.45,2.09-1.34,2.77-.89.69-2.1,1.03-3.61,1.03Z"/><path class="cls-1" d="M617.26,63.08c-.59,0-1.14-.1-1.65-.3-.51-.2-.95-.47-1.33-.83-.38-.35-.67-.76-.89-1.23-.21-.47-.32-.98-.32-1.54s.13-1.1.38-1.57c.26-.47.62-.87,1.09-1.21.47-.34,1.03-.6,1.67-.79.64-.19,1.35-.29,2.12-.29.61,0,1.22.06,1.84.17.62.11,1.17.26,1.65.45v-1c0-1.02-.29-1.82-.86-2.4-.57-.58-1.39-.87-2.44-.87-1.26,0-2.58.49-3.97,1.46l-.69-1.36c1.61-1.08,3.23-1.63,4.86-1.63s2.92.44,3.84,1.32c.92.88,1.38,2.11,1.38,3.71v5.1c0,.49.22.75.67.77v1.82c-.22.03-.41.06-.55.07-.14.02-.3.02-.46.02-.41,0-.75-.12-.99-.37-.25-.25-.39-.55-.44-.9l-.05-.89c-.56.75-1.26,1.32-2.12,1.71-.85.39-1.77.59-2.74.59ZM617.81,61.51c.75,0,1.45-.14,2.09-.42.65-.28,1.14-.65,1.47-1.11.3-.3.45-.61.45-.93v-1.84c-1.02-.4-2.08-.6-3.18-.6s-1.91.22-2.57.67c-.66.45-.99,1.03-.99,1.75,0,.35.07.68.2.98.14.3.33.57.57.79.25.22.54.4.87.53.33.13.69.19,1.08.19Z"/><path class="cls-1" d="M630.75,63.08c-.59,0-1.14-.1-1.65-.3-.51-.2-.95-.47-1.33-.83-.38-.35-.67-.76-.89-1.23-.21-.47-.32-.98-.32-1.54s.13-1.1.38-1.57c.26-.47.62-.87,1.09-1.21.47-.34,1.03-.6,1.67-.79.64-.19,1.35-.29,2.12-.29.61,0,1.22.06,1.84.17.62.11,1.17.26,1.65.45v-1c0-1.02-.29-1.82-.86-2.4-.57-.58-1.39-.87-2.44-.87-1.26,0-2.58.49-3.97,1.46l-.69-1.36c1.61-1.08,3.23-1.63,4.86-1.63s2.92.44,3.84,1.32c.92.88,1.38,2.11,1.38,3.71v5.1c0,.49.22.75.67.77v1.82c-.22.03-.41.06-.55.07-.14.02-.3.02-.46.02-.41,0-.75-.12-.99-.37-.25-.25-.39-.55-.44-.9l-.05-.89c-.56.75-1.26,1.32-2.12,1.71-.85.39-1.77.59-2.74.59ZM631.3,61.51c.75,0,1.45-.14,2.09-.42.65-.28,1.14-.65,1.47-1.11.3-.3.45-.61.45-.93v-1.84c-1.02-.4-2.08-.6-3.18-.6s-1.91.22-2.57.67c-.66.45-.99,1.03-.99,1.75,0,.35.07.68.2.98.14.3.33.57.57.79.25.22.54.4.87.53.33.13.69.19,1.08.19Z"/><path class="cls-1" d="M659.87,62.85h-2.11v-6.98c0-1.31-.21-2.27-.63-2.89-.42-.62-1.05-.93-1.88-.93s-1.63.31-2.31.92c-.68.61-1.16,1.41-1.45,2.38v7.51h-2.11v-6.98c0-1.34-.21-2.31-.62-2.92-.41-.61-1.04-.91-1.87-.91s-1.61.3-2.3.9c-.69.6-1.17,1.39-1.46,2.38v7.53h-2.11v-12.49h1.91v2.68c.51-.93,1.17-1.64,1.99-2.14.81-.5,1.73-.75,2.75-.75s1.89.28,2.5.85c.61.57.99,1.3,1.14,2.19,1.12-2.03,2.7-3.04,4.76-3.04.72,0,1.32.13,1.81.4.49.26.87.63,1.16,1.1.29.47.49,1.03.62,1.66.13.64.19,1.33.19,2.08v7.46Z"/><path class="cls-1" d="M672.64,62.85l-4.93-12.49h2.18l3.95,10.64,3.97-10.64h2.01l-4.93,12.49h-2.25Z"/><path class="cls-1" d="M687.16,63.08c-.94,0-1.8-.18-2.57-.53-.77-.35-1.44-.82-1.99-1.41-.55-.59-.98-1.28-1.28-2.06-.3-.78-.46-1.6-.46-2.46s.16-1.71.47-2.49c.31-.78.74-1.47,1.29-2.06.55-.59,1.21-1.06,1.99-1.41.77-.35,1.62-.53,2.55-.53s1.78.18,2.56.53c.78.35,1.45.82,2,1.41.55.59.98,1.28,1.29,2.06.31.78.47,1.61.47,2.49s-.15,1.68-.45,2.46c-.3.78-.73,1.47-1.29,2.06-.56.59-1.22,1.06-2,1.41-.77.35-1.63.53-2.57.53ZM683.02,56.65c0,.65.11,1.26.32,1.82.21.56.51,1.04.89,1.46.37.41.81.74,1.32.98.5.24,1.04.36,1.61.36s1.11-.12,1.61-.36c.5-.24.94-.57,1.33-.99s.68-.92.9-1.48c.21-.57.32-1.18.32-1.83s-.11-1.24-.32-1.81c-.21-.57-.51-1.06-.9-1.48-.38-.42-.83-.75-1.33-.99-.5-.24-1.04-.36-1.61-.36s-1.11.12-1.61.37c-.5.25-.94.58-1.32,1-.38.42-.67.92-.89,1.48-.21.57-.32,1.18-.32,1.83Z"/><path class="cls-1" d="M702.87,52.2c-1.05.03-1.98.3-2.79.81-.81.51-1.38,1.22-1.71,2.13v7.7h-2.11v-12.49h1.96v2.89c.43-.86,1-1.56,1.7-2.09.7-.53,1.45-.83,2.25-.9h.41c.11,0,.21,0,.29.02v1.91Z"/><path class="cls-1" d="M710.43,63.08c-.94,0-1.8-.17-2.58-.51-.78-.34-1.45-.81-2.01-1.4-.56-.59-.99-1.28-1.3-2.07-.31-.79-.47-1.62-.47-2.5s.16-1.71.47-2.49c.31-.78.75-1.47,1.32-2.06.57-.59,1.24-1.06,2.02-1.4.78-.34,1.64-.51,2.58-.51s1.8.18,2.57.53c.77.35,1.43.82,1.97,1.4.54.58.96,1.26,1.26,2.03.3.77.44,1.58.44,2.4,0,.18,0,.33-.01.48,0,.14-.02.26-.04.33h-10.36c.05.62.19,1.19.43,1.7s.55.95.93,1.32c.38.37.82.65,1.3.86.49.21,1,.31,1.54.31.38,0,.76-.05,1.12-.16.37-.1.71-.24,1.03-.42.32-.18.6-.39.85-.65.25-.26.43-.54.56-.86l1.82.5c-.21.46-.49.88-.85,1.27-.36.38-.77.71-1.24.99-.47.28-.99.5-1.57.66-.57.16-1.17.24-1.79.24ZM714.71,55.76c-.05-.59-.19-1.14-.44-1.64-.25-.5-.56-.93-.93-1.28-.37-.35-.81-.63-1.3-.83-.5-.2-1.02-.3-1.58-.3s-1.08.1-1.58.3c-.49.2-.93.48-1.3.84-.37.36-.68.79-.91,1.28-.23.49-.37,1.04-.42,1.63h8.47Z"/><path class="cls-1" d="M730.12,62.85h-2.11v-6.98c0-1.34-.2-2.31-.61-2.92-.41-.61-1.03-.91-1.85-.91-.43,0-.86.08-1.29.25-.43.17-.84.39-1.22.68-.38.29-.72.63-1.01,1.03-.29.4-.5.84-.65,1.32v7.53h-2.11v-12.49h1.91v2.68c.49-.88,1.21-1.58,2.14-2.11.93-.53,1.95-.79,3.05-.79.72,0,1.32.13,1.79.4.48.26.86.63,1.15,1.1.29.47.49,1.03.61,1.66.12.64.18,1.33.18,2.08v7.46Z"/><path class="cls-1" d="M739.97,62.22c-.13.06-.3.14-.5.23s-.44.18-.7.26c-.26.09-.55.16-.86.22-.31.06-.63.08-.97.08-.77,0-1.43-.21-1.99-.63s-.84-1.08-.84-1.97v-8.4h-1.7v-1.65h1.7v-4.16h2.11v4.16h2.8v1.65h-2.8v7.75c.03.46.18.8.46,1,.27.21.59.31.96.31.41,0,.79-.07,1.14-.2.34-.14.58-.24.7-.32l.5,1.67Z"/><path class="cls-1" d="M747.46,63.08c-.94,0-1.8-.18-2.57-.53-.77-.35-1.44-.82-1.99-1.41-.55-.59-.98-1.28-1.28-2.06-.3-.78-.46-1.6-.46-2.46s.16-1.71.47-2.49c.31-.78.74-1.47,1.29-2.06.55-.59,1.21-1.06,1.99-1.41.77-.35,1.62-.53,2.55-.53s1.78.18,2.56.53c.78.35,1.45.82,2,1.41.55.59.98,1.28,1.29,2.06.31.78.47,1.61.47,2.49s-.15,1.68-.45,2.46c-.3.78-.73,1.47-1.29,2.06-.56.59-1.22,1.06-2,1.41-.77.35-1.63.53-2.57.53ZM743.32,56.65c0,.65.11,1.26.32,1.82.21.56.51,1.04.89,1.46.37.41.81.74,1.32.98.5.24,1.04.36,1.61.36s1.11-.12,1.61-.36c.5-.24.94-.57,1.33-.99s.68-.92.9-1.48c.21-.57.32-1.18.32-1.83s-.11-1.24-.32-1.81c-.21-.57-.51-1.06-.9-1.48-.38-.42-.83-.75-1.33-.99-.5-.24-1.04-.36-1.61-.36s-1.11.12-1.61.37c-.5.25-.94.58-1.32,1-.38.42-.67.92-.89,1.48-.21.57-.32,1.18-.32,1.83Z"/><path class="cls-1" d="M762.1,63.08c-.94,0-1.8-.17-2.58-.51-.78-.34-1.45-.81-2.01-1.4-.56-.59-.99-1.28-1.3-2.07-.31-.79-.47-1.62-.47-2.5s.16-1.71.47-2.49c.31-.78.75-1.47,1.32-2.06.57-.59,1.24-1.06,2.02-1.4.78-.34,1.64-.51,2.58-.51s1.8.18,2.57.53c.77.35,1.43.82,1.97,1.4.54.58.96,1.26,1.26,2.03.3.77.44,1.58.44,2.4,0,.18,0,.33-.01.48,0,.14-.02.26-.04.33h-10.36c.05.62.19,1.19.43,1.7s.55.95.93,1.32c.38.37.82.65,1.3.86s1,.31,1.54.31c.38,0,.76-.05,1.12-.16.37-.1.71-.24,1.03-.42.32-.18.6-.39.85-.65s.43-.54.56-.86l1.82.5c-.21.46-.49.88-.85,1.27-.36.38-.77.71-1.24.99-.47.28-.99.5-1.57.66-.57.16-1.17.24-1.79.24ZM766.38,55.76c-.05-.59-.2-1.14-.44-1.64-.25-.5-.56-.93-.93-1.28-.37-.35-.81-.63-1.3-.83-.5-.2-1.02-.3-1.58-.3s-1.08.1-1.58.3c-.49.2-.93.48-1.3.84-.38.36-.68.79-.91,1.28-.23.49-.37,1.04-.42,1.63h8.47Z"/><path class="cls-1" d="M346.51,54.22c-.86-.05-1.6.62-1.65,1.48-.05.86.62,1.6,1.48,1.65.86.05,1.6-.62,1.65-1.48.05-.86-.62-1.6-1.48-1.65Z"/><path class="cls-1" d="M589.9,54.22c-.86-.05-1.6.62-1.65,1.48-.05.86.62,1.6,1.48,1.65.86.05,1.6-.62,1.65-1.48.05-.86-.62-1.6-1.48-1.65Z"/></svg>